mtllib Prop_CarpetFloors_Ref.mtl
o Object_16
g Object_16
usemtl Moquette_1
v 102.8953 -11.9008 317.4302
v 238.2724 -11.9008 317.4302
v 238.2724 -11.9008 -188.6564
v 102.8953 -11.9008 -188.6564
v -267.8142 -11.9008 317.4302
v -132.4371 -11.9008 317.4302
v -132.4371 -11.9008 -188.6564
v -267.8142 -11.9008 -188.6564
v -132.4371 -11.9008 347.8647
v 102.8953 -11.9008 347.8647
v 102.8953 -11.9008 347.8647
v -132.4371 -11.9008 347.8647
v -132.4371 -11.9008 707.2137
v 102.8953 -11.9008 707.2137
v 677.6535 -11.9008 707.2137
v 677.6535 -11.9008 347.8647
v -398.1714 -11.9008 707.2137
v -398.1714 -11.9008 347.8647
v -1677.9356 -11.9008 347.8647
v -1677.9356 -11.9008 707.2137
v -398.1714 -11.9008 347.8647
v -398.1714 -11.9008 707.2137
vt 0.85269 0.97599
vt 0.95842 0.97599
vt 0.95842 0.58073
vt 0.85269 0.58073
vt 0.56316 0.97599
vt 0.66889 0.97599
vt 0.66889 0.58073
vt 0.56316 0.58073
vt 0.66889 0.99976
vt 0.85269 0.99976
vt 0.56236 0.55086
vt 0.56236 0.36707
vt 0.28170 0.36707
vt 0.28170 0.55086
vt 0.28170 0.99976
vt 0.56236 0.99976
vt 0.00024 0.99976
vt 0.28090 0.99976
vt 0.28090 0.00024
vt 0.00024 0.00024
vt 0.56236 0.15952
vt 0.28170 0.15952
vn 0.0000 1.0000 0.0000
vn 0.0000 1.0000 0.0000
vn 0.0000 1.0000 0.0000
vn 0.0000 1.0000 0.0000
vn 0.0000 1.0000 0.0000
vn 0.0000 1.0000 0.0000
vn 0.0000 1.0000 0.0000
vn 0.0000 1.0000 0.0000
vn 0.0000 1.0000 0.0000
vn 0.0000 1.0000 0.0000
vn 0.0000 1.0000 0.0000
vn 0.0000 1.0000 0.0000
vn 0.0000 1.0000 0.0000
vn 0.0000 1.0000 0.0000
vn 0.0000 1.0000 0.0000
vn 0.0000 1.0000 0.0000
vn 0.0000 1.0000 0.0000
vn 0.0000 1.0000 0.0000
vn 0.0000 1.0000 0.0000
vn 0.0000 1.0000 0.0000
vn 0.0000 1.0000 0.0000
vn 0.0000 1.0000 0.0000
f 1/1/1 2/2/2 3/3/3
f 1/1/1 3/3/3 4/4/4
f 5/5/5 6/6/6 7/7/7
f 5/5/5 7/7/7 8/8/8
f 6/6/6 1/1/1 4/4/4
f 6/6/6 4/4/4 7/7/7
f 1/1/1 6/6/6 9/9/9
f 1/1/1 9/9/9 10/10/10
f 11/11/11 12/12/12 13/13/13
f 11/11/11 13/13/13 14/14/14
f 11/11/11 14/14/14 15/15/15
f 11/11/11 15/15/15 16/16/16
f 17/17/17 18/18/18 19/19/19
f 17/17/17 19/19/19 20/20/20
f 13/13/13 12/12/12 21/21/21
f 13/13/13 21/21/21 22/22/22
o Object_17
g Object_17
usemtl Moquette_2
v -1677.9354 -11.9008 1520.1375
v -3686.1942 -11.9008 1520.1377
v -3686.1942 -11.9008 1543.1697
v -1677.9354 -11.9008 1543.1693
v -1677.9356 -11.9008 -167.5389
v -3686.1942 -11.9008 -167.5385
v -3686.1942 -11.9008 1087.7766
v -1677.9354 -11.9008 1087.7762
v -1677.9356 -11.9008 -441.3297
v -3686.1942 -11.9008 -441.3295
vt 0.96456 0.98894
vt 0.00000 0.98894
vt 0.00000 1.00000
vt 0.96456 1.00000
vt 0.96456 0.17835
vt 0.00000 0.17835
vt 0.00000 0.78128
vt 0.96456 0.78128
vt 0.96456 0.04685
vt 0.00000 0.04685
vn 0.0000 1.0000 0.0000
vn 0.0000 1.0000 0.0000
vn 0.0000 1.0000 0.0000
vn 0.0000 1.0000 0.0000
vn 0.0000 1.0000 0.0000
vn 0.0000 1.0000 0.0000
vn 0.0000 1.0000 0.0000
vn 0.0000 1.0000 0.0000
vn 0.0000 1.0000 0.0000
vn 0.0000 1.0000 0.0000
f 23/23/23 24/24/24 25/25/25
f 23/23/23 25/25/25 26/26/26
f 27/27/27 28/28/28 29/29/29
f 27/27/27 29/29/29 30/30/30
f 30/30/30 29/29/29 24/24/24
f 30/30/30 24/24/24 23/23/23
f 31/31/31 32/32/32 28/28/28
f 31/31/31 28/28/28 27/27/27
o Object_18
g Object_18
usemtl Moquette_3
v -3686.1946 -11.9008 1520.1377
v -3686.1946 -11.9008 1087.7766
v -5481.8604 -11.9008 1087.7766
v -5481.8604 -11.9008 1520.1377
v -3686.1946 -11.9008 -167.5386
v -3686.1946 -11.9008 -457.3377
v -5481.8604 -11.9008 -457.3377
v -5481.8604 -11.9008 -167.5386
v -5498.9197 -11.9008 -457.3377
v -5498.9197 -11.9008 -167.5386
vt 0.00000 0.00000
vt 0.00000 0.20999
vt 0.87210 0.20999
vt 0.87210 0.00000
vt -0.00000 0.81966
vt -0.00000 0.96040
vt 0.87210 0.96040
vt 0.87210 0.81966
vt 0.88039 0.96040
vt 0.88039 0.81966
vn 0.0000 1.0000 0.0000
vn 0.0000 1.0000 0.0000
vn 0.0000 1.0000 0.0000
vn 0.0000 1.0000 0.0000
vn 0.0000 1.0000 0.0000
vn 0.0000 1.0000 0.0000
vn 0.0000 1.0000 0.0000
vn 0.0000 1.0000 0.0000
vn 0.0000 1.0000 0.0000
vn 0.0000 1.0000 0.0000
f 33/33/33 34/34/34 35/35/35
f 33/33/33 35/35/35 36/36/36
f 37/37/37 38/38/38 39/39/39
f 37/37/37 39/39/39 40/40/40
f 34/34/34 37/37/37 40/40/40
f 34/34/34 40/40/40 35/35/35
f 40/40/40 39/39/39 41/41/41
f 40/40/40 41/41/41 42/42/42
o Object_19
g Object_19
usemtl Moquette_4
v -5498.9197 -11.9008 -167.5386
v -5498.9197 -11.9008 -448.4496
v -5515.9790 -11.9008 -448.4496
v -5515.9790 -11.9008 -167.5386
v -6886.9644 -11.9008 -448.4496
v -6886.9644 -11.9008 -167.5386
v -6886.9644 -11.9008 1535.1602
v -5515.9790 -11.9008 1535.1602
vt 0.69079 0.17904
vt 0.69079 0.04360
vt 0.68257 0.04360
vt 0.68257 0.17904
vt 0.02154 0.04360
vt 0.02154 0.17904
vt 0.02154 1.00000
vt 0.68257 1.00000
vn 0.0000 1.0000 0.0000
vn 0.0000 1.0000 0.0000
vn 0.0000 1.0000 0.0000
vn 0.0000 1.0000 0.0000
vn 0.0000 1.0000 0.0000
vn 0.0000 1.0000 0.0000
vn 0.0000 1.0000 0.0000
vn 0.0000 1.0000 0.0000
f 43/43/43 44/44/44 45/45/45
f 43/43/43 45/45/45 46/46/46
f 45/45/45 47/47/47 48/48/48
f 45/45/45 48/48/48 46/46/46
f 46/46/46 48/48/48 49/49/49
f 46/46/46 49/49/49 50/50/50
