mtllib Prop_WoodFurniture_Ref.mtl
o Prop_Wood_Cabinets
g Prop_Wood_Cabinets
usemtl Wood
v -2059.5421 16.0191 1064.4053
v -2059.5421 20.5523 1064.4053
v -2059.5421 20.5523 1497.8168
v -2059.5421 16.0191 1497.8168
v -2059.5421 16.0191 1497.8168
v -2059.5421 20.5523 1497.8168
v -2060.3218 20.5523 1497.8168
v -2060.3218 16.0191 1497.8168
v -2060.3218 16.0191 630.9937
v -2060.3218 20.5523 630.9937
v -2059.5421 20.5523 630.9937
v -2059.5421 16.0191 630.9937
v -2059.5421 16.0191 1064.4053
v -2060.3218 16.0191 1064.4053
v -2060.3218 16.0191 630.9937
v -2059.5421 16.0191 630.9937
v -2060.3218 20.5523 1064.4053
v -2059.5421 20.5523 1064.4053
v -2059.5421 20.5523 630.9937
v -2060.3218 20.5523 630.9937
v -3058.8291 16.0191 630.9939
v -3058.8291 20.5523 630.9939
v -3058.8291 20.5523 900.7181
v -3058.8291 16.0191 900.7181
v -3058.8291 16.0191 900.7181
v -3058.8291 20.5523 900.7181
v -3059.6087 20.5523 900.7181
v -3059.6087 16.0191 900.7181
v -3059.6087 16.0191 630.9939
v -3059.6087 20.5523 630.9939
v -3058.8291 20.5523 630.9939
v -3058.8291 16.0191 630.9939
v -3058.8291 16.0191 900.7181
v -3059.6087 16.0191 900.7181
v -3059.6087 16.0191 630.9939
v -3058.8291 16.0191 630.9939
v -3059.6087 20.5523 900.7181
v -3058.8291 20.5523 900.7181
v -3058.8291 20.5523 630.9939
v -3059.6087 20.5523 630.9939
v -3058.8291 16.0191 900.0239
v -3058.8291 20.5523 900.0239
v -2770.1992 20.5523 900.0238
v -2770.1992 16.0191 900.0238
v -2770.1992 16.0191 900.0238
v -2770.1992 20.5523 900.0238
v -2770.1992 20.5523 900.8036
v -2770.1992 16.0191 900.8036
v -3058.8291 16.0191 900.8036
v -3058.8291 20.5523 900.8036
v -3058.8291 20.5523 900.0239
v -3058.8291 16.0191 900.0239
v -2770.1992 16.0191 900.0238
v -2770.1992 16.0191 900.8036
v -3058.8291 16.0191 900.8036
v -3058.8291 16.0191 900.0239
v -2770.1992 20.5523 900.8036
v -2770.1992 20.5523 900.0238
v -3058.8291 20.5523 900.0239
v -3058.8291 20.5523 900.8036
v -3673.9567 16.0191 558.0058
v -3673.9567 20.5523 558.0058
v -3673.9567 20.5523 884.0866
v -3673.9567 16.0191 884.0866
v -3673.9567 16.0191 884.0866
v -3673.9567 20.5523 884.0866
v -3674.7364 20.5523 884.0866
v -3674.7364 16.0191 884.0866
v -3674.7364 16.0191 -420.2365
v -3674.7364 20.5523 -420.2365
v -3673.9567 20.5523 -420.2365
v -3673.9567 16.0191 -420.2365
v -3673.9567 16.0191 -94.1557
v -3674.7364 16.0191 -94.1557
v -3674.7364 16.0191 -420.2365
v -3673.9567 16.0191 -420.2365
v -3674.7364 20.5523 -94.1557
v -3673.9567 20.5523 -94.1557
v -3673.9567 20.5523 -420.2365
v -3674.7364 20.5523 -420.2365
v -2481.0574 16.0191 1510.6432
v -2481.0574 20.5523 1510.6432
v -2087.2543 20.5523 1510.6432
v -2087.2543 16.0191 1510.6432
v -2087.2543 16.0191 1510.6432
v -2087.2543 20.5523 1510.6432
v -2087.2543 20.5523 1511.4227
v -2087.2543 16.0191 1511.4227
v -3662.4664 16.0191 1511.4231
v -3662.4664 20.5523 1511.4231
v -3662.4664 20.5523 1510.6434
v -3662.4664 16.0191 1510.6434
v -3268.6634 16.0191 1510.6432
v -3268.6634 16.0191 1511.4229
v -3662.4664 16.0191 1511.4231
v -3662.4664 16.0191 1510.6434
v -3268.6634 20.5523 1511.4229
v -3268.6634 20.5523 1510.6432
v -3662.4664 20.5523 1510.6434
v -3662.4664 20.5523 1511.4231
v -3203.6972 16.0191 1088.5073
v -2763.3486 16.0191 1088.5071
v -2763.3486 20.5523 1088.5071
v -3203.6968 20.5523 1088.5073
v -2763.3486 16.0191 1088.5071
v -2763.3486 16.0191 1087.7275
v -2763.3486 20.5523 1087.7275
v -2763.3486 20.5523 1088.5071
v -3644.0453 16.0191 1087.7277
v -3644.0453 16.0191 1088.5073
v -3644.0453 20.5523 1088.5073
v -3644.0453 20.5523 1087.7277
v -3203.6972 16.0191 1088.5073
v -3644.0453 16.0191 1088.5073
v -3644.0453 16.0191 1087.7277
v -3203.6968 16.0191 1087.7276
v -3203.6972 20.5523 1087.7276
v -3644.0453 20.5523 1087.7277
v -3644.0453 20.5523 1088.5073
v -3203.6968 20.5523 1088.5073
v -2070.8195 16.0191 15.8773
v -2070.8195 16.0191 449.2888
v -2070.8195 20.5523 449.2888
v -2070.8195 20.5523 15.8773
v -2070.8195 16.0191 449.2888
v -2070.0399 16.0191 449.2888
v -2070.0399 20.5523 449.2888
v -2070.8195 20.5523 449.2888
v -2070.0401 16.0191 -417.5343
v -2070.8197 16.0191 -417.5343
v -2070.8197 20.5523 -417.5343
v -2070.0401 20.5523 -417.5343
v -2070.8195 16.0191 15.8773
v -2070.8197 16.0191 -417.5343
v -2070.0401 16.0191 -417.5343
v -2070.0399 16.0191 15.8773
v -2070.0399 20.5523 15.8773
v -2070.0401 20.5523 -417.5343
v -2070.8197 20.5523 -417.5343
v -2070.8195 20.5523 15.8773
v -3808.1898 16.0191 671.2470
v -3808.1898 16.0191 1027.6972
v -3808.1898 20.5523 1027.6972
v -3808.1898 20.5523 671.2470
v -3808.1898 16.0191 1027.6972
v -3807.4100 16.0191 1027.6972
v -3807.4100 20.5523 1027.6972
v -3808.1898 20.5523 1027.6972
v -3807.4104 16.0191 -398.1036
v -3808.1902 16.0191 -398.1036
v -3808.1902 20.5523 -398.1036
v -3807.4104 20.5523 -398.1036
v -3808.1898 16.0191 -41.6533
v -3808.1902 16.0191 -398.1036
v -3807.4104 16.0191 -398.1036
v -3807.4104 16.0191 -41.6533
v -3807.4104 20.5523 -41.6533
v -3807.4104 20.5523 -398.1036
v -3808.1902 20.5523 -398.1036
v -3808.1898 20.5523 -41.6533
v -4499.1547 16.0191 -436.7857
v -4146.4798 16.0191 -436.7860
v -4146.4798 20.5523 -436.7860
v -4499.1547 20.5523 -436.7857
v -4146.4798 16.0191 -436.7860
v -4146.4798 16.0191 -437.5656
v -4146.4798 20.5523 -437.5656
v -4146.4798 20.5523 -436.7860
v -4499.1547 16.0191 -437.5655
v -4499.1547 16.0191 -436.7857
v -4499.1547 20.5523 -436.7857
v -4499.1547 20.5523 -437.5655
v -4146.4798 16.0191 -436.7860
v -4499.1547 16.0191 -436.7857
v -4499.1547 16.0191 -437.5655
v -4146.4798 16.0191 -437.5656
v -4146.4798 20.5523 -437.5656
v -4499.1547 20.5523 -437.5655
v -4499.1547 20.5523 -436.7857
v -4146.4798 20.5523 -436.7860
v -5464.7079 16.0191 792.2428
v -5464.7079 16.0191 443.1193
v -5464.7079 20.5523 443.1193
v -5464.7079 20.5523 792.2428
v -5464.7079 16.0191 443.1193
v -5465.4877 16.0191 443.1193
v -5465.4877 20.5523 443.1193
v -5464.7079 20.5523 443.1193
v -5465.4877 16.0191 1141.3664
v -5464.7079 16.0191 1141.3664
v -5464.7079 20.5523 1141.3664
v -5465.4877 20.5523 1141.3664
v -5464.7079 16.0191 792.2428
v -5464.7079 16.0191 1141.3664
v -5465.4877 16.0191 1141.3664
v -5465.4877 16.0191 792.2428
v -5465.4877 20.5523 792.2428
v -5465.4877 20.5523 1141.3664
v -5464.7079 20.5523 1141.3664
v -5464.7079 20.5523 792.2428
v -5434.3075 16.0191 419.4257
v -5222.3728 16.0191 419.4255
v -5222.3728 20.5523 419.4255
v -5434.3075 20.5523 419.4257
v -5222.3728 16.0191 419.4255
v -5222.3728 16.0191 418.6458
v -5222.3728 20.5523 418.6458
v -5222.3728 20.5523 419.4255
v -5434.3075 16.0191 418.6460
v -5434.3075 16.0191 419.4257
v -5434.3075 20.5523 419.4257
v -5434.3075 20.5523 418.6460
v -5222.3728 16.0191 419.4255
v -5434.3075 16.0191 419.4257
v -5434.3075 16.0191 418.6460
v -5222.3728 16.0191 418.6458
v -5222.3728 20.5523 418.6458
v -5434.3075 20.5523 418.6460
v -5434.3075 20.5523 419.4257
v -5222.3728 20.5523 419.4255
v -4485.5587 106.2356 572.5017
v -4485.5587 106.2356 962.4575
v -4457.4398 106.2356 962.4575
v -4457.4398 106.2356 572.5017
v -4485.5587 106.2356 962.4575
v -4485.5587 102.7431 962.4575
v -4457.4398 102.7431 962.4575
v -4457.4398 106.2356 962.4575
v -4485.5587 102.7431 572.5017
v -4485.5587 106.2356 572.5017
v -4457.4398 106.2356 572.5017
v -4457.4398 102.7431 572.5017
v -4485.5587 106.2356 962.4575
v -4485.5587 106.2356 572.5017
v -4485.5587 102.7431 572.5017
v -4485.5587 102.7431 962.4575
v -4457.4398 102.7431 962.4575
v -4457.4398 102.7431 572.5017
v -4457.4398 106.2356 572.5017
v -4457.4398 106.2356 962.4575
v -4457.4398 102.7431 962.4575
v -4485.5587 102.7431 962.4575
v -4485.5587 102.7431 572.5017
v -4457.4398 102.7431 572.5017
v -4117.0433 106.2356 -295.9230
v -4117.0433 106.2356 -96.4512
v -4088.9244 106.2356 -96.4512
v -4088.9244 106.2356 -295.9230
v -4117.0433 106.2356 -96.4512
v -4117.0433 102.7431 -96.4512
v -4088.9244 102.7431 -96.4512
v -4088.9244 106.2356 -96.4512
v -4117.0433 102.7431 -295.9230
v -4117.0433 106.2356 -295.9230
v -4088.9244 106.2356 -295.9230
v -4088.9244 102.7431 -295.9230
v -4117.0433 106.2356 -96.4512
v -4117.0433 106.2356 -295.9230
v -4117.0433 102.7431 -295.9230
v -4117.0433 102.7431 -96.4512
v -4088.9244 102.7431 -96.4512
v -4088.9244 102.7431 -295.9230
v -4088.9244 106.2356 -295.9230
v -4088.9244 106.2356 -96.4512
v -4088.9244 102.7431 -96.4512
v -4117.0433 102.7431 -96.4512
v -4117.0433 102.7431 -295.9230
v -4088.9244 102.7431 -295.9230
v -5532.7816 16.0191 1034.6624
v -5532.7816 16.0191 1480.9116
v -5532.7816 20.5523 1480.9116
v -5532.7816 20.5523 1034.6624
v -5532.7816 16.0191 1480.9116
v -5532.0019 16.0191 1480.9116
v -5532.0019 20.5523 1480.9116
v -5532.7816 20.5523 1480.9116
v -5532.0019 16.0191 -304.0854
v -5532.7816 16.0191 -304.0854
v -5532.7816 20.5523 -304.0854
v -5532.0019 20.5523 -304.0854
v -5532.7816 16.0191 142.1639
v -5532.7816 16.0191 -304.0854
v -5532.0019 16.0191 -304.0854
v -5532.0019 16.0191 142.1639
v -5532.0019 20.5523 142.1639
v -5532.0019 20.5523 -304.0854
v -5532.7816 20.5523 -304.0854
v -5532.7816 20.5523 142.1639
v -5532.0019 20.5523 1034.6624
v -5532.0019 20.5523 588.4132
v -5532.7816 20.5523 588.4132
v -5532.7816 20.5523 1034.6624
v -5532.7816 16.0191 1034.6624
v -5532.7816 16.0191 588.4132
v -5532.0019 16.0191 588.4132
v -5532.0019 16.0191 1034.6624
v -5532.7816 16.0191 142.1639
v -5532.7816 16.0191 588.4132
v -5532.7816 20.5523 588.4132
v -5532.7816 20.5523 142.1639
v -2481.0574 20.5523 1511.4229
v -2481.0574 20.5523 1510.6432
v -2874.8604 20.5523 1510.6432
v -2874.8604 20.5523 1511.4229
v -2481.0574 16.0191 1510.6432
v -2481.0574 16.0191 1511.4229
v -2874.8604 16.0191 1511.4229
v -2874.8604 16.0191 1510.6432
v -3268.6634 16.0191 1510.6432
v -3268.6634 20.5523 1510.6432
v -2874.8604 20.5523 1510.6432
v -2874.8604 16.0191 1510.6432
v -3807.4100 20.5523 671.2470
v -3807.4100 20.5523 314.7968
v -3808.1898 20.5523 314.7968
v -3808.1898 20.5523 671.2470
v -3808.1898 16.0191 671.2470
v -3808.1898 16.0191 314.7969
v -3807.4100 16.0191 314.7969
v -3807.4100 16.0191 671.2470
v -3808.1898 16.0191 -41.6533
v -3808.1898 16.0191 314.7969
v -3808.1898 20.5523 314.7968
v -3808.1898 20.5523 -41.6533
v -3674.7364 20.5523 558.0058
v -3673.9567 20.5523 558.0058
v -3673.9567 20.5523 231.9251
v -3674.7364 20.5523 231.9250
v -3673.9567 16.0191 558.0058
v -3674.7364 16.0191 558.0058
v -3674.7364 16.0191 231.9251
v -3673.9567 16.0191 231.9250
v -3673.9567 16.0191 -94.1557
v -3673.9567 20.5523 -94.1557
v -3673.9567 20.5523 231.9251
v -3673.9567 16.0191 231.9250
v -5532.7816 16.0191 1480.9116
v -5532.7816 16.0191 1034.6624
v -5532.0019 16.0191 1034.6624
v -5532.0019 16.0191 1480.9116
v -5532.0019 20.5523 1480.9116
v -5532.0019 20.5523 1034.6624
v -5532.7816 20.5523 1034.6624
v -5532.7816 20.5523 1480.9116
v -5532.7816 16.0191 588.4132
v -5532.7816 16.0191 1034.6624
v -5532.7816 20.5523 1034.6624
v -5532.7816 20.5523 588.4132
v -5532.7816 16.0191 -304.0854
v -5532.7816 16.0191 142.1639
v -5532.7816 20.5523 142.1639
v -5532.7816 20.5523 -304.0854
v -5532.0019 20.5523 588.4132
v -5532.0019 20.5523 142.1639
v -5532.7816 20.5523 142.1639
v -5532.7816 20.5523 588.4132
v -5532.7816 16.0191 588.4132
v -5532.7816 16.0191 142.1639
v -5532.0019 16.0191 142.1639
v -5532.0019 16.0191 588.4132
v -2763.3486 20.5523 1087.7275
v -3203.6972 20.5523 1087.7276
v -3203.6968 20.5523 1088.5073
v -2763.3486 20.5523 1088.5071
v -2763.3486 16.0191 1088.5071
v -3203.6972 16.0191 1088.5073
v -3203.6968 16.0191 1087.7276
v -2763.3486 16.0191 1087.7275
v -3644.0453 16.0191 1088.5073
v -3203.6972 16.0191 1088.5073
v -3203.6968 20.5523 1088.5073
v -3644.0453 20.5523 1088.5073
v -2070.0399 20.5523 449.2888
v -2070.0399 20.5523 15.8773
v -2070.8195 20.5523 15.8773
v -2070.8195 20.5523 449.2888
v -2070.8195 16.0191 449.2888
v -2070.8195 16.0191 15.8773
v -2070.0399 16.0191 15.8773
v -2070.0399 16.0191 449.2888
v -2070.8197 16.0191 -417.5343
v -2070.8195 16.0191 15.8773
v -2070.8195 20.5523 15.8773
v -2070.8197 20.5523 -417.5343
v -2060.3218 20.5523 1497.8168
v -2059.5421 20.5523 1497.8168
v -2059.5421 20.5523 1064.4053
v -2060.3218 20.5523 1064.4053
v -2059.5421 16.0191 1497.8168
v -2060.3218 16.0191 1497.8168
v -2060.3218 16.0191 1064.4053
v -2059.5421 16.0191 1064.4053
v -2059.5421 16.0191 630.9937
v -2059.5421 20.5523 630.9937
v -2059.5421 20.5523 1064.4053
v -2059.5421 16.0191 1064.4053
v -2087.2543 16.0191 1510.6432
v -2087.2543 16.0191 1511.4227
v -2481.0574 16.0191 1511.4229
v -2481.0574 16.0191 1510.6432
v -2087.2543 20.5523 1511.4227
v -2087.2543 20.5523 1510.6432
v -2481.0574 20.5523 1510.6432
v -2481.0574 20.5523 1511.4229
v -2874.8604 16.0191 1510.6432
v -2874.8604 20.5523 1510.6432
v -2481.0574 20.5523 1510.6432
v -2481.0574 16.0191 1510.6432
v -3662.4664 16.0191 1510.6434
v -3662.4664 20.5523 1510.6434
v -3268.6634 20.5523 1510.6432
v -3268.6634 16.0191 1510.6432
v -2874.8604 20.5523 1511.4229
v -2874.8604 20.5523 1510.6432
v -3268.6634 20.5523 1510.6432
v -3268.6634 20.5523 1511.4229
v -2874.8604 16.0191 1510.6432
v -2874.8604 16.0191 1511.4229
v -3268.6634 16.0191 1511.4229
v -3268.6634 16.0191 1510.6432
v -3808.1898 16.0191 1027.6972
v -3808.1898 16.0191 671.2470
v -3807.4100 16.0191 671.2470
v -3807.4100 16.0191 1027.6972
v -3807.4100 20.5523 1027.6972
v -3807.4100 20.5523 671.2470
v -3808.1898 20.5523 671.2470
v -3808.1898 20.5523 1027.6972
v -3808.1898 16.0191 314.7969
v -3808.1898 16.0191 671.2470
v -3808.1898 20.5523 671.2470
v -3808.1898 20.5523 314.7968
v -3808.1902 16.0191 -398.1036
v -3808.1898 16.0191 -41.6533
v -3808.1898 20.5523 -41.6533
v -3808.1902 20.5523 -398.1036
v -3807.4100 20.5523 314.7968
v -3807.4104 20.5523 -41.6533
v -3808.1898 20.5523 -41.6533
v -3808.1898 20.5523 314.7968
v -3808.1898 16.0191 314.7969
v -3808.1898 16.0191 -41.6533
v -3807.4104 16.0191 -41.6533
v -3807.4100 16.0191 314.7969
v -5465.4877 20.5523 443.1193
v -5465.4877 20.5523 792.2428
v -5464.7079 20.5523 792.2428
v -5464.7079 20.5523 443.1193
v -5464.7079 16.0191 443.1193
v -5464.7079 16.0191 792.2428
v -5465.4877 16.0191 792.2428
v -5465.4877 16.0191 443.1193
v -5464.7079 16.0191 1141.3664
v -5464.7079 16.0191 792.2428
v -5464.7079 20.5523 792.2428
v -5464.7079 20.5523 1141.3664
v -3673.9567 16.0191 -420.2365
v -3673.9567 20.5523 -420.2365
v -3673.9567 20.5523 -94.1557
v -3673.9567 16.0191 -94.1557
v -3674.7364 20.5523 231.9250
v -3673.9567 20.5523 231.9251
v -3673.9567 20.5523 -94.1557
v -3674.7364 20.5523 -94.1557
v -3673.9567 16.0191 231.9250
v -3674.7364 16.0191 -94.1557
v -3673.9567 16.0191 -94.1557
v -3673.9567 16.0191 884.0866
v -3674.7364 16.0191 884.0866
v -3674.7364 16.0191 558.0058
v -3673.9567 16.0191 558.0058
v -3674.7364 20.5523 884.0866
v -3673.9567 20.5523 884.0866
v -3673.9567 20.5523 558.0058
v -3674.7364 20.5523 558.0058
v -3673.9567 16.0191 231.9250
v -3673.9567 20.5523 231.9251
v -3673.9567 20.5523 558.0058
v -3673.9567 16.0191 558.0058
v -1173.7156 16.0191 706.4922
v -1607.1270 16.0191 706.4923
v -1607.1270 20.5523 706.4923
v -1173.7156 20.5523 706.4922
v -1607.1270 16.0191 706.4923
v -1607.1270 16.0191 707.2720
v -1607.1270 20.5523 707.2720
v -1607.1270 20.5523 706.4923
v -740.3040 16.0191 707.2717
v -740.3040 16.0191 706.4921
v -740.3040 20.5523 706.4921
v -740.3040 20.5523 707.2717
v -1173.7156 16.0191 706.4922
v -740.3040 16.0191 706.4921
v -740.3040 16.0191 707.2717
v -1173.7156 16.0191 707.2718
v -1173.7156 20.5523 707.2718
v -740.3040 20.5523 707.2717
v -740.3040 20.5523 706.4921
v -1173.7156 20.5523 706.4922
v 188.4430 16.0191 706.4922
v -244.9688 16.0191 706.4923
v -244.9688 20.5523 706.4923
v 188.4430 20.5523 706.4922
v -244.9688 16.0191 706.4923
v -244.9688 16.0191 707.2720
v -244.9688 20.5523 707.2720
v -244.9688 20.5523 706.4923
v 621.8544 16.0191 707.2717
v 621.8544 16.0191 706.4921
v 621.8544 20.5523 706.4921
v 621.8544 20.5523 707.2717
v 188.4430 16.0191 706.4922
v 621.8544 16.0191 706.4921
v 621.8544 16.0191 707.2717
v 188.4430 16.0191 707.2718
v 188.4430 20.5523 707.2718
v 621.8544 20.5523 707.2717
v 621.8544 20.5523 706.4921
v 188.4430 20.5523 706.4922
v -244.9688 20.5523 707.2720
v 188.4430 20.5523 707.2718
v 188.4430 20.5523 706.4922
v -244.9688 20.5523 706.4923
v -244.9688 16.0191 706.4923
v 188.4430 16.0191 706.4922
v 188.4430 16.0191 707.2718
v -244.9688 16.0191 707.2720
v 621.8544 16.0191 706.4921
v 188.4430 16.0191 706.4922
v 188.4430 20.5523 706.4922
v 621.8544 20.5523 706.4921
v -1607.1270 20.5523 707.2720
v -1173.7156 20.5523 707.2718
v -1173.7156 20.5523 706.4922
v -1607.1270 20.5523 706.4923
v -1607.1270 16.0191 706.4923
v -1173.7156 16.0191 706.4922
v -1173.7156 16.0191 707.2718
v -1607.1270 16.0191 707.2720
v -740.3040 16.0191 706.4921
v -1173.7156 16.0191 706.4922
v -1173.7156 20.5523 706.4922
v -740.3040 20.5523 706.4921
vt 0.12092 0.02872
vt 0.11078 0.02872
vt 0.11078 0.99826
vt 0.12092 0.99826
vt 0.12092 0.99826
vt 0.11078 0.99826
vt 0.11078 1.00000
vt 0.12092 1.00000
vt 0.13803 1.00000
vt 0.14818 1.00000
vt 0.14818 0.99826
vt 0.13803 0.99826
vt 0.13803 0.02872
vt 0.13629 0.02872
vt 0.13629 0.99826
vt 0.13803 0.99826
vt 0.14992 0.02872
vt 0.14818 0.02872
vt 0.14818 0.99826
vt 0.14992 0.99826
vt 0.56820 0.39489
vt 0.55806 0.39489
vt 0.55806 0.99826
vt 0.56820 0.99826
vt 0.56820 0.99826
vt 0.55806 0.99826
vt 0.55806 1.00000
vt 0.56820 1.00000
vt 0.56820 0.39314
vt 0.55806 0.39314
vt 0.55806 0.39489
vt 0.56820 0.39489
vt 0.56820 0.99826
vt 0.56995 0.99826
vt 0.56995 0.39489
vt 0.56820 0.39489
vt 0.55632 0.99826
vt 0.55806 0.99826
vt 0.55806 0.39489
vt 0.55632 0.39489
vt 0.55458 0.35259
vt 0.54444 0.35259
vt 0.54444 0.99826
vt 0.55458 0.99826
vt 0.55458 0.99826
vt 0.54444 0.99826
vt 0.54444 1.00000
vt 0.55458 1.00000
vt 0.55458 0.35085
vt 0.54444 0.35085
vt 0.54444 0.35259
vt 0.55458 0.35259
vt 0.55458 0.99826
vt 0.55632 0.99826
vt 0.55632 0.35259
vt 0.55458 0.35259
vt 0.54269 0.99826
vt 0.54444 0.99826
vt 0.54444 0.35259
vt 0.54269 0.35259
vt 0.48992 1.00000
vt 0.50006 1.00000
vt 0.50006 0.27056
vt 0.48992 0.27056
vt 0.48992 0.27056
vt 0.50006 0.27056
vt 0.50006 0.26881
vt 0.48992 0.26881
vt 0.50355 1.00000
vt 0.51369 1.00000
vt 0.51369 0.99826
vt 0.50355 0.99826
vt 0.50355 0.26882
vt 0.50180 0.26882
vt 0.50180 0.99826
vt 0.50355 0.99826
vt 0.51543 0.26882
vt 0.51369 0.26882
vt 0.51369 0.99826
vt 0.51543 0.99826
vt 0.35363 1.00000
vt 0.36377 1.00000
vt 0.36377 0.11907
vt 0.35363 0.11907
vt 0.35363 0.11907
vt 0.36377 0.11907
vt 0.36377 0.11732
vt 0.35363 0.11732
vt 0.34000 1.00000
vt 0.35014 1.00000
vt 0.35014 0.99826
vt 0.34000 0.99826
vt 0.34000 0.11732
vt 0.33825 0.11732
vt 0.33825 0.99826
vt 0.34000 0.99826
vt 0.35188 0.11732
vt 0.35014 0.11732
vt 0.35014 0.99826
vt 0.35188 0.99826
vt 0.08003 1.00000
vt 0.08003 0.01494
vt 0.06989 0.01494
vt 0.06989 1.00000
vt 0.08003 0.01494
vt 0.08003 0.01320
vt 0.06989 0.01320
vt 0.06989 0.01494
vt 0.06640 1.00000
vt 0.06640 0.99826
vt 0.05626 0.99826
vt 0.05626 1.00000
vt 0.06640 0.01320
vt 0.06640 0.99826
vt 0.06815 0.99826
vt 0.06815 0.01320
vt 0.05452 0.01320
vt 0.05452 0.99826
vt 0.05626 0.99826
vt 0.05626 0.01320
vt 0.16180 1.00000
vt 0.16180 0.03046
vt 0.15166 0.03046
vt 0.15166 1.00000
vt 0.16180 0.03046
vt 0.16180 0.02872
vt 0.15166 0.02872
vt 0.15166 0.03046
vt 0.09715 0.02872
vt 0.09715 0.03046
vt 0.10729 0.03046
vt 0.10729 0.02872
vt 0.09715 1.00000
vt 0.09715 0.03046
vt 0.09540 0.03046
vt 0.09540 1.00000
vt 0.10903 1.00000
vt 0.10903 0.03046
vt 0.10729 0.03046
vt 0.10729 1.00000
vt 0.40466 1.00000
vt 0.40466 0.20262
vt 0.39452 0.20262
vt 0.39452 1.00000
vt 0.40466 0.20262
vt 0.40466 0.20088
vt 0.39452 0.20088
vt 0.39452 0.20262
vt 0.40814 0.20088
vt 0.40814 0.20262
vt 0.41829 0.20262
vt 0.41829 0.20088
vt 0.40815 1.00000
vt 0.40814 0.20262
vt 0.40640 0.20262
vt 0.40640 1.00000
vt 0.42003 1.00000
vt 0.42003 0.20262
vt 0.41829 0.20262
vt 0.41829 1.00000
vt 0.45917 0.99826
vt 0.45917 0.20933
vt 0.44903 0.20933
vt 0.44903 0.99825
vt 0.45917 0.20933
vt 0.45917 0.20758
vt 0.44903 0.20758
vt 0.44903 0.20933
vt 0.45917 1.00000
vt 0.45917 0.99826
vt 0.44903 0.99825
vt 0.44903 1.00000
vt 0.45917 0.20933
vt 0.45917 0.99826
vt 0.46091 0.99826
vt 0.46091 0.20933
vt 0.44729 0.20933
vt 0.44729 0.99826
vt 0.44903 0.99825
vt 0.44903 0.20933
vt 0.47629 0.21728
vt 0.47629 0.99826
vt 0.48643 0.99826
vt 0.48643 0.21728
vt 0.47629 0.99826
vt 0.47629 1.00000
vt 0.48643 1.00000
vt 0.48643 0.99826
vt 0.46266 0.21727
vt 0.46266 0.21901
vt 0.47280 0.21901
vt 0.47280 0.21727
vt 0.46266 1.00000
vt 0.46266 0.21901
vt 0.46091 0.21901
vt 0.46091 1.00000
vt 0.47454 1.00000
vt 0.47454 0.21901
vt 0.47280 0.21901
vt 0.47280 1.00000
vt 0.57169 0.52416
vt 0.57169 0.99826
vt 0.58183 0.99826
vt 0.58183 0.52416
vt 0.57169 0.99826
vt 0.57169 1.00000
vt 0.58183 1.00000
vt 0.58183 0.99826
vt 0.57169 0.52242
vt 0.57169 0.52416
vt 0.58183 0.52416
vt 0.58183 0.52242
vt 0.57169 0.99826
vt 0.57169 0.52416
vt 0.56995 0.52416
vt 0.56995 0.99826
vt 0.58358 0.99826
vt 0.58358 0.52416
vt 0.58183 0.52416
vt 0.58183 0.99826
vt 0.26754 0.99219
vt 0.26754 0.11986
vt 0.20464 0.11986
vt 0.20464 0.99219
vt 0.26754 0.11986
vt 0.26754 0.11205
vt 0.20464 0.11205
vt 0.20464 0.11986
vt 0.26754 1.00000
vt 0.26754 0.99219
vt 0.20464 0.99219
vt 0.20464 1.00000
vt 0.26754 0.11986
vt 0.26754 0.99219
vt 0.27535 0.99219
vt 0.27535 0.11986
vt 0.19683 0.11986
vt 0.19683 0.99219
vt 0.20464 0.99219
vt 0.20464 0.11986
vt 0.33825 0.11986
vt 0.27535 0.11986
vt 0.27535 0.99219
vt 0.33825 0.99219
vt 0.65429 0.99219
vt 0.65429 0.54597
vt 0.59139 0.54597
vt 0.59139 0.99219
vt 0.65429 0.54597
vt 0.65429 0.53816
vt 0.59139 0.53816
vt 0.59139 0.54597
vt 0.65429 1.00000
vt 0.65429 0.99219
vt 0.59139 0.99219
vt 0.59139 1.00000
vt 0.65429 0.54597
vt 0.65429 0.99219
vt 0.66211 0.99219
vt 0.66211 0.54597
vt 0.58358 0.54597
vt 0.58358 0.99219
vt 0.59139 0.99219
vt 0.59139 0.54597
vt 0.72501 0.54597
vt 0.66211 0.54597
vt 0.66211 0.99219
vt 0.72501 0.99219
vt 0.02551 1.00000
vt 0.02551 0.00174
vt 0.01537 0.00174
vt 0.01537 1.00000
vt 0.02551 0.00174
vt 0.02551 0.00000
vt 0.01537 0.00000
vt 0.01537 0.00174
vt 0.01189 1.00000
vt 0.01189 0.99826
vt 0.00174 0.99826
vt 0.00174 1.00000
vt 0.01189 0.00000
vt 0.01189 0.99826
vt 0.01363 0.99826
vt 0.01363 0.00000
vt 0.00000 0.00000
vt 0.00000 0.99826
vt 0.00174 0.99826
vt 0.00174 0.00000
vt 0.02726 0.00174
vt 0.02726 1.00000
vt 0.02900 1.00000
vt 0.02900 0.00174
vt 0.03914 0.00174
vt 0.03914 1.00000
vt 0.04089 1.00000
vt 0.04089 0.00174
vt 0.05277 1.00000
vt 0.05277 0.00174
vt 0.04263 0.00174
vt 0.04263 1.00000
vt 0.37914 0.11907
vt 0.37740 0.11907
vt 0.37740 1.00000
vt 0.37914 1.00000
vt 0.36726 0.11907
vt 0.36551 0.11907
vt 0.36551 1.00000
vt 0.36726 1.00000
vt 0.39103 0.11907
vt 0.38089 0.11907
vt 0.38089 1.00000
vt 0.39103 1.00000
vt 0.42003 0.20262
vt 0.42003 1.00000
vt 0.42177 1.00000
vt 0.42177 0.20262
vt 0.43191 0.20262
vt 0.43191 1.00000
vt 0.43366 1.00000
vt 0.43366 0.20262
vt 0.43540 0.20262
vt 0.43540 1.00000
vt 0.44554 1.00000
vt 0.44554 0.20262
vt 0.51543 1.00000
vt 0.51718 1.00000
vt 0.51718 0.27056
vt 0.51543 0.27056
vt 0.52732 1.00000
vt 0.52906 1.00000
vt 0.52906 0.27056
vt 0.52732 0.27056
vt 0.53081 1.00000
vt 0.54095 1.00000
vt 0.54095 0.27056
vt 0.53081 0.27056
vt 0.02551 0.00174
vt 0.02551 1.00000
vt 0.02726 1.00000
vt 0.02726 0.00174
vt 0.01363 0.00174
vt 0.01363 1.00000
vt 0.01537 1.00000
vt 0.01537 0.00174
vt 0.03914 1.00000
vt 0.03914 0.00174
vt 0.02900 0.00174
vt 0.02900 1.00000
vt 0.01189 0.99826
vt 0.01189 0.00000
vt 0.00174 0.00000
vt 0.00174 0.99826
vt 0.04089 0.00174
vt 0.04089 1.00000
vt 0.04263 1.00000
vt 0.04263 0.00174
vt 0.05277 0.00174
vt 0.05277 1.00000
vt 0.05452 1.00000
vt 0.05452 0.00174
vt 0.06815 0.01494
vt 0.06815 1.00000
vt 0.06989 1.00000
vt 0.06989 0.01494
vt 0.08003 0.01494
vt 0.08003 1.00000
vt 0.08178 1.00000
vt 0.08178 0.01494
vt 0.06640 0.99826
vt 0.06640 0.01320
vt 0.05626 0.01320
vt 0.05626 0.99826
vt 0.14992 0.03046
vt 0.14992 1.00000
vt 0.15166 1.00000
vt 0.15166 0.03046
vt 0.16180 0.03046
vt 0.16180 1.00000
vt 0.16355 1.00000
vt 0.16355 0.03046
vt 0.09715 0.03046
vt 0.09715 1.00000
vt 0.10729 1.00000
vt 0.10729 0.03046
vt 0.10903 0.99826
vt 0.11078 0.99826
vt 0.11078 0.02872
vt 0.10903 0.02872
vt 0.12092 0.99826
vt 0.12266 0.99826
vt 0.12266 0.02872
vt 0.12092 0.02872
vt 0.13803 0.99826
vt 0.14818 0.99826
vt 0.14818 0.02872
vt 0.13803 0.02872
vt 0.35363 0.11907
vt 0.35188 0.11907
vt 0.35188 1.00000
vt 0.35363 1.00000
vt 0.36551 0.11907
vt 0.36377 0.11907
vt 0.36377 1.00000
vt 0.36551 1.00000
vt 0.36726 1.00000
vt 0.37740 1.00000
vt 0.37740 0.11907
vt 0.36726 0.11907
vt 0.34000 0.99826
vt 0.35014 0.99826
vt 0.35014 0.11732
vt 0.34000 0.11732
vt 0.37914 1.00000
vt 0.38089 1.00000
vt 0.38089 0.11907
vt 0.37914 0.11907
vt 0.39103 1.00000
vt 0.39277 1.00000
vt 0.39277 0.11907
vt 0.39103 0.11907
vt 0.40466 0.20262
vt 0.40466 1.00000
vt 0.40640 1.00000
vt 0.40640 0.20262
vt 0.39277 0.20262
vt 0.39277 1.00000
vt 0.39452 1.00000
vt 0.39452 0.20262
vt 0.43191 1.00000
vt 0.43191 0.20262
vt 0.42177 0.20262
vt 0.42177 1.00000
vt 0.40814 0.20262
vt 0.40815 1.00000
vt 0.41829 1.00000
vt 0.41829 0.20262
vt 0.44729 1.00000
vt 0.44729 0.20262
vt 0.44554 0.20262
vt 0.44554 1.00000
vt 0.43540 1.00000
vt 0.43540 0.20262
vt 0.43366 0.20262
vt 0.43366 1.00000
vt 0.48817 0.99826
vt 0.48817 0.21728
vt 0.48643 0.21728
vt 0.48643 0.99826
vt 0.47629 0.99826
vt 0.47629 0.21728
vt 0.47454 0.21728
vt 0.47454 0.99826
vt 0.46266 0.21901
vt 0.46266 1.00000
vt 0.47280 1.00000
vt 0.47280 0.21901
vt 0.50355 0.99826
vt 0.51369 0.99826
vt 0.51369 0.26882
vt 0.50355 0.26882
vt 0.54269 0.27056
vt 0.54095 0.27056
vt 0.54095 1.00000
vt 0.54269 1.00000
vt 0.53081 0.27056
vt 0.52906 1.00000
vt 0.53081 1.00000
vt 0.48992 0.27056
vt 0.48818 0.27056
vt 0.48818 1.00000
vt 0.48992 1.00000
vt 0.50180 0.27056
vt 0.50006 0.27056
vt 0.50006 1.00000
vt 0.50180 1.00000
vt 0.52732 0.27056
vt 0.51718 0.27056
vt 0.51718 1.00000
vt 0.52732 1.00000
vt 0.08352 0.02872
vt 0.08352 0.99826
vt 0.09366 0.99826
vt 0.09366 0.02872
vt 0.08352 0.99826
vt 0.08352 1.00000
vt 0.09366 1.00000
vt 0.09366 0.99826
vt 0.13455 1.00000
vt 0.13455 0.99826
vt 0.12440 0.99826
vt 0.12440 1.00000
vt 0.13455 0.02872
vt 0.13455 0.99826
vt 0.13629 0.99826
vt 0.13629 0.02872
vt 0.12266 0.02872
vt 0.12266 0.99826
vt 0.12440 0.99826
vt 0.12440 0.02872
vt 0.16520 0.08338
vt 0.16529 0.99769
vt 0.17415 0.99790
vt 0.17799 0.08341
vt 0.16529 0.99769
vt 0.16355 1.00000
vt 0.17579 0.99959
vt 0.17415 0.99790
vt 0.19242 0.99959
vt 0.19079 0.99790
vt 0.18193 0.99769
vt 0.18019 1.00000
vt 0.19463 0.08341
vt 0.19079 0.99790
vt 0.19242 0.99959
vt 0.19683 0.08342
vt 0.18019 0.08338
vt 0.18019 1.00000
vt 0.18193 0.99769
vt 0.18184 0.08338
vt 0.17579 0.99959
vt 0.18019 0.08342
vt 0.17799 0.08341
vt 0.17415 0.99790
vt 0.16529 0.99769
vt 0.16520 0.08338
vt 0.16355 0.08338
vt 0.16355 1.00000
vt 0.19079 0.99790
vt 0.19463 0.08341
vt 0.18184 0.08338
vt 0.18193 0.99769
vt 0.09540 0.99826
vt 0.09540 0.02872
vt 0.09366 0.02872
vt 0.09366 0.99826
vt 0.08352 0.99826
vt 0.08352 0.02872
vt 0.08178 0.02872
vt 0.08178 0.99826
vt 0.13455 0.99826
vt 0.13455 0.02872
vt 0.12440 0.02872
vt 0.12440 0.99826
vn 1.0000 0.0000 0.0000
vn 1.0000 0.0000 0.0000
vn 1.0000 0.0000 0.0000
vn 1.0000 0.0000 0.0000
vn -0.0000 -0.0000 1.0000
vn -0.0000 -0.0000 1.0000
vn -0.0000 -0.0000 1.0000
vn -0.0000 -0.0000 1.0000
vn 0.0000 0.0000 -1.0000
vn 0.0000 0.0000 -1.0000
vn 0.0000 0.0000 -1.0000
vn 0.0000 0.0000 -1.0000
vn 0.0000 -1.0000 -0.0000
vn 0.0000 -1.0000 -0.0000
vn 0.0000 -1.0000 -0.0000
vn 0.0000 -1.0000 -0.0000
vn 0.0000 1.0000 0.0000
vn 0.0000 1.0000 0.0000
vn 0.0000 1.0000 0.0000
vn 0.0000 1.0000 0.0000
vn 1.0000 0.0000 0.0000
vn 1.0000 0.0000 0.0000
vn 1.0000 0.0000 0.0000
vn 1.0000 0.0000 0.0000
vn -0.0000 -0.0000 1.0000
vn -0.0000 -0.0000 1.0000
vn -0.0000 -0.0000 1.0000
vn -0.0000 -0.0000 1.0000
vn 0.0000 0.0000 -1.0000
vn 0.0000 0.0000 -1.0000
vn 0.0000 0.0000 -1.0000
vn 0.0000 0.0000 -1.0000
vn 0.0000 -1.0000 -0.0000
vn 0.0000 -1.0000 -0.0000
vn 0.0000 -1.0000 -0.0000
vn 0.0000 -1.0000 -0.0000
vn 0.0000 1.0000 0.0000
vn 0.0000 1.0000 0.0000
vn 0.0000 1.0000 0.0000
vn 0.0000 1.0000 0.0000
vn 0.0000 0.0000 -1.0000
vn 0.0000 0.0000 -1.0000
vn 0.0000 0.0000 -1.0000
vn 0.0000 0.0000 -1.0000
vn 1.0000 0.0000 0.0000
vn 1.0000 0.0000 0.0000
vn 1.0000 0.0000 0.0000
vn 1.0000 0.0000 0.0000
vn -1.0000 0.0000 -0.0000
vn -1.0000 0.0000 -0.0000
vn -1.0000 0.0000 -0.0000
vn -1.0000 0.0000 -0.0000
vn 0.0000 -1.0000 -0.0000
vn 0.0000 -1.0000 -0.0000
vn 0.0000 -1.0000 -0.0000
vn 0.0000 -1.0000 -0.0000
vn 0.0000 1.0000 0.0000
vn 0.0000 1.0000 0.0000
vn 0.0000 1.0000 0.0000
vn 0.0000 1.0000 0.0000
vn 1.0000 0.0000 0.0000
vn 1.0000 0.0000 0.0000
vn 1.0000 0.0000 0.0000
vn 1.0000 0.0000 0.0000
vn -0.0000 -0.0000 1.0000
vn -0.0000 -0.0000 1.0000
vn -0.0000 -0.0000 1.0000
vn -0.0000 -0.0000 1.0000
vn 0.0000 0.0000 -1.0000
vn 0.0000 0.0000 -1.0000
vn 0.0000 0.0000 -1.0000
vn 0.0000 0.0000 -1.0000
vn 0.0000 -1.0000 -0.0000
vn 0.0000 -1.0000 -0.0000
vn 0.0000 -1.0000 -0.0000
vn 0.0000 -1.0000 -0.0000
vn 0.0000 1.0000 0.0000
vn 0.0000 1.0000 0.0000
vn 0.0000 1.0000 0.0000
vn 0.0000 1.0000 0.0000
vn 0.0000 0.0000 -1.0000
vn 0.0000 0.0000 -1.0000
vn 0.0000 0.0000 -1.0000
vn 0.0000 0.0000 -1.0000
vn 1.0000 0.0000 0.0000
vn 1.0000 0.0000 0.0000
vn 1.0000 0.0000 0.0000
vn 1.0000 0.0000 0.0000
vn -1.0000 0.0000 -0.0000
vn -1.0000 0.0000 -0.0000
vn -1.0000 0.0000 -0.0000
vn -1.0000 0.0000 -0.0000
vn 0.0000 -1.0000 -0.0000
vn 0.0000 -1.0000 -0.0000
vn 0.0000 -1.0000 -0.0000
vn 0.0000 -1.0000 -0.0000
vn 0.0000 1.0000 0.0000
vn 0.0000 1.0000 0.0000
vn 0.0000 1.0000 0.0000
vn 0.0000 1.0000 0.0000
vn -0.0000 -0.0000 1.0000
vn -0.0000 -0.0000 1.0000
vn -0.0000 -0.0000 1.0000
vn -0.0000 -0.0000 1.0000
vn 1.0000 0.0000 0.0000
vn 1.0000 0.0000 0.0000
vn 1.0000 0.0000 0.0000
vn 1.0000 0.0000 0.0000
vn -1.0000 0.0000 -0.0000
vn -1.0000 0.0000 -0.0000
vn -1.0000 0.0000 -0.0000
vn -1.0000 0.0000 -0.0000
vn 0.0000 -1.0000 -0.0000
vn 0.0000 -1.0000 -0.0000
vn 0.0000 -1.0000 -0.0000
vn 0.0000 -1.0000 -0.0000
vn 0.0000 1.0000 0.0000
vn 0.0000 1.0000 0.0000
vn 0.0000 1.0000 0.0000
vn 0.0000 1.0000 0.0000
vn -1.0000 0.0000 -0.0000
vn -1.0000 0.0000 -0.0000
vn -1.0000 0.0000 -0.0000
vn -1.0000 0.0000 -0.0000
vn -0.0000 -0.0000 1.0000
vn -0.0000 -0.0000 1.0000
vn -0.0000 -0.0000 1.0000
vn -0.0000 -0.0000 1.0000
vn 0.0000 0.0000 -1.0000
vn 0.0000 0.0000 -1.0000
vn 0.0000 0.0000 -1.0000
vn 0.0000 0.0000 -1.0000
vn 0.0000 -1.0000 -0.0000
vn 0.0000 -1.0000 -0.0000
vn 0.0000 -1.0000 -0.0000
vn 0.0000 -1.0000 -0.0000
vn 0.0000 1.0000 0.0000
vn 0.0000 1.0000 0.0000
vn 0.0000 1.0000 0.0000
vn 0.0000 1.0000 0.0000
vn -1.0000 0.0000 -0.0000
vn -1.0000 0.0000 -0.0000
vn -1.0000 0.0000 -0.0000
vn -1.0000 0.0000 -0.0000
vn -0.0000 -0.0000 1.0000
vn -0.0000 -0.0000 1.0000
vn -0.0000 -0.0000 1.0000
vn -0.0000 -0.0000 1.0000
vn 0.0000 0.0000 -1.0000
vn 0.0000 0.0000 -1.0000
vn 0.0000 0.0000 -1.0000
vn 0.0000 0.0000 -1.0000
vn 0.0000 -1.0000 -0.0000
vn 0.0000 -1.0000 -0.0000
vn 0.0000 -1.0000 -0.0000
vn 0.0000 -1.0000 -0.0000
vn 0.0000 1.0000 0.0000
vn 0.0000 1.0000 0.0000
vn 0.0000 1.0000 0.0000
vn 0.0000 1.0000 0.0000
vn -0.0000 -0.0000 1.0000
vn -0.0000 -0.0000 1.0000
vn -0.0000 -0.0000 1.0000
vn -0.0000 -0.0000 1.0000
vn 1.0000 0.0000 0.0000
vn 1.0000 0.0000 0.0000
vn 1.0000 0.0000 0.0000
vn 1.0000 0.0000 0.0000
vn -1.0000 0.0000 -0.0000
vn -1.0000 0.0000 -0.0000
vn -1.0000 0.0000 -0.0000
vn -1.0000 0.0000 -0.0000
vn 0.0000 -1.0000 -0.0000
vn 0.0000 -1.0000 -0.0000
vn 0.0000 -1.0000 -0.0000
vn 0.0000 -1.0000 -0.0000
vn 0.0000 1.0000 0.0000
vn 0.0000 1.0000 0.0000
vn 0.0000 1.0000 0.0000
vn 0.0000 1.0000 0.0000
vn 1.0000 0.0000 0.0000
vn 1.0000 0.0000 0.0000
vn 1.0000 0.0000 0.0000
vn 1.0000 0.0000 0.0000
vn 0.0000 0.0000 -1.0000
vn 0.0000 0.0000 -1.0000
vn 0.0000 0.0000 -1.0000
vn 0.0000 0.0000 -1.0000
vn -0.0000 -0.0000 1.0000
vn -0.0000 -0.0000 1.0000
vn -0.0000 -0.0000 1.0000
vn -0.0000 -0.0000 1.0000
vn 0.0000 -1.0000 -0.0000
vn 0.0000 -1.0000 -0.0000
vn 0.0000 -1.0000 -0.0000
vn 0.0000 -1.0000 -0.0000
vn 0.0000 1.0000 0.0000
vn 0.0000 1.0000 0.0000
vn 0.0000 1.0000 0.0000
vn 0.0000 1.0000 0.0000
vn -0.0000 -0.0000 1.0000
vn -0.0000 -0.0000 1.0000
vn -0.0000 -0.0000 1.0000
vn -0.0000 -0.0000 1.0000
vn 1.0000 0.0000 0.0000
vn 1.0000 0.0000 0.0000
vn 1.0000 0.0000 0.0000
vn 1.0000 0.0000 0.0000
vn -1.0000 0.0000 -0.0000
vn -1.0000 0.0000 -0.0000
vn -1.0000 0.0000 -0.0000
vn -1.0000 0.0000 -0.0000
vn 0.0000 -1.0000 -0.0000
vn 0.0000 -1.0000 -0.0000
vn 0.0000 -1.0000 -0.0000
vn 0.0000 -1.0000 -0.0000
vn 0.0000 1.0000 0.0000
vn 0.0000 1.0000 0.0000
vn 0.0000 1.0000 0.0000
vn 0.0000 1.0000 0.0000
vn 0.0000 1.0000 0.0000
vn 0.0000 1.0000 0.0000
vn 0.0000 1.0000 0.0000
vn 0.0000 1.0000 0.0000
vn -0.0000 -0.0000 1.0000
vn -0.0000 -0.0000 1.0000
vn -0.0000 -0.0000 1.0000
vn -0.0000 -0.0000 1.0000
vn 0.0000 0.0000 -1.0000
vn 0.0000 0.0000 -1.0000
vn 0.0000 0.0000 -1.0000
vn 0.0000 0.0000 -1.0000
vn -1.0000 0.0000 -0.0000
vn -1.0000 0.0000 -0.0000
vn -1.0000 0.0000 -0.0000
vn -1.0000 0.0000 -0.0000
vn 1.0000 0.0000 0.0000
vn 1.0000 0.0000 0.0000
vn 1.0000 0.0000 0.0000
vn 1.0000 0.0000 0.0000
vn 0.0000 -1.0000 -0.0000
vn 0.0000 -1.0000 -0.0000
vn 0.0000 -1.0000 -0.0000
vn 0.0000 -1.0000 -0.0000
vn 0.0000 1.0000 0.0000
vn 0.0000 1.0000 0.0000
vn 0.0000 1.0000 0.0000
vn 0.0000 1.0000 0.0000
vn -0.0000 -0.0000 1.0000
vn -0.0000 -0.0000 1.0000
vn -0.0000 -0.0000 1.0000
vn -0.0000 -0.0000 1.0000
vn 0.0000 0.0000 -1.0000
vn 0.0000 0.0000 -1.0000
vn 0.0000 0.0000 -1.0000
vn 0.0000 0.0000 -1.0000
vn -1.0000 0.0000 -0.0000
vn -1.0000 0.0000 -0.0000
vn -1.0000 0.0000 -0.0000
vn -1.0000 0.0000 -0.0000
vn 1.0000 0.0000 0.0000
vn 1.0000 0.0000 0.0000
vn 1.0000 0.0000 0.0000
vn 1.0000 0.0000 0.0000
vn 0.0000 -1.0000 -0.0000
vn 0.0000 -1.0000 -0.0000
vn 0.0000 -1.0000 -0.0000
vn 0.0000 -1.0000 -0.0000
vn -1.0000 0.0000 -0.0000
vn -1.0000 0.0000 -0.0000
vn -1.0000 0.0000 -0.0000
vn -1.0000 0.0000 -0.0000
vn -0.0000 -0.0000 1.0000
vn -0.0000 -0.0000 1.0000
vn -0.0000 -0.0000 1.0000
vn -0.0000 -0.0000 1.0000
vn 0.0000 0.0000 -1.0000
vn 0.0000 0.0000 -1.0000
vn 0.0000 0.0000 -1.0000
vn 0.0000 0.0000 -1.0000
vn 0.0000 -1.0000 -0.0000
vn 0.0000 -1.0000 -0.0000
vn 0.0000 -1.0000 -0.0000
vn 0.0000 -1.0000 -0.0000
vn 0.0000 1.0000 0.0000
vn 0.0000 1.0000 0.0000
vn 0.0000 1.0000 0.0000
vn 0.0000 1.0000 0.0000
vn 0.0000 1.0000 0.0000
vn 0.0000 1.0000 0.0000
vn 0.0000 1.0000 0.0000
vn 0.0000 1.0000 0.0000
vn 0.0000 -1.0000 -0.0000
vn 0.0000 -1.0000 -0.0000
vn 0.0000 -1.0000 -0.0000
vn 0.0000 -1.0000 -0.0000
vn -1.0000 0.0000 -0.0000
vn -1.0000 0.0000 -0.0000
vn -1.0000 0.0000 -0.0000
vn -1.0000 0.0000 -0.0000
vn 0.0000 1.0000 0.0000
vn 0.0000 1.0000 0.0000
vn 0.0000 1.0000 0.0000
vn 0.0000 1.0000 0.0000
vn 0.0000 -1.0000 -0.0000
vn 0.0000 -1.0000 -0.0000
vn 0.0000 -1.0000 -0.0000
vn 0.0000 -1.0000 -0.0000
vn 0.0000 0.0000 -1.0000
vn 0.0000 0.0000 -1.0000
vn 0.0000 0.0000 -1.0000
vn 0.0000 0.0000 -1.0000
vn 0.0000 1.0000 0.0000
vn 0.0000 1.0000 0.0000
vn 0.0000 1.0000 0.0000
vn 0.0000 1.0000 0.0000
vn 0.0000 -1.0000 -0.0000
vn 0.0000 -1.0000 -0.0000
vn 0.0000 -1.0000 -0.0000
vn 0.0000 -1.0000 -0.0000
vn -1.0000 0.0000 -0.0000
vn -1.0000 0.0000 -0.0000
vn -1.0000 0.0000 -0.0000
vn -1.0000 0.0000 -0.0000
vn 0.0000 1.0000 0.0000
vn 0.0000 1.0000 0.0000
vn 0.0000 1.0000 0.0000
vn 0.0000 1.0000 0.0000
vn 0.0000 -1.0000 -0.0000
vn 0.0000 -1.0000 -0.0000
vn 0.0000 -1.0000 -0.0000
vn 0.0000 -1.0000 -0.0000
vn 1.0000 0.0000 0.0000
vn 1.0000 0.0000 0.0000
vn 1.0000 0.0000 0.0000
vn 1.0000 0.0000 0.0000
vn 0.0000 -1.0000 -0.0000
vn 0.0000 -1.0000 -0.0000
vn 0.0000 -1.0000 -0.0000
vn 0.0000 -1.0000 -0.0000
vn 0.0000 1.0000 0.0000
vn 0.0000 1.0000 0.0000
vn 0.0000 1.0000 0.0000
vn 0.0000 1.0000 0.0000
vn -1.0000 0.0000 -0.0000
vn -1.0000 0.0000 -0.0000
vn -1.0000 0.0000 -0.0000
vn -1.0000 0.0000 -0.0000
vn -1.0000 0.0000 -0.0000
vn -1.0000 0.0000 -0.0000
vn -1.0000 0.0000 -0.0000
vn -1.0000 0.0000 -0.0000
vn 0.0000 1.0000 0.0000
vn 0.0000 1.0000 0.0000
vn 0.0000 1.0000 0.0000
vn 0.0000 1.0000 0.0000
vn 0.0000 -1.0000 -0.0000
vn 0.0000 -1.0000 -0.0000
vn 0.0000 -1.0000 -0.0000
vn 0.0000 -1.0000 -0.0000
vn 0.0000 1.0000 0.0000
vn 0.0000 1.0000 0.0000
vn 0.0000 1.0000 0.0000
vn 0.0000 1.0000 0.0000
vn 0.0000 -1.0000 -0.0000
vn 0.0000 -1.0000 -0.0000
vn 0.0000 -1.0000 -0.0000
vn 0.0000 -1.0000 -0.0000
vn -0.0000 -0.0000 1.0000
vn -0.0000 -0.0000 1.0000
vn -0.0000 -0.0000 1.0000
vn -0.0000 -0.0000 1.0000
vn 0.0000 1.0000 0.0000
vn 0.0000 1.0000 0.0000
vn 0.0000 1.0000 0.0000
vn 0.0000 1.0000 0.0000
vn 0.0000 -1.0000 -0.0000
vn 0.0000 -1.0000 -0.0000
vn 0.0000 -1.0000 -0.0000
vn 0.0000 -1.0000 -0.0000
vn -1.0000 0.0000 -0.0000
vn -1.0000 0.0000 -0.0000
vn -1.0000 0.0000 -0.0000
vn -1.0000 0.0000 -0.0000
vn 0.0000 1.0000 0.0000
vn 0.0000 1.0000 0.0000
vn 0.0000 1.0000 0.0000
vn 0.0000 1.0000 0.0000
vn 0.0000 -1.0000 -0.0000
vn 0.0000 -1.0000 -0.0000
vn 0.0000 -1.0000 -0.0000
vn 0.0000 -1.0000 -0.0000
vn 1.0000 0.0000 0.0000
vn 1.0000 0.0000 0.0000
vn 1.0000 0.0000 0.0000
vn 1.0000 0.0000 0.0000
vn 0.0000 -1.0000 -0.0000
vn 0.0000 -1.0000 -0.0000
vn 0.0000 -1.0000 -0.0000
vn 0.0000 -1.0000 -0.0000
vn 0.0000 1.0000 0.0000
vn 0.0000 1.0000 0.0000
vn 0.0000 1.0000 0.0000
vn 0.0000 1.0000 0.0000
vn 0.0000 0.0000 -1.0000
vn 0.0000 0.0000 -1.0000
vn 0.0000 0.0000 -1.0000
vn 0.0000 0.0000 -1.0000
vn 0.0000 0.0000 -1.0000
vn 0.0000 0.0000 -1.0000
vn 0.0000 0.0000 -1.0000
vn 0.0000 0.0000 -1.0000
vn 0.0000 1.0000 0.0000
vn 0.0000 1.0000 0.0000
vn 0.0000 1.0000 0.0000
vn 0.0000 1.0000 0.0000
vn 0.0000 -1.0000 -0.0000
vn 0.0000 -1.0000 -0.0000
vn 0.0000 -1.0000 -0.0000
vn 0.0000 -1.0000 -0.0000
vn 0.0000 -1.0000 -0.0000
vn 0.0000 -1.0000 -0.0000
vn 0.0000 -1.0000 -0.0000
vn 0.0000 -1.0000 -0.0000
vn 0.0000 1.0000 0.0000
vn 0.0000 1.0000 0.0000
vn 0.0000 1.0000 0.0000
vn 0.0000 1.0000 0.0000
vn -1.0000 0.0000 -0.0000
vn -1.0000 0.0000 -0.0000
vn -1.0000 0.0000 -0.0000
vn -1.0000 0.0000 -0.0000
vn -1.0000 0.0000 -0.0000
vn -1.0000 0.0000 -0.0000
vn -1.0000 0.0000 -0.0000
vn -1.0000 0.0000 -0.0000
vn 0.0000 1.0000 0.0000
vn 0.0000 1.0000 0.0000
vn 0.0000 1.0000 0.0000
vn 0.0000 1.0000 0.0000
vn 0.0000 -1.0000 -0.0000
vn 0.0000 -1.0000 -0.0000
vn 0.0000 -1.0000 -0.0000
vn 0.0000 -1.0000 -0.0000
vn 0.0000 1.0000 0.0000
vn 0.0000 1.0000 0.0000
vn 0.0000 1.0000 0.0000
vn 0.0000 1.0000 0.0000
vn 0.0000 -1.0000 -0.0000
vn 0.0000 -1.0000 -0.0000
vn 0.0000 -1.0000 -0.0000
vn 0.0000 -1.0000 -0.0000
vn 1.0000 0.0000 0.0000
vn 1.0000 0.0000 0.0000
vn 1.0000 0.0000 0.0000
vn 1.0000 0.0000 0.0000
vn 1.0000 0.0000 0.0000
vn 1.0000 0.0000 0.0000
vn 1.0000 0.0000 0.0000
vn 1.0000 0.0000 0.0000
vn 0.0000 1.0000 0.0000
vn 0.0000 1.0000 0.0000
vn 0.0000 1.0000 0.0000
vn 0.0000 1.0000 0.0000
vn 0.0000 -1.0000 -0.0000
vn 0.0000 -1.0000 -0.0000
vn 0.0000 -1.0000 -0.0000
vn 0.0000 -1.0000 -0.0000
vn 0.0000 -1.0000 -0.0000
vn 0.0000 -1.0000 -0.0000
vn 0.0000 -1.0000 -0.0000
vn 0.0000 1.0000 0.0000
vn 0.0000 1.0000 0.0000
vn 0.0000 1.0000 0.0000
vn 0.0000 1.0000 0.0000
vn 1.0000 0.0000 0.0000
vn 1.0000 0.0000 0.0000
vn 1.0000 0.0000 0.0000
vn 1.0000 0.0000 0.0000
vn 0.0000 0.0000 -1.0000
vn 0.0000 0.0000 -1.0000
vn 0.0000 0.0000 -1.0000
vn 0.0000 0.0000 -1.0000
vn -1.0000 0.0000 -0.0000
vn -1.0000 0.0000 -0.0000
vn -1.0000 0.0000 -0.0000
vn -1.0000 0.0000 -0.0000
vn 1.0000 0.0000 0.0000
vn 1.0000 0.0000 0.0000
vn 1.0000 0.0000 0.0000
vn 1.0000 0.0000 0.0000
vn 0.0000 -1.0000 -0.0000
vn 0.0000 -1.0000 -0.0000
vn 0.0000 -1.0000 -0.0000
vn 0.0000 -1.0000 -0.0000
vn 0.0000 1.0000 0.0000
vn 0.0000 1.0000 0.0000
vn 0.0000 1.0000 0.0000
vn 0.0000 1.0000 0.0000
vn 0.0000 0.0000 -1.0000
vn 0.0000 0.0000 -1.0000
vn 0.0000 0.0000 -1.0000
vn 0.0000 0.0000 -1.0000
vn -1.0000 0.0000 -0.0000
vn -1.0000 0.0000 -0.0000
vn -1.0000 0.0000 -0.0000
vn -1.0000 0.0000 -0.0000
vn 1.0000 0.0000 0.0000
vn 1.0000 0.0000 0.0000
vn 1.0000 0.0000 0.0000
vn 1.0000 0.0000 0.0000
vn 0.0000 -1.0000 -0.0000
vn 0.0000 -1.0000 -0.0000
vn 0.0000 -1.0000 -0.0000
vn 0.0000 -1.0000 -0.0000
vn 0.0000 1.0000 0.0000
vn 0.0000 1.0000 0.0000
vn 0.0000 1.0000 0.0000
vn 0.0000 1.0000 0.0000
vn 0.0000 1.0000 0.0000
vn 0.0000 1.0000 0.0000
vn 0.0000 1.0000 0.0000
vn 0.0000 1.0000 0.0000
vn 0.0000 -1.0000 -0.0000
vn 0.0000 -1.0000 -0.0000
vn 0.0000 -1.0000 -0.0000
vn 0.0000 -1.0000 -0.0000
vn 0.0000 0.0000 -1.0000
vn 0.0000 0.0000 -1.0000
vn 0.0000 0.0000 -1.0000
vn 0.0000 0.0000 -1.0000
vn 0.0000 1.0000 0.0000
vn 0.0000 1.0000 0.0000
vn 0.0000 1.0000 0.0000
vn 0.0000 1.0000 0.0000
vn 0.0000 -1.0000 -0.0000
vn 0.0000 -1.0000 -0.0000
vn 0.0000 -1.0000 -0.0000
vn 0.0000 -1.0000 -0.0000
vn 0.0000 0.0000 -1.0000
vn 0.0000 0.0000 -1.0000
vn 0.0000 0.0000 -1.0000
vn 0.0000 0.0000 -1.0000
f 1/1/1 2/2/2 3/3/3
f 1/1/1 3/3/3 4/4/4
f 5/5/5 6/6/6 7/7/7
f 5/5/5 7/7/7 8/8/8
f 9/9/9 10/10/10 11/11/11
f 9/9/9 11/11/11 12/12/12
f 13/13/13 14/14/14 15/15/15
f 13/13/13 15/15/15 16/16/16
f 17/17/17 18/18/18 19/19/19
f 17/17/17 19/19/19 20/20/20
f 21/21/21 22/22/22 23/23/23
f 21/21/21 23/23/23 24/24/24
f 25/25/25 26/26/26 27/27/27
f 25/25/25 27/27/27 28/28/28
f 29/29/29 30/30/30 31/31/31
f 29/29/29 31/31/31 32/32/32
f 33/33/33 34/34/34 35/35/35
f 33/33/33 35/35/35 36/36/36
f 37/37/37 38/38/38 39/39/39
f 37/37/37 39/39/39 40/40/40
f 41/41/41 42/42/42 43/43/43
f 41/41/41 43/43/43 44/44/44
f 45/45/45 46/46/46 47/47/47
f 45/45/45 47/47/47 48/48/48
f 49/49/49 50/50/50 51/51/51
f 49/49/49 51/51/51 52/52/52
f 53/53/53 54/54/54 55/55/55
f 53/53/53 55/55/55 56/56/56
f 57/57/57 58/58/58 59/59/59
f 57/57/57 59/59/59 60/60/60
f 61/61/61 62/62/62 63/63/63
f 61/61/61 63/63/63 64/64/64
f 65/65/65 66/66/66 67/67/67
f 65/65/65 67/67/67 68/68/68
f 69/69/69 70/70/70 71/71/71
f 69/69/69 71/71/71 72/72/72
f 73/73/73 74/74/74 75/75/75
f 73/73/73 75/75/75 76/76/76
f 77/77/77 78/78/78 79/79/79
f 77/77/77 79/79/79 80/80/80
f 81/81/81 82/82/82 83/83/83
f 81/81/81 83/83/83 84/84/84
f 85/85/85 86/86/86 87/87/87
f 85/85/85 87/87/87 88/88/88
f 89/89/89 90/90/90 91/91/91
f 89/89/89 91/91/91 92/92/92
f 93/93/93 94/94/94 95/95/95
f 93/93/93 95/95/95 96/96/96
f 97/97/97 98/98/98 99/99/99
f 97/97/97 99/99/99 100/100/100
f 101/101/101 102/102/102 103/103/103
f 101/101/101 103/103/103 104/104/104
f 105/105/105 106/106/106 107/107/107
f 105/105/105 107/107/107 108/108/108
f 109/109/109 110/110/110 111/111/111
f 109/109/109 111/111/111 112/112/112
f 113/113/113 114/114/114 115/115/115
f 113/113/113 115/115/115 116/116/116
f 117/117/117 118/118/118 119/119/119
f 117/117/117 119/119/119 120/120/120
f 121/121/121 122/122/122 123/123/123
f 121/121/121 123/123/123 124/124/124
f 125/125/125 126/126/126 127/127/127
f 125/125/125 127/127/127 128/128/128
f 129/129/129 130/130/130 131/131/131
f 129/129/129 131/131/131 132/132/132
f 133/133/133 134/134/134 135/135/135
f 133/133/133 135/135/135 136/136/136
f 137/137/137 138/138/138 139/139/139
f 137/137/137 139/139/139 140/140/140
f 141/141/141 142/142/142 143/143/143
f 141/141/141 143/143/143 144/144/144
f 145/145/145 146/146/146 147/147/147
f 145/145/145 147/147/147 148/148/148
f 149/149/149 150/150/150 151/151/151
f 149/149/149 151/151/151 152/152/152
f 153/153/153 154/154/154 155/155/155
f 153/153/153 155/155/155 156/156/156
f 157/157/157 158/158/158 159/159/159
f 157/157/157 159/159/159 160/160/160
f 161/161/161 162/162/162 163/163/163
f 161/161/161 163/163/163 164/164/164
f 165/165/165 166/166/166 167/167/167
f 165/165/165 167/167/167 168/168/168
f 169/169/169 170/170/170 171/171/171
f 169/169/169 171/171/171 172/172/172
f 173/173/173 174/174/174 175/175/175
f 173/173/173 175/175/175 176/176/176
f 177/177/177 178/178/178 179/179/179
f 177/177/177 179/179/179 180/180/180
f 181/181/181 182/182/182 183/183/183
f 181/181/181 183/183/183 184/184/184
f 185/185/185 186/186/186 187/187/187
f 185/185/185 187/187/187 188/188/188
f 189/189/189 190/190/190 191/191/191
f 189/189/189 191/191/191 192/192/192
f 193/193/193 194/194/194 195/195/195
f 193/193/193 195/195/195 196/196/196
f 197/197/197 198/198/198 199/199/199
f 197/197/197 199/199/199 200/200/200
f 201/201/201 202/202/202 203/203/203
f 201/201/201 203/203/203 204/204/204
f 205/205/205 206/206/206 207/207/207
f 205/205/205 207/207/207 208/208/208
f 209/209/209 210/210/210 211/211/211
f 209/209/209 211/211/211 212/212/212
f 213/213/213 214/214/214 215/215/215
f 213/213/213 215/215/215 216/216/216
f 217/217/217 218/218/218 219/219/219
f 217/217/217 219/219/219 220/220/220
f 221/221/221 222/222/222 223/223/223
f 221/221/221 223/223/223 224/224/224
f 225/225/225 226/226/226 227/227/227
f 225/225/225 227/227/227 228/228/228
f 229/229/229 230/230/230 231/231/231
f 229/229/229 231/231/231 232/232/232
f 233/233/233 234/234/234 235/235/235
f 233/233/233 235/235/235 236/236/236
f 237/237/237 238/238/238 239/239/239
f 237/237/237 239/239/239 240/240/240
f 241/241/241 242/242/242 243/243/243
f 241/241/241 243/243/243 244/244/244
f 245/245/245 246/246/246 247/247/247
f 245/245/245 247/247/247 248/248/248
f 249/249/249 250/250/250 251/251/251
f 249/249/249 251/251/251 252/252/252
f 253/253/253 254/254/254 255/255/255
f 253/253/253 255/255/255 256/256/256
f 257/257/257 258/258/258 259/259/259
f 257/257/257 259/259/259 260/260/260
f 261/261/261 262/262/262 263/263/263
f 261/261/261 263/263/263 264/264/264
f 265/265/265 266/266/266 267/267/267
f 265/265/265 267/267/267 268/268/268
f 269/269/269 270/270/270 271/271/271
f 269/269/269 271/271/271 272/272/272
f 273/273/273 274/274/274 275/275/275
f 273/273/273 275/275/275 276/276/276
f 277/277/277 278/278/278 279/279/279
f 277/277/277 279/279/279 280/280/280
f 281/281/281 282/282/282 283/283/283
f 281/281/281 283/283/283 284/284/284
f 285/285/285 286/286/286 287/287/287
f 285/285/285 287/287/287 288/288/288
f 289/289/289 290/290/290 291/291/291
f 289/289/289 291/291/291 292/292/292
f 293/293/293 294/294/294 295/295/295
f 293/293/293 295/295/295 296/296/296
f 297/297/297 298/298/298 299/299/299
f 297/297/297 299/299/299 300/300/300
f 301/301/301 302/302/302 303/303/303
f 301/301/301 303/303/303 304/304/304
f 305/305/305 306/306/306 307/307/307
f 305/305/305 307/307/307 308/308/308
f 309/309/309 310/310/310 311/311/311
f 309/309/309 311/311/311 312/312/312
f 313/313/313 314/314/314 315/315/315
f 313/313/313 315/315/315 316/316/316
f 317/317/317 318/318/318 319/319/319
f 317/317/317 319/319/319 320/320/320
f 321/321/321 322/322/322 323/323/323
f 321/321/321 323/323/323 324/324/324
f 325/325/325 326/326/326 327/327/327
f 325/325/325 327/327/327 328/328/328
f 329/329/329 330/330/330 331/331/331
f 329/329/329 331/331/331 332/332/332
f 333/333/333 334/334/334 335/335/335
f 333/333/333 335/335/335 336/336/336
f 337/337/337 338/338/338 339/339/339
f 337/337/337 339/339/339 340/340/340
f 341/341/341 342/342/342 343/343/343
f 341/341/341 343/343/343 344/344/344
f 345/345/345 346/346/346 347/347/347
f 345/345/345 347/347/347 348/348/348
f 349/349/349 350/350/350 351/351/351
f 349/349/349 351/351/351 352/352/352
f 353/353/353 354/354/354 355/355/355
f 353/353/353 355/355/355 356/356/356
f 357/357/357 358/358/358 359/359/359
f 357/357/357 359/359/359 360/360/360
f 361/361/361 362/362/362 363/363/363
f 361/361/361 363/363/363 364/364/364
f 365/365/365 366/366/366 367/367/367
f 365/365/365 367/367/367 368/368/368
f 369/369/369 370/370/370 371/371/371
f 369/369/369 371/371/371 372/372/372
f 373/373/373 374/374/374 375/375/375
f 373/373/373 375/375/375 376/376/376
f 377/377/377 378/378/378 379/379/379
f 377/377/377 379/379/379 380/380/380
f 381/381/381 382/382/382 383/383/383
f 381/381/381 383/383/383 384/384/384
f 385/385/385 386/386/386 387/387/387
f 385/385/385 387/387/387 388/388/388
f 389/389/389 390/390/390 391/391/391
f 389/389/389 391/391/391 392/392/392
f 393/393/393 394/394/394 395/395/395
f 393/393/393 395/395/395 396/396/396
f 397/397/397 398/398/398 399/399/399
f 397/397/397 399/399/399 400/400/400
f 401/401/401 402/402/402 403/403/403
f 401/401/401 403/403/403 404/404/404
f 405/405/405 406/406/406 407/407/407
f 405/405/405 407/407/407 408/408/408
f 409/409/409 410/410/410 411/411/411
f 409/409/409 411/411/411 412/412/412
f 413/413/413 414/414/414 415/415/415
f 413/413/413 415/415/415 416/416/416
f 417/417/417 418/418/418 419/419/419
f 417/417/417 419/419/419 420/420/420
f 421/421/421 422/422/422 423/423/423
f 421/421/421 423/423/423 424/424/424
f 425/425/425 426/426/426 427/427/427
f 425/425/425 427/427/427 428/428/428
f 429/429/429 430/430/430 431/431/431
f 429/429/429 431/431/431 432/432/432
f 433/433/433 434/434/434 435/435/435
f 433/433/433 435/435/435 436/436/436
f 437/437/437 438/438/438 439/439/439
f 437/437/437 439/439/439 440/440/440
f 441/441/441 442/442/442 443/443/443
f 441/441/441 443/443/443 444/444/444
f 445/445/445 446/446/446 447/447/447
f 445/445/445 447/447/447 448/448/448
f 449/449/449 450/450/450 451/451/451
f 449/449/449 451/451/451 452/452/452
f 453/453/453 454/454/454 455/455/455
f 453/453/453 455/455/455 456/456/456
f 457/457/457 458/458/458 459/459/459
f 457/457/457 459/459/459 460/460/460
f 461/461/461 462/462/462 463/463/463
f 461/461/461 463/463/463 464/464/464
f 465/465/465 331/331/331 466/466/466
f 465/465/465 466/466/466 467/467/467
f 468/468/468 469/469/469 470/470/470
f 468/468/468 470/470/470 471/471/471
f 472/472/472 473/473/473 474/474/474
f 472/472/472 474/474/474 475/475/475
f 476/476/476 477/477/477 478/478/478
f 476/476/476 478/478/478 479/479/479
f 480/480/480 481/481/481 482/482/482
f 480/480/480 482/482/482 483/483/483
f 484/484/484 485/485/485 486/486/486
f 484/484/484 486/486/486 487/487/487
f 488/488/488 489/489/489 490/490/490
f 488/488/488 490/490/490 491/491/491
f 492/492/492 493/493/493 494/494/494
f 492/492/492 494/494/494 495/495/495
f 496/496/496 497/497/497 498/498/498
f 496/496/496 498/498/498 499/499/499
f 500/500/500 501/501/501 502/502/502
f 500/500/500 502/502/502 503/503/503
f 504/504/504 505/505/505 506/506/506
f 504/504/504 506/506/506 507/507/507
f 508/508/508 509/509/509 510/510/510
f 508/508/508 510/510/510 511/511/511
f 512/512/512 513/513/513 514/514/514
f 512/512/512 514/514/514 515/515/515
f 516/516/516 517/517/517 518/518/518
f 516/516/516 518/518/518 519/519/519
f 520/520/520 521/521/521 522/522/522
f 520/520/520 522/522/522 523/523/523
f 524/524/524 525/525/525 526/526/526
f 524/524/524 526/526/526 527/527/527
f 528/528/528 529/529/529 530/530/530
f 528/528/528 530/530/530 531/531/531
f 532/532/532 533/533/533 534/534/534
f 532/532/532 534/534/534 535/535/535
f 536/536/536 537/537/537 538/538/538
f 536/536/536 538/538/538 539/539/539
f 540/540/540 541/541/541 542/542/542
f 540/540/540 542/542/542 543/543/543
