mtllib Prop_ExitSign_Ref.mtl
o Object_6
g Object_6
usemtl Exit_Sign
v -4955.6515 223.0370 -437.7705
v -4955.6515 223.1260 -437.8544
v -4955.5622 223.1260 -437.7705
v -4955.6515 238.6245 -437.7705
v -4955.5622 238.5355 -437.7705
v -4955.6515 238.5355 -437.8544
v -4977.5208 223.0370 -437.7705
v -4977.6104 223.1260 -437.7705
v -4977.5208 223.1260 -437.8544
v -4977.5208 238.6245 -437.7705
v -4977.5208 238.5355 -437.8544
v -4977.6104 238.5355 -437.7705
v -3674.6616 223.0370 1288.8948
v -3674.7456 223.1260 1288.8948
v -3674.6616 223.1260 1288.8063
v -3674.6616 238.6245 1288.8948
v -3674.6616 238.5355 1288.8063
v -3674.7456 238.5355 1288.8948
v -3674.6616 223.0370 1310.5570
v -3674.6616 223.1260 1310.6455
v -3674.7456 223.1260 1310.5570
v -3674.6616 238.6245 1310.5570
v -3674.7456 238.5355 1310.5570
v -3674.6616 238.5355 1310.6455
v -4957.0938 224.4370 -432.7533
v -4976.0784 224.4370 -432.7533
v -4976.3821 224.1345 -432.7533
v -4956.7902 224.1345 -432.7533
v -4977.5208 238.6245 -437.7705
v -4977.5208 238.6245 -436.8490
v -4955.6515 238.6245 -436.8490
v -4955.6515 238.6245 -437.7705
v -4955.5622 238.5355 -436.8490
v -4955.5622 223.1260 -436.8490
v -4977.6104 223.1260 -436.8490
v -4977.6104 238.5355 -436.8490
v -4956.6181 223.9758 -432.8055
v -4976.5545 223.9758 -432.8055
v -4977.4269 223.1067 -433.4561
v -4955.7457 223.1067 -433.4561
v -4977.5208 238.6245 -433.7549
v -4977.5208 238.6245 -433.5922
v -4955.6515 238.6245 -433.5922
v -4955.6515 238.6245 -433.7549
v -4955.5622 223.1260 -433.7549
v -4955.5622 238.5355 -433.7549
v -4955.5622 238.5355 -433.5922
v -4955.5622 223.1260 -433.5922
v -4977.6104 223.1260 -433.5922
v -4977.6104 238.5355 -433.5922
v -4977.6104 238.5355 -433.7549
v -4977.6104 223.1260 -433.7549
v -4976.6678 224.0888 -432.8055
v -4976.6678 237.5726 -432.8055
v -4977.5402 238.4417 -433.4561
v -4977.5402 223.2198 -433.4561
v -4976.5545 237.6857 -432.8055
v -4956.6181 237.6857 -432.8055
v -4955.7457 238.5548 -433.4561
v -4977.4269 238.5548 -433.4561
v -4956.5044 237.5726 -432.8055
v -4956.5044 224.0888 -432.8055
v -4955.6320 223.2198 -433.4561
v -4955.6320 238.4417 -433.4561
v -4956.9675 237.0985 -432.7533
v -4956.9675 224.5630 -432.7533
v -4956.6639 224.2604 -432.7533
v -4956.6639 237.4011 -432.7533
v -4976.0784 237.2244 -432.7533
v -4957.0938 237.2244 -432.7533
v -4956.7902 237.5270 -432.7533
v -4976.3821 237.5270 -432.7533
v -4976.2047 224.5630 -432.7533
v -4976.2047 237.0985 -432.7533
v -4976.5083 237.4011 -432.7533
v -4976.5083 224.2604 -432.7533
v -4977.5208 223.0370 -433.5922
v -4977.5208 223.0370 -433.7549
v -4955.6515 223.0370 -433.7549
v -4955.6515 223.0370 -433.5922
v -4977.5208 223.0370 -436.8490
v -4977.5208 238.6245 -436.8490
v -4955.6515 223.0370 -437.7705
v -4977.5208 223.0370 -437.7705
v -4955.6515 223.0370 -436.8490
v -4955.6515 238.6245 -436.8490
v -4977.5208 223.0370 -436.8490
v -4955.6515 223.0370 -436.8490
v -4977.6104 223.1260 -436.8490
v -4977.5208 223.0370 -436.8490
v -4977.4803 223.1350 -436.8490
v -4977.5120 223.1666 -436.8490
v -4977.5208 238.6245 -436.8490
v -4977.6104 238.5355 -436.8490
v -4977.5120 238.4948 -436.8490
v -4977.4803 238.5265 -436.8490
v -4955.6515 223.0370 -436.8490
v -4955.5622 223.1260 -436.8490
v -4955.6606 223.1666 -436.8490
v -4955.6923 223.1350 -436.8490
v -4955.5622 238.5355 -436.8490
v -4955.6515 238.6245 -436.8490
v -4955.6923 238.5265 -436.8490
v -4955.6606 238.4948 -436.8490
v -4977.5208 223.0370 -433.7549
v -4977.6104 223.1260 -433.7549
v -4977.5120 223.1666 -433.7549
v -4977.4803 223.1350 -433.7549
v -4977.6104 238.5355 -433.7549
v -4977.5208 238.6245 -433.7549
v -4977.4803 238.5265 -433.7549
v -4977.5120 238.4948 -433.7549
v -4955.5622 223.1260 -433.7549
v -4955.6515 223.0370 -433.7549
v -4955.6923 223.1350 -433.7549
v -4955.6606 223.1666 -433.7549
v -4955.6515 238.6245 -433.7549
v -4955.5622 238.5355 -433.7549
v -4955.6606 238.4948 -433.7549
v -4955.6923 238.5265 -433.7549
v -4957.0938 224.4370 -432.7533
v -4956.9675 224.5630 -432.7533
v -4956.9675 224.5630 -432.8534
v -4957.0938 224.4370 -432.8534
v -4976.2047 224.5630 -432.7533
v -4976.0784 224.4370 -432.7533
v -4976.0784 224.4370 -432.8534
v -4976.2047 224.5630 -432.8534
v -4956.9675 237.0985 -432.7533
v -4957.0938 237.2244 -432.7533
v -4957.0938 237.2244 -432.8534
v -4956.9675 237.0985 -432.8534
v -4976.0784 237.2244 -432.7533
v -4976.2047 237.0985 -432.7533
v -4976.2047 237.0985 -432.8534
v -4976.0784 237.2244 -432.8534
v -4977.5208 223.0370 -436.8490
v -4955.6515 223.0370 -436.8490
v -4955.6923 223.1350 -436.8490
v -4977.4803 223.1350 -436.8490
v -4955.6515 238.6245 -436.8490
v -4977.5208 238.6245 -436.8490
v -4977.4803 238.5265 -436.8490
v -4955.6923 238.5265 -436.8490
v -4977.5120 223.1666 -436.9010
v -4977.4803 223.1350 -436.9010
v -4977.4803 223.1350 -433.7138
v -4977.5120 223.1666 -433.7138
v -4955.6923 223.1350 -436.9010
v -4955.6606 223.1666 -436.9010
v -4955.6606 223.1666 -433.7138
v -4955.6923 223.1350 -433.7138
v -4955.6606 238.4948 -436.9010
v -4955.6606 238.4948 -433.7138
v -4977.5120 238.4948 -436.9010
v -4977.5120 238.4948 -433.7138
v -4977.4803 238.5265 -436.9010
v -4977.4803 238.5265 -433.7138
v -4955.6606 238.4948 -436.9010
v -4955.6923 238.5265 -436.9010
v -4955.6923 238.5265 -433.7138
v -4955.6606 238.4948 -433.7138
v -3669.6445 224.4370 1290.3236
v -3669.6445 224.4370 1309.1282
v -3669.6445 224.1345 1309.4290
v -3669.6445 224.1345 1290.0229
v -3674.6616 238.6245 1310.5570
v -3673.7404 238.6245 1310.5570
v -3673.7404 238.6245 1288.8948
v -3674.6616 238.6245 1288.8948
v -3673.7404 238.5355 1288.8063
v -3673.7404 223.1260 1288.8063
v -3673.7404 223.1260 1310.6455
v -3673.7404 238.5355 1310.6455
v -3669.6968 223.9758 1289.8521
v -3669.6968 223.9758 1309.5997
v -3670.3472 223.1067 1310.4639
v -3670.3472 223.1067 1288.9881
v -3670.6463 238.6245 1310.5570
v -3670.4834 238.6245 1310.5570
v -3670.4834 238.6245 1288.8948
v -3670.6463 238.6245 1288.8948
v -3670.6463 223.1260 1288.8063
v -3670.6463 238.5355 1288.8063
v -3670.4834 238.5355 1288.8063
v -3670.4834 223.1260 1288.8063
v -3670.4834 223.1260 1310.6455
v -3670.4834 238.5355 1310.6455
v -3670.6463 238.5355 1310.6455
v -3670.6463 223.1260 1310.6455
v -3669.6968 224.0888 1309.7122
v -3669.6968 237.5726 1309.7122
v -3670.3472 238.4417 1310.5762
v -3670.3472 223.2198 1310.5762
v -3669.6968 237.6857 1309.5997
v -3669.6968 237.6857 1289.8521
v -3670.3472 238.5548 1288.9881
v -3670.3472 238.5548 1310.4639
v -3669.6968 237.5726 1289.7398
v -3669.6968 224.0888 1289.7398
v -3670.3472 223.2198 1288.8758
v -3670.3472 238.4417 1288.8758
v -3669.6445 237.0985 1290.1985
v -3669.6445 224.5630 1290.1985
v -3669.6445 224.2604 1289.8977
v -3669.6445 237.4011 1289.8977
v -3669.6445 237.2244 1309.1282
v -3669.6445 237.2244 1290.3236
v -3669.6445 237.5270 1290.0229
v -3669.6445 237.5270 1309.4290
v -3669.6445 224.5630 1309.2533
v -3669.6445 237.0985 1309.2533
v -3669.6445 237.4011 1309.5543
v -3669.6445 224.2604 1309.5543
v -3670.4834 223.0370 1310.5570
v -3670.6463 223.0370 1310.5570
v -3670.6463 223.0370 1288.8948
v -3670.4834 223.0370 1288.8948
v -3673.7404 223.0370 1310.5570
v -3673.7404 238.6245 1310.5570
v -3674.6616 223.0370 1288.8948
v -3674.6616 223.0370 1310.5570
v -3673.7404 223.0370 1288.8948
v -3673.7404 238.6245 1288.8948
v -3673.7404 223.0370 1310.5570
v -3673.7404 223.0370 1288.8948
v -3673.7404 223.1260 1310.6455
v -3673.7404 223.0370 1310.5570
v -3673.7404 223.1350 1310.5165
v -3673.7404 223.1666 1310.5482
v -3673.7404 238.6245 1310.5570
v -3673.7404 238.5355 1310.6455
v -3673.7404 238.4948 1310.5482
v -3673.7404 238.5265 1310.5165
v -3673.7404 223.0370 1288.8948
v -3673.7404 223.1260 1288.8063
v -3673.7404 223.1666 1288.9038
v -3673.7404 223.1350 1288.9353
v -3673.7404 238.5355 1288.8063
v -3673.7404 238.6245 1288.8948
v -3673.7404 238.5265 1288.9353
v -3673.7404 238.4948 1288.9038
v -3670.6463 223.0370 1310.5570
v -3670.6463 223.1260 1310.6455
v -3670.6463 223.1666 1310.5482
v -3670.6463 223.1350 1310.5165
v -3670.6463 238.5355 1310.6455
v -3670.6463 238.6245 1310.5570
v -3670.6463 238.5265 1310.5165
v -3670.6463 238.4948 1310.5482
v -3670.6463 223.1260 1288.8063
v -3670.6463 223.0370 1288.8948
v -3670.6463 223.1350 1288.9353
v -3670.6463 223.1666 1288.9038
v -3670.6463 238.6245 1288.8948
v -3670.6463 238.5355 1288.8063
v -3670.6463 238.4948 1288.9038
v -3670.6463 238.5265 1288.9353
v -3669.6445 224.4370 1290.3236
v -3669.6445 224.5630 1290.1985
v -3669.7445 224.5630 1290.1985
v -3669.7445 224.4370 1290.3236
v -3669.6445 224.5630 1309.2533
v -3669.6445 224.4370 1309.1282
v -3669.7445 224.4370 1309.1282
v -3669.7445 224.5630 1309.2533
v -3669.6445 237.0985 1290.1985
v -3669.6445 237.2244 1290.3236
v -3669.7445 237.2244 1290.3236
v -3669.7445 237.0985 1290.1985
v -3669.6445 237.2244 1309.1282
v -3669.6445 237.0985 1309.2533
v -3669.7445 237.0985 1309.2533
v -3669.7445 237.2244 1309.1282
v -3673.7404 223.0370 1310.5570
v -3673.7404 223.0370 1288.8948
v -3673.7404 223.1350 1288.9353
v -3673.7404 223.1350 1310.5165
v -3673.7404 238.6245 1288.8948
v -3673.7404 238.6245 1310.5570
v -3673.7404 238.5265 1310.5165
v -3673.7404 238.5265 1288.9353
v -3673.7923 223.1666 1310.5482
v -3673.7923 223.1350 1310.5165
v -3670.6051 223.1350 1310.5165
v -3670.6051 223.1666 1310.5482
v -3673.7923 223.1350 1288.9353
v -3673.7923 223.1666 1288.9038
v -3670.6051 223.1666 1288.9038
v -3670.6051 223.1350 1288.9353
v -3673.7923 238.4948 1288.9038
v -3670.6051 238.4948 1288.9038
v -3673.7923 238.4948 1310.5482
v -3670.6051 238.4948 1310.5482
v -3673.7923 238.5265 1310.5165
v -3670.6051 238.5265 1310.5165
v -3673.7923 238.4948 1288.9038
v -3673.7923 238.5265 1288.9353
v -3670.6051 238.5265 1288.9353
v -3670.6051 238.4948 1288.9038
vt 0.55630 0.98511
vt 0.55495 0.98375
vt 0.55466 0.98538
vt 0.34597 0.98510
vt 0.34761 0.98538
vt 0.34731 0.98375
vt 0.55630 0.68883
vt 0.55466 0.68855
vt 0.55495 0.69018
vt 0.34597 0.68883
vt 0.34731 0.69019
vt 0.34760 0.68856
vt 0.10594 0.68877
vt 0.10729 0.69013
vt 0.10758 0.68850
vt 0.31627 0.68878
vt 0.31463 0.68851
vt 0.31493 0.69014
vt 0.10594 0.98507
vt 0.10758 0.98534
vt 0.10729 0.98371
vt 0.31627 0.98506
vt 0.31493 0.98370
vt 0.31463 0.98533
vt 0.11539 0.64770
vt 0.11479 0.38437
vt 0.11075 0.38007
vt 0.11130 0.65213
vt 0.34561 0.69019
vt 0.33244 0.69019
vt 0.33244 0.98375
vt 0.34562 0.98375
vt 0.34760 0.99849
vt 0.55466 0.99850
vt 0.55466 0.67543
vt 0.34760 0.67545
vt 0.10933 0.65474
vt 0.10883 0.37755
vt 0.09456 0.36411
vt 0.09506 0.66834
vt 0.31727 0.35984
vt 0.31585 0.36106
vt 0.31593 0.66979
vt 0.31729 0.67094
vt 0.09327 0.67313
vt 0.31621 0.67217
vt 0.31498 0.67078
vt 0.09459 0.67163
vt 0.09409 0.36096
vt 0.31486 0.36001
vt 0.31618 0.35852
vt 0.09286 0.35957
vt 0.10984 0.37657
vt 0.29906 0.37592
vt 0.31260 0.36150
vt 0.09630 0.36234
vt 0.30010 0.37691
vt 0.30027 0.65418
vt 0.31452 0.66763
vt 0.31439 0.36331
vt 0.29925 0.65517
vt 0.11038 0.65574
vt 0.09686 0.67014
vt 0.31278 0.66939
vt 0.29246 0.64920
vt 0.11728 0.64957
vt 0.11293 0.65372
vt 0.29676 0.65325
vt 0.29405 0.38395
vt 0.29430 0.64736
vt 0.29834 0.65167
vt 0.29814 0.37952
vt 0.11664 0.38255
vt 0.29215 0.38209
vt 0.29651 0.37793
vt 0.11233 0.37850
vt 0.09315 0.36195
vt 0.09178 0.36080
vt 0.09219 0.67181
vt 0.09361 0.67059
vt 0.55628 0.67519
vt 0.34599 0.67521
vt 0.55665 0.98375
vt 0.55665 0.69018
vt 0.55627 0.99874
vt 0.34599 0.99873
vt 0.56982 0.69018
vt 0.56982 0.98375
vt 0.55466 0.67543
vt 0.55628 0.67519
vt 0.55530 0.67393
vt 0.55444 0.67411
vt 0.34599 0.67521
vt 0.34760 0.67545
vt 0.34782 0.67413
vt 0.34696 0.67395
vt 0.55627 0.99874
vt 0.55466 0.99850
vt 0.55444 0.99982
vt 0.55530 1.00000
vt 0.34760 0.99849
vt 0.34599 0.99873
vt 0.34697 0.99999
vt 0.34783 0.99981
vt 0.09178 0.36080
vt 0.09286 0.35957
vt 0.09240 0.35883
vt 0.09109 0.36009
vt 0.31618 0.35852
vt 0.31727 0.35984
vt 0.31798 0.35910
vt 0.31665 0.35780
vt 0.09327 0.67313
vt 0.09219 0.67181
vt 0.09148 0.67254
vt 0.09280 0.67385
vt 0.31729 0.67094
vt 0.31621 0.67217
vt 0.31667 0.67291
vt 0.31798 0.67165
vt 0.11539 0.64770
vt 0.11728 0.64957
vt 0.11790 0.64847
vt 0.11648 0.64703
vt 0.11664 0.38255
vt 0.11479 0.38437
vt 0.11580 0.38497
vt 0.11723 0.38360
vt 0.29246 0.64920
vt 0.29430 0.64736
vt 0.29327 0.64675
vt 0.29187 0.64818
vt 0.29405 0.38395
vt 0.29215 0.38209
vt 0.29154 0.38319
vt 0.29296 0.38463
vt 0.56982 0.69018
vt 0.56982 0.98375
vt 0.57115 0.98321
vt 0.57115 0.69073
vt 0.33244 0.98375
vt 0.33244 0.69019
vt 0.33112 0.69073
vt 0.33112 0.98320
vt 0.04555 0.50000
vt 0.04555 0.50060
vt 0.09109 0.50060
vt 0.09109 0.50000
vt 0.04555 0.79294
vt 0.04555 0.79354
vt 0.09109 0.79354
vt 0.09109 0.79294
vt 0.04555 1.00000
vt 0.09109 1.00000
vt 0.04555 0.29355
vt 0.09109 0.29355
vt 0.04555 0.29294
vt 0.09109 0.29294
vt 0.04555 0.00001
vt 0.04555 0.00061
vt 0.09109 0.00061
vt 0.09109 0.00001
vt 0.35483 0.64753
vt 0.35482 0.38359
vt 0.35079 0.37911
vt 0.35080 0.65203
vt 0.31662 0.98370
vt 0.32980 0.98370
vt 0.32980 0.69014
vt 0.31662 0.69014
vt 0.31462 0.67540
vt 0.10759 0.67540
vt 0.10759 0.99846
vt 0.31462 0.99844
vt 0.34890 0.65469
vt 0.34890 0.37646
vt 0.33465 0.36279
vt 0.33465 0.66838
vt 0.55666 0.36031
vt 0.55527 0.36155
vt 0.55568 0.66963
vt 0.55706 0.67087
vt 0.33316 0.67323
vt 0.55583 0.67194
vt 0.55469 0.67057
vt 0.33433 0.67168
vt 0.33432 0.35947
vt 0.55429 0.36061
vt 0.55543 0.35924
vt 0.33316 0.35793
vt 0.34995 0.37548
vt 0.53864 0.37620
vt 0.55214 0.36200
vt 0.33649 0.36102
vt 0.53965 0.37719
vt 0.54002 0.65402
vt 0.55427 0.66744
vt 0.55388 0.36375
vt 0.53900 0.65499
vt 0.34996 0.65567
vt 0.33650 0.67014
vt 0.55252 0.66919
vt 0.53222 0.64903
vt 0.35677 0.64938
vt 0.35247 0.65360
vt 0.53651 0.65307
vt 0.53371 0.38399
vt 0.53407 0.64722
vt 0.53810 0.65151
vt 0.53774 0.37969
vt 0.35674 0.38177
vt 0.53186 0.38217
vt 0.53615 0.37813
vt 0.35245 0.37755
vt 0.33325 0.36045
vt 0.33186 0.35910
vt 0.33185 0.67206
vt 0.33324 0.67072
vt 0.10600 0.99876
vt 0.31621 0.99874
vt 0.10559 0.69013
vt 0.10559 0.98371
vt 0.10600 0.67509
vt 0.31621 0.67510
vt 0.09241 0.98371
vt 0.09241 0.69013
vt 0.10759 0.99846
vt 0.10600 0.99876
vt 0.10707 1.00000
vt 0.10774 0.99978
vt 0.31621 0.99874
vt 0.31462 0.99844
vt 0.31448 0.99976
vt 0.31514 0.99998
vt 0.10600 0.67509
vt 0.10759 0.67540
vt 0.10774 0.67407
vt 0.10708 0.67385
vt 0.31462 0.67540
vt 0.31621 0.67510
vt 0.31514 0.67386
vt 0.31448 0.67408
vt 0.33186 0.35910
vt 0.33316 0.35793
vt 0.33241 0.35724
vt 0.33112 0.35861
vt 0.55543 0.35924
vt 0.55666 0.36031
vt 0.55739 0.35985
vt 0.55613 0.35854
vt 0.33316 0.67323
vt 0.33185 0.67206
vt 0.33112 0.67256
vt 0.33241 0.67393
vt 0.55706 0.67087
vt 0.55583 0.67194
vt 0.55653 0.67265
vt 0.55778 0.67133
vt 0.35483 0.64753
vt 0.35677 0.64938
vt 0.35735 0.64825
vt 0.35587 0.64680
vt 0.35674 0.38177
vt 0.35482 0.38359
vt 0.35585 0.38430
vt 0.35731 0.38291
vt 0.53222 0.64903
vt 0.53407 0.64722
vt 0.53306 0.64663
vt 0.53164 0.64798
vt 0.53371 0.38399
vt 0.53186 0.38217
vt 0.53128 0.38322
vt 0.53270 0.38458
vt 0.09241 0.98371
vt 0.09241 0.69013
vt 0.09109 0.69068
vt 0.09109 0.98316
vt 0.32980 0.69014
vt 0.32980 0.98370
vt 0.33112 0.98315
vt 0.33112 0.69068
vt 0.04555 0.50000
vt 0.04555 0.49940
vt 0.00000 0.49940
vt 0.00000 0.50000
vt 0.04555 0.20706
vt 0.04555 0.20646
vt -0.00000 0.20646
vt 0.00000 0.20706
vt 0.04554 0.00000
vt 0.00000 0.00000
vt 0.04555 0.70646
vt 0.00000 0.70646
vt 0.04555 0.70706
vt 0.00000 0.70706
vt 0.04555 1.00000
vt 0.04555 0.99939
vt 0.00000 0.99939
vt 0.00000 1.00000
vn -0.0010 -0.9952 -0.0974
vn -0.0046 0.0053 -1.0000
vn 0.9954 -0.0032 -0.0961
vn 0.0004 0.9954 -0.0956
vn 0.9955 0.0046 -0.0945
vn -0.0078 -0.0022 -1.0000
vn -0.0028 -0.9957 -0.0927
vn -0.9955 -0.0046 -0.0946
vn 0.0079 0.0023 -1.0000
vn -0.0016 0.9956 -0.0941
vn 0.0047 -0.0053 -1.0000
vn -0.9954 0.0033 -0.0962
vn -0.0975 -0.9952 -0.0005
vn -1.0000 0.0055 0.0029
vn -0.0943 -0.0020 -0.9955
vn -0.0954 0.9954 -0.0022
vn -0.0931 0.0030 -0.9957
vn -1.0000 -0.0026 0.0058
vn -0.0919 -0.9958 0.0051
vn -0.0931 -0.0029 0.9957
vn -1.0000 0.0027 -0.0058
vn -0.0938 0.9956 0.0036
vn -1.0000 -0.0056 -0.0029
vn -0.0943 0.0019 0.9955
vn 0.0000 0.0002 1.0000
vn 0.0000 0.0002 1.0000
vn 0.0017 -0.1113 0.9938
vn -0.0018 -0.1114 0.9938
vn -0.0016 0.9956 -0.0941
vn -0.0034 1.0000 0.0000
vn 0.0034 1.0000 -0.0002
vn 0.0004 0.9954 -0.0956
vn 1.0000 0.0066 0.0000
vn 1.0000 -0.0066 -0.0000
vn -1.0000 -0.0066 -0.0000
vn -1.0000 0.0066 -0.0002
vn -0.0036 -0.5697 0.8218
vn 0.0016 -0.5707 0.8212
vn 0.0056 -0.6460 0.7633
vn -0.0062 -0.6486 0.7611
vn -0.0034 1.0000 0.0000
vn -0.0010 0.9735 0.2289
vn 0.0015 0.9739 0.2269
vn 0.0034 1.0000 0.0000
vn 1.0000 -0.0066 -0.0000
vn 1.0000 0.0066 0.0001
vn 0.9733 0.0041 0.2297
vn 0.9738 -0.0047 0.2273
vn -0.9732 -0.0042 0.2298
vn -0.9738 0.0048 0.2274
vn -1.0000 0.0066 0.0000
vn -1.0000 -0.0066 0.0002
vn -0.5684 0.0015 0.8227
vn -0.5692 -0.0001 0.8222
vn -0.6448 -0.0029 0.7644
vn -0.6467 0.0035 0.7628
vn 0.0036 0.5697 0.8218
vn -0.0016 0.5708 0.8211
vn -0.0056 0.6461 0.7633
vn 0.0062 0.6487 0.7611
vn 0.5684 -0.0015 0.8227
vn 0.5691 0.0001 0.8222
vn 0.6449 0.0030 0.7643
vn 0.6468 -0.0034 0.7626
vn -0.0000 -0.0000 1.0000
vn 0.0000 0.0001 1.0000
vn 0.1114 0.0011 0.9938
vn 0.1113 -0.0009 0.9938
vn -0.0000 -0.0002 1.0000
vn -0.0000 -0.0001 1.0000
vn -0.0017 0.1114 0.9938
vn 0.0018 0.1114 0.9938
vn 0.0000 0.0001 1.0000
vn -0.0000 -0.0001 1.0000
vn -0.1112 -0.0011 0.9938
vn -0.1111 0.0010 0.9938
vn -0.0015 -0.9739 0.2269
vn -0.0034 -1.0000 -0.0000
vn 0.0034 -1.0000 -0.0000
vn 0.0010 -0.9734 0.2289
vn -0.0034 -1.0000 -0.0001
vn -0.0034 1.0000 0.0000
vn -0.0010 -0.9952 -0.0974
vn -0.0028 -0.9957 -0.0927
vn 0.0034 -1.0000 -0.0000
vn 0.0034 1.0000 -0.0002
vn -0.0034 -1.0000 -0.0001
vn 0.0034 -1.0000 -0.0000
vn -0.0000 -0.0001 1.0000
vn -0.0000 -0.0001 1.0000
vn -0.0000 -0.0001 1.0000
vn -0.0000 -0.0001 1.0000
vn 0.0000 0.0003 1.0000
vn 0.0000 0.0003 1.0000
vn 0.0000 0.0003 1.0000
vn 0.0000 0.0003 1.0000
vn -0.0000 -0.0003 1.0000
vn -0.0000 -0.0003 1.0000
vn -0.0000 -0.0003 1.0000
vn -0.0000 -0.0003 1.0000
vn 0.0000 0.0001 1.0000
vn 0.0000 0.0001 1.0000
vn 0.0000 0.0001 1.0000
vn 0.0000 0.0001 1.0000
vn 0.0000 0.0003 -1.0000
vn 0.0000 0.0003 -1.0000
vn 0.0000 0.0003 -1.0000
vn 0.0000 0.0003 -1.0000
vn 0.0000 0.0000 -1.0000
vn 0.0000 0.0000 -1.0000
vn 0.0000 0.0000 -1.0000
vn 0.0000 0.0000 -1.0000
vn 0.0000 0.0000 -1.0000
vn 0.0000 0.0000 -1.0000
vn 0.0000 0.0000 -1.0000
vn 0.0000 0.0000 -1.0000
vn 0.0000 -0.0003 -1.0000
vn 0.0000 -0.0003 -1.0000
vn 0.0000 -0.0003 -1.0000
vn 0.0000 -0.0003 -1.0000
vn -0.0057 1.0000 0.0000
vn -0.9999 0.0110 0.0000
vn -0.9999 0.0110 0.0000
vn -0.0057 1.0000 0.0000
vn 0.9999 0.0110 0.0000
vn 0.0057 1.0000 0.0000
vn 0.0057 1.0000 0.0000
vn 0.9999 0.0110 0.0000
vn -0.9999 -0.0110 -0.0000
vn -0.0057 -1.0000 -0.0000
vn -0.0057 -1.0000 -0.0000
vn -0.9999 -0.0110 -0.0000
vn 0.0057 -1.0000 -0.0000
vn 0.9999 -0.0110 -0.0000
vn 0.9999 -0.0110 -0.0000
vn 0.0057 -1.0000 -0.0000
vn -0.0000 -0.0001 1.0000
vn -0.0000 -0.0003 1.0000
vn -0.0000 -0.0003 1.0000
vn -0.0000 -0.0001 1.0000
vn 0.0000 0.0001 1.0000
vn 0.0000 0.0003 1.0000
vn 0.0000 0.0003 1.0000
vn 0.0000 0.0001 1.0000
vn -1.0000 -0.0028 -0.0000
vn -0.0009 -1.0000 -0.0000
vn -0.0009 -1.0000 -0.0000
vn -1.0000 -0.0028 -0.0000
vn 0.0009 -1.0000 -0.0000
vn 1.0000 -0.0028 -0.0000
vn 1.0000 -0.0028 -0.0000
vn 0.0009 -1.0000 -0.0000
vn 1.0000 0.0028 0.0000
vn 1.0000 0.0028 0.0000
vn -1.0000 0.0028 0.0000
vn -1.0000 0.0028 0.0000
vn -0.0009 1.0000 0.0000
vn -0.0009 1.0000 0.0000
vn 1.0000 0.0028 0.0000
vn 0.0009 1.0000 0.0000
vn 0.0009 1.0000 0.0000
vn 1.0000 0.0028 0.0000
vn 1.0000 0.0000 0.0000
vn 1.0000 0.0000 0.0000
vn 0.9938 -0.1114 -0.0010
vn 0.9938 -0.1112 0.0008
vn -0.0938 0.9956 0.0036
vn 0.0000 1.0000 0.0054
vn 0.0000 1.0000 -0.0054
vn -0.0954 0.9954 -0.0022
vn 0.0000 0.0046 -1.0000
vn 0.0000 -0.0046 -1.0000
vn -0.0000 -0.0046 1.0000
vn 0.0000 0.0046 1.0000
vn 0.8218 -0.5698 0.0021
vn 0.8214 -0.5704 -0.0011
vn 0.7632 -0.6462 -0.0036
vn 0.7619 -0.6477 0.0041
vn 0.0001 1.0000 0.0054
vn 0.2283 0.9736 0.0029
vn 0.2263 0.9740 -0.0035
vn 0.0000 1.0000 -0.0054
vn 0.0000 -0.0045 -1.0000
vn 0.0000 0.0046 -1.0000
vn 0.2283 0.0025 -0.9736
vn 0.2265 -0.0029 -0.9740
vn 0.2280 -0.0027 0.9737
vn 0.2262 0.0032 0.9741
vn 0.0000 0.0046 1.0000
vn -0.0000 -0.0045 1.0000
vn 0.8209 0.0019 0.5710
vn 0.8202 0.0002 0.5720
vn 0.7619 -0.0036 0.6477
vn 0.7597 0.0042 0.6502
vn 0.8218 0.5698 -0.0022
vn 0.8214 0.5704 0.0010
vn 0.7632 0.6461 0.0037
vn 0.7618 0.6478 -0.0040
vn 0.8209 -0.0019 -0.5710
vn 0.8202 -0.0001 -0.5721
vn 0.7622 0.0037 -0.6473
vn 0.7600 -0.0043 -0.6499
vn 1.0000 0.0000 -0.0002
vn 1.0000 0.0000 -0.0002
vn 0.9936 0.0013 -0.1127
vn 0.9936 -0.0014 -0.1128
vn 1.0000 0.0000 0.0000
vn 1.0000 0.0000 0.0000
vn 0.9938 0.1114 0.0010
vn 0.9938 0.1112 -0.0009
vn 1.0000 -0.0000 0.0002
vn 1.0000 -0.0000 0.0002
vn 0.9936 -0.0012 0.1127
vn 0.9936 0.0013 0.1128
vn 0.2261 -0.9741 0.0035
vn -0.0000 -1.0000 0.0055
vn 0.0000 -1.0000 -0.0055
vn 0.2286 -0.9735 -0.0030
vn -0.0000 -1.0000 0.0054
vn 0.0000 1.0000 0.0054
vn -0.0975 -0.9952 -0.0005
vn -0.0919 -0.9958 0.0051
vn 0.0000 -1.0000 -0.0054
vn 0.0000 1.0000 -0.0054
vn -0.0000 -1.0000 0.0054
vn 0.0000 -1.0000 -0.0054
vn 1.0000 0.0000 -0.0001
vn 1.0000 0.0000 -0.0003
vn 1.0000 0.0000 -0.0003
vn 1.0000 0.0000 -0.0001
vn 1.0000 0.0000 0.0000
vn 1.0000 -0.0000 0.0002
vn 1.0000 -0.0000 0.0002
vn 1.0000 0.0000 0.0000
vn 1.0000 -0.0000 0.0001
vn 1.0000 0.0000 -0.0001
vn 1.0000 0.0000 -0.0001
vn 1.0000 -0.0000 0.0001
vn 1.0000 -0.0000 0.0001
vn 1.0000 -0.0000 0.0003
vn 1.0000 -0.0000 0.0003
vn 1.0000 -0.0000 0.0001
vn -1.0000 0.0000 -0.0001
vn -1.0000 0.0000 -0.0001
vn -1.0000 0.0000 -0.0001
vn -1.0000 0.0000 -0.0001
vn -1.0000 -0.0000 0.0001
vn -1.0000 -0.0000 0.0001
vn -1.0000 -0.0000 0.0001
vn -1.0000 -0.0000 0.0001
vn -1.0000 0.0000 -0.0001
vn -1.0000 0.0000 -0.0001
vn -1.0000 0.0000 -0.0001
vn -1.0000 0.0000 -0.0001
vn -1.0000 -0.0000 0.0001
vn -1.0000 -0.0000 0.0001
vn -1.0000 -0.0000 0.0001
vn -1.0000 -0.0000 0.0001
vn 0.0000 1.0000 0.0087
vn -0.0001 0.0080 1.0000
vn 0.0000 0.0080 1.0000
vn 0.0000 1.0000 0.0087
vn 0.0000 0.0080 -1.0000
vn 0.0000 1.0000 -0.0087
vn 0.0000 1.0000 -0.0087
vn 0.0001 0.0080 -1.0000
vn -0.0000 -0.0080 1.0000
vn -0.0000 -1.0000 0.0087
vn -0.0000 -1.0000 0.0087
vn 0.0001 -0.0080 1.0000
vn 0.0000 -1.0000 -0.0087
vn -0.0001 -0.0080 -1.0000
vn 0.0000 -0.0080 -1.0000
vn 0.0000 -1.0000 -0.0087
vn 1.0000 0.0000 -0.0003
vn 1.0000 -0.0000 0.0001
vn 1.0000 -0.0000 0.0001
vn 1.0000 0.0000 -0.0003
vn 1.0000 -0.0000 0.0003
vn 1.0000 0.0000 0.0000
vn 1.0000 0.0000 0.0000
vn 1.0000 -0.0000 0.0003
vn -0.0000 -0.0020 1.0000
vn -0.0000 -1.0000 0.0017
vn -0.0000 -1.0000 0.0017
vn -0.0000 -0.0020 1.0000
vn 0.0002 -1.0000 -0.0029
vn 0.0000 -0.0008 -1.0000
vn 0.0000 -0.0008 -1.0000
vn 0.0000 -1.0000 -0.0029
vn 0.0000 0.0008 -1.0000
vn 0.0000 0.0008 -1.0000
vn 0.0000 0.0020 1.0000
vn 0.0000 0.0020 1.0000
vn 0.0000 1.0000 0.0017
vn 0.0000 1.0000 0.0017
vn 0.0000 0.0008 -1.0000
vn 0.0000 1.0000 -0.0029
vn -0.0002 1.0000 -0.0029
vn 0.0000 0.0008 -1.0000
f 1/1/1 2/2/2 3/3/3
f 4/4/4 5/5/5 6/6/6
f 7/7/7 8/8/8 9/9/9
f 10/10/10 11/11/11 12/12/12
f 13/13/13 14/14/14 15/15/15
f 16/16/16 17/17/17 18/18/18
f 19/19/19 20/20/20 21/21/21
f 22/22/22 23/23/23 24/24/24
f 9/9/9 11/11/11 6/6/6
f 9/9/9 6/6/6 2/2/2
f 25/25/25 26/26/26 27/27/27
f 25/25/25 27/27/27 28/28/28
f 29/29/29 30/30/30 31/31/31
f 29/29/29 31/31/31 32/32/32
f 3/3/3 5/5/5 33/33/33
f 3/3/3 33/33/33 34/34/34
f 35/35/35 36/36/36 12/12/12
f 35/35/35 12/12/12 8/8/8
f 37/37/37 38/38/38 39/39/39
f 37/37/37 39/39/39 40/40/40
f 41/41/41 42/42/42 43/43/43
f 41/41/41 43/43/43 44/44/44
f 45/45/45 46/46/46 47/47/47
f 45/45/45 47/47/47 48/48/48
f 49/49/49 50/50/50 51/51/51
f 49/49/49 51/51/51 52/52/52
f 53/53/53 54/54/54 55/55/55
f 53/53/53 55/55/55 56/56/56
f 57/57/57 58/58/58 59/59/59
f 57/57/57 59/59/59 60/60/60
f 61/61/61 62/62/62 63/63/63
f 61/61/61 63/63/63 64/64/64
f 65/65/65 66/66/66 67/67/67
f 65/65/65 67/67/67 68/68/68
f 69/69/69 70/70/70 71/71/71
f 69/69/69 71/71/71 72/72/72
f 73/73/73 74/74/74 75/75/75
f 73/73/73 75/75/75 76/76/76
f 77/77/77 78/78/78 79/79/79
f 77/77/77 79/79/79 80/80/80
f 39/39/39 56/56/56 49/49/49
f 39/39/39 49/49/49 77/77/77
f 40/40/40 80/80/80 48/48/48
f 40/40/40 48/48/48 63/63/63
f 64/64/64 47/47/47 43/43/43
f 64/64/64 43/43/43 59/59/59
f 60/60/60 42/42/42 50/50/50
f 60/60/60 50/50/50 55/55/55
f 27/27/27 76/76/76 53/53/53
f 27/27/27 53/53/53 38/38/38
f 28/28/28 37/37/37 62/62/62
f 28/28/28 62/62/62 67/67/67
f 68/68/68 61/61/61 58/58/58
f 68/68/68 58/58/58 71/71/71
f 72/72/72 57/57/57 54/54/54
f 72/72/72 54/54/54 75/75/75
f 7/7/7 81/81/81 35/35/35
f 7/7/7 35/35/35 8/8/8
f 82/82/82 10/10/10 12/12/12
f 82/82/82 12/12/12 36/36/36
f 11/11/11 9/9/9 8/8/8
f 11/11/11 8/8/8 12/12/12
f 83/83/83 84/84/84 9/9/9
f 83/83/83 9/9/9 2/2/2
f 29/29/29 32/32/32 6/6/6
f 29/29/29 6/6/6 11/11/11
f 5/5/5 3/3/3 2/2/2
f 5/5/5 2/2/2 6/6/6
f 85/85/85 1/1/1 3/3/3
f 85/85/85 3/3/3 34/34/34
f 4/4/4 86/86/86 33/33/33
f 4/4/4 33/33/33 5/5/5
f 77/77/77 80/80/80 40/40/40
f 77/77/77 40/40/40 39/39/39
f 48/48/48 47/47/47 64/64/64
f 48/48/48 64/64/64 63/63/63
f 43/43/43 42/42/42 60/60/60
f 43/43/43 60/60/60 59/59/59
f 50/50/50 49/49/49 56/56/56
f 50/50/50 56/56/56 55/55/55
f 78/78/78 77/77/77 49/49/49
f 78/78/78 49/49/49 52/52/52
f 42/42/42 41/41/41 51/51/51
f 42/42/42 51/51/51 50/50/50
f 80/80/80 79/79/79 45/45/45
f 80/80/80 45/45/45 48/48/48
f 44/44/44 43/43/43 47/47/47
f 44/44/44 47/47/47 46/46/46
f 38/38/38 37/37/37 28/28/28
f 38/38/38 28/28/28 27/27/27
f 62/62/62 61/61/61 68/68/68
f 62/62/62 68/68/68 67/67/67
f 58/58/58 57/57/57 72/72/72
f 58/58/58 72/72/72 71/71/71
f 54/54/54 53/53/53 76/76/76
f 54/54/54 76/76/76 75/75/75
f 63/63/63 62/62/62 37/37/37
f 63/63/63 37/37/37 40/40/40
f 53/53/53 56/56/56 39/39/39
f 53/53/53 39/39/39 38/38/38
f 59/59/59 58/58/58 61/61/61
f 59/59/59 61/61/61 64/64/64
f 55/55/55 54/54/54 57/57/57
f 55/55/55 57/57/57 60/60/60
f 67/67/67 66/66/66 25/25/25
f 67/67/67 25/25/25 28/28/28
f 73/73/73 76/76/76 27/27/27
f 73/73/73 27/27/27 26/26/26
f 71/71/71 70/70/70 65/65/65
f 71/71/71 65/65/65 68/68/68
f 75/75/75 74/74/74 69/69/69
f 75/75/75 69/69/69 72/72/72
f 87/87/87 84/84/84 83/83/83
f 87/87/87 83/83/83 88/88/88
f 89/89/89 90/90/90 91/91/91
f 89/89/89 91/91/91 92/92/92
f 93/93/93 94/94/94 95/95/95
f 93/93/93 95/95/95 96/96/96
f 97/97/97 98/98/98 99/99/99
f 97/97/97 99/99/99 100/100/100
f 101/101/101 102/102/102 103/103/103
f 101/101/101 103/103/103 104/104/104
f 105/105/105 106/106/106 107/107/107
f 105/105/105 107/107/107 108/108/108
f 109/109/109 110/110/110 111/111/111
f 109/109/109 111/111/111 112/112/112
f 113/113/113 114/114/114 115/115/115
f 113/113/113 115/115/115 116/116/116
f 117/117/117 118/118/118 119/119/119
f 117/117/117 119/119/119 120/120/120
f 121/121/121 122/122/122 123/123/123
f 121/121/121 123/123/123 124/124/124
f 125/125/125 126/126/126 127/127/127
f 125/125/125 127/127/127 128/128/128
f 129/129/129 130/130/130 131/131/131
f 129/129/129 131/131/131 132/132/132
f 133/133/133 134/134/134 135/135/135
f 133/133/133 135/135/135 136/136/136
f 137/137/137 138/138/138 139/139/139
f 137/137/137 139/139/139 140/140/140
f 98/98/98 101/101/101 104/104/104
f 98/98/98 104/104/104 99/99/99
f 141/141/141 142/142/142 143/143/143
f 141/141/141 143/143/143 144/144/144
f 94/94/94 89/89/89 92/92/92
f 94/94/94 92/92/92 95/95/95
f 126/126/126 121/121/121 124/124/124
f 126/126/126 124/124/124 127/127/127
f 122/122/122 129/129/129 132/132/132
f 122/122/122 132/132/132 123/123/123
f 130/130/130 133/133/133 136/136/136
f 130/130/130 136/136/136 131/131/131
f 134/134/134 125/125/125 128/128/128
f 134/134/134 128/128/128 135/135/135
f 114/114/114 105/105/105 108/108/108
f 114/114/114 108/108/108 115/115/115
f 118/118/118 113/113/113 116/116/116
f 118/118/118 116/116/116 119/119/119
f 110/110/110 117/117/117 120/120/120
f 110/110/110 120/120/120 111/111/111
f 106/106/106 109/109/109 112/112/112
f 106/106/106 112/112/112 107/107/107
f 145/145/145 146/146/146 147/147/147
f 145/145/145 147/147/147 148/148/148
f 149/149/149 150/150/150 151/151/151
f 149/149/149 151/151/151 152/152/152
f 150/150/150 153/153/153 154/154/154
f 150/150/150 154/154/154 151/151/151
f 155/155/155 145/145/145 148/148/148
f 155/155/155 148/148/148 156/156/156
f 157/157/157 155/155/155 156/156/156
f 157/157/157 156/156/156 158/158/158
f 146/146/146 149/149/149 152/152/152
f 146/146/146 152/152/152 147/147/147
f 159/159/159 160/160/160 161/161/161
f 159/159/159 161/161/161 162/162/162
f 160/160/160 157/157/157 158/158/158
f 160/160/160 158/158/158 161/161/161
f 21/21/21 23/23/23 18/18/18
f 21/21/21 18/18/18 14/14/14
f 163/163/163 164/164/164 165/165/165
f 163/163/163 165/165/165 166/166/166
f 167/167/167 168/168/168 169/169/169
f 167/167/167 169/169/169 170/170/170
f 15/15/15 17/17/17 171/171/171
f 15/15/15 171/171/171 172/172/172
f 173/173/173 174/174/174 24/24/24
f 173/173/173 24/24/24 20/20/20
f 175/175/175 176/176/176 177/177/177
f 175/175/175 177/177/177 178/178/178
f 179/179/179 180/180/180 181/181/181
f 179/179/179 181/181/181 182/182/182
f 183/183/183 184/184/184 185/185/185
f 183/183/183 185/185/185 186/186/186
f 187/187/187 188/188/188 189/189/189
f 187/187/187 189/189/189 190/190/190
f 191/191/191 192/192/192 193/193/193
f 191/191/191 193/193/193 194/194/194
f 195/195/195 196/196/196 197/197/197
f 195/195/195 197/197/197 198/198/198
f 199/199/199 200/200/200 201/201/201
f 199/199/199 201/201/201 202/202/202
f 203/203/203 204/204/204 205/205/205
f 203/203/203 205/205/205 206/206/206
f 207/207/207 208/208/208 209/209/209
f 207/207/207 209/209/209 210/210/210
f 211/211/211 212/212/212 213/213/213
f 211/211/211 213/213/213 214/214/214
f 215/215/215 216/216/216 217/217/217
f 215/215/215 217/217/217 218/218/218
f 177/177/177 194/194/194 187/187/187
f 177/177/177 187/187/187 215/215/215
f 178/178/178 218/218/218 186/186/186
f 178/178/178 186/186/186 201/201/201
f 202/202/202 185/185/185 181/181/181
f 202/202/202 181/181/181 197/197/197
f 198/198/198 180/180/180 188/188/188
f 198/198/198 188/188/188 193/193/193
f 165/165/165 214/214/214 191/191/191
f 165/165/165 191/191/191 176/176/176
f 166/166/166 175/175/175 200/200/200
f 166/166/166 200/200/200 205/205/205
f 206/206/206 199/199/199 196/196/196
f 206/206/206 196/196/196 209/209/209
f 210/210/210 195/195/195 192/192/192
f 210/210/210 192/192/192 213/213/213
f 19/19/19 219/219/219 173/173/173
f 19/19/19 173/173/173 20/20/20
f 220/220/220 22/22/22 24/24/24
f 220/220/220 24/24/24 174/174/174
f 23/23/23 21/21/21 20/20/20
f 23/23/23 20/20/20 24/24/24
f 221/221/221 222/222/222 21/21/21
f 221/221/221 21/21/21 14/14/14
f 167/167/167 170/170/170 18/18/18
f 167/167/167 18/18/18 23/23/23
f 17/17/17 15/15/15 14/14/14
f 17/17/17 14/14/14 18/18/18
f 223/223/223 13/13/13 15/15/15
f 223/223/223 15/15/15 172/172/172
f 16/16/16 224/224/224 171/171/171
f 16/16/16 171/171/171 17/17/17
f 215/215/215 218/218/218 178/178/178
f 215/215/215 178/178/178 177/177/177
f 186/186/186 185/185/185 202/202/202
f 186/186/186 202/202/202 201/201/201
f 181/181/181 180/180/180 198/198/198
f 181/181/181 198/198/198 197/197/197
f 188/188/188 187/187/187 194/194/194
f 188/188/188 194/194/194 193/193/193
f 216/216/216 215/215/215 187/187/187
f 216/216/216 187/187/187 190/190/190
f 180/180/180 179/179/179 189/189/189
f 180/180/180 189/189/189 188/188/188
f 218/218/218 217/217/217 183/183/183
f 218/218/218 183/183/183 186/186/186
f 182/182/182 181/181/181 185/185/185
f 182/182/182 185/185/185 184/184/184
f 176/176/176 175/175/175 166/166/166
f 176/176/176 166/166/166 165/165/165
f 200/200/200 199/199/199 206/206/206
f 200/200/200 206/206/206 205/205/205
f 196/196/196 195/195/195 210/210/210
f 196/196/196 210/210/210 209/209/209
f 192/192/192 191/191/191 214/214/214
f 192/192/192 214/214/214 213/213/213
f 201/201/201 200/200/200 175/175/175
f 201/201/201 175/175/175 178/178/178
f 191/191/191 194/194/194 177/177/177
f 191/191/191 177/177/177 176/176/176
f 197/197/197 196/196/196 199/199/199
f 197/197/197 199/199/199 202/202/202
f 193/193/193 192/192/192 195/195/195
f 193/193/193 195/195/195 198/198/198
f 205/205/205 204/204/204 163/163/163
f 205/205/205 163/163/163 166/166/166
f 211/211/211 214/214/214 165/165/165
f 211/211/211 165/165/165 164/164/164
f 209/209/209 208/208/208 203/203/203
f 209/209/209 203/203/203 206/206/206
f 213/213/213 212/212/212 207/207/207
f 213/213/213 207/207/207 210/210/210
f 225/225/225 222/222/222 221/221/221
f 225/225/225 221/221/221 226/226/226
f 227/227/227 228/228/228 229/229/229
f 227/227/227 229/229/229 230/230/230
f 231/231/231 232/232/232 233/233/233
f 231/231/231 233/233/233 234/234/234
f 235/235/235 236/236/236 237/237/237
f 235/235/235 237/237/237 238/238/238
f 239/239/239 240/240/240 241/241/241
f 239/239/239 241/241/241 242/242/242
f 243/243/243 244/244/244 245/245/245
f 243/243/243 245/245/245 246/246/246
f 247/247/247 248/248/248 249/249/249
f 247/247/247 249/249/249 250/250/250
f 251/251/251 252/252/252 253/253/253
f 251/251/251 253/253/253 254/254/254
f 255/255/255 256/256/256 257/257/257
f 255/255/255 257/257/257 258/258/258
f 259/259/259 260/260/260 261/261/261
f 259/259/259 261/261/261 262/262/262
f 263/263/263 264/264/264 265/265/265
f 263/263/263 265/265/265 266/266/266
f 267/267/267 268/268/268 269/269/269
f 267/267/267 269/269/269 270/270/270
f 271/271/271 272/272/272 273/273/273
f 271/271/271 273/273/273 274/274/274
f 275/275/275 276/276/276 277/277/277
f 275/275/275 277/277/277 278/278/278
f 236/236/236 239/239/239 242/242/242
f 236/236/236 242/242/242 237/237/237
f 279/279/279 280/280/280 281/281/281
f 279/279/279 281/281/281 282/282/282
f 232/232/232 227/227/227 230/230/230
f 232/232/232 230/230/230 233/233/233
f 264/264/264 259/259/259 262/262/262
f 264/264/264 262/262/262 265/265/265
f 260/260/260 267/267/267 270/270/270
f 260/260/260 270/270/270 261/261/261
f 268/268/268 271/271/271 274/274/274
f 268/268/268 274/274/274 269/269/269
f 272/272/272 263/263/263 266/266/266
f 272/272/272 266/266/266 273/273/273
f 252/252/252 243/243/243 246/246/246
f 252/252/252 246/246/246 253/253/253
f 256/256/256 251/251/251 254/254/254
f 256/256/256 254/254/254 257/257/257
f 248/248/248 255/255/255 258/258/258
f 248/248/248 258/258/258 249/249/249
f 244/244/244 247/247/247 250/250/250
f 244/244/244 250/250/250 245/245/245
f 283/283/283 284/284/284 285/285/285
f 283/283/283 285/285/285 286/286/286
f 287/287/287 288/288/288 289/289/289
f 287/287/287 289/289/289 290/290/290
f 288/288/288 291/291/291 292/292/292
f 288/288/288 292/292/292 289/289/289
f 293/293/293 283/283/283 286/286/286
f 293/293/293 286/286/286 294/294/294
f 295/295/295 293/293/293 294/294/294
f 295/295/295 294/294/294 296/296/296
f 284/284/284 287/287/287 290/290/290
f 284/284/284 290/290/290 285/285/285
f 297/297/297 298/298/298 299/299/299
f 297/297/297 299/299/299 300/300/300
f 298/298/298 295/295/295 296/296/296
f 298/298/298 296/296/296 299/299/299
o Object_7
g Object_7
usemtl Exit_Traslucent
v -4956.9149 224.1926 -432.8405
v -4956.9149 237.4202 -432.8405
v -4976.3012 237.4202 -432.8405
v -4976.3012 224.1926 -432.8405
v -3669.7319 224.1926 1290.1464
v -3669.7319 237.4202 1290.1464
v -3669.7319 237.4202 1309.3491
v -3669.7319 224.1926 1309.3491
vt 0.73595 0.15370
vt 0.55778 0.15370
vt 0.55778 0.41382
vt 0.73595 0.41382
vt 0.55778 0.67393
vt 0.73595 0.67393
vt 0.73595 0.41381
vt 0.55778 0.41381
vn -0.0000 -0.0000 1.0000
vn -0.0000 -0.0000 1.0000
vn -0.0000 -0.0000 1.0000
vn -0.0000 -0.0000 1.0000
vn 1.0000 0.0000 0.0000
vn 1.0000 0.0000 0.0000
vn 1.0000 0.0000 0.0000
vn 1.0000 0.0000 0.0000
f 301/301/301 302/302/302 303/303/303
f 301/301/301 303/303/303 304/304/304
f 305/305/305 306/306/306 307/307/307
f 305/305/305 307/307/307 308/308/308
