# This file uses centimeters as units for non-parametric coordinates.

mtllib Prop_Wall_Vent_and_Socket.mtl
g default
v -389.000000 222.000000 -93.000000
v -389.000000 222.000000 -147.000000
v -389.000000 258.000000 -93.000000
v -389.000000 258.000000 -147.000000
v -391.000000 258.000000 -93.000000
v -391.000000 258.000000 -147.000000
v -391.000000 222.000000 -93.000000
v -391.000000 222.000000 -147.000000
vt 0.330000 0.000000
vt 0.663333 0.000000
vt 0.330000 0.250000
vt 0.663333 0.250000
vt 0.330000 0.500000
vt 0.663333 0.500000
vt 0.330000 0.750000
vt 0.663333 0.750000
vt 0.330000 1.000000
vt 0.663333 1.000000
vt 1.000000 0.000000
vt 1.000000 0.250000
vt 0.000000 0.000000
vt 0.000000 0.250000
vn 1.000000 0.000000 0.000000
vn 1.000000 0.000000 0.000000
vn 1.000000 0.000000 0.000000
vn 1.000000 0.000000 0.000000
vn 0.000000 1.000000 0.000000
vn 0.000000 1.000000 0.000000
vn 0.000000 1.000000 0.000000
vn 0.000000 1.000000 0.000000
vn -1.000000 0.000000 -0.000000
vn -1.000000 0.000000 -0.000000
vn -1.000000 0.000000 -0.000000
vn -1.000000 0.000000 -0.000000
vn 0.000000 -1.000000 0.000000
vn 0.000000 -1.000000 0.000000
vn 0.000000 -1.000000 0.000000
vn 0.000000 -1.000000 0.000000
vn 0.000000 0.000000 -1.000000
vn 0.000000 0.000000 -1.000000
vn 0.000000 0.000000 -1.000000
vn 0.000000 0.000000 -1.000000
vn 0.000000 0.000000 1.000000
vn 0.000000 0.000000 1.000000
vn 0.000000 0.000000 1.000000
vn 0.000000 0.000000 1.000000
s off
g Vent_Grille_Outer GRP_Wall_Props GRP_Props_Backrooms Backrooms_Level0_Master_GRP
usemtl M_Lamp_Housing_WhiteSG
f 1/1/1 2/2/2 4/4/3 3/3/4
f 3/3/5 4/4/6 6/6/7 5/5/8
f 5/5/9 6/6/10 8/8/11 7/7/12
f 7/7/13 8/8/14 2/10/15 1/9/16
f 2/2/17 8/11/18 6/12/19 4/4/20
f 7/13/21 1/1/22 3/3/23 5/14/24
g default
v -389.107180 225.080385 -96.000000
v -389.107180 225.080385 -144.000000
v -388.507180 226.119615 -96.000000
v -388.507180 226.119615 -144.000000
v -389.892820 226.919615 -96.000000
v -389.892820 226.919615 -144.000000
v -390.492820 225.880385 -96.000000
v -390.492820 225.880385 -144.000000
vt 0.330000 0.000000
vt 0.663333 0.000000
vt 0.330000 0.250000
vt 0.663333 0.250000
vt 0.330000 0.500000
vt 0.663333 0.500000
vt 0.330000 0.750000
vt 0.663333 0.750000
vt 0.330000 1.000000
vt 0.663333 1.000000
vt 1.000000 0.000000
vt 1.000000 0.250000
vt 0.000000 0.000000
vt 0.000000 0.250000
vn 0.866025 -0.500000 0.000000
vn 0.866025 -0.500000 0.000000
vn 0.866025 -0.500000 0.000000
vn 0.866025 -0.500000 0.000000
vn 0.500000 0.866025 0.000000
vn 0.500000 0.866025 0.000000
vn 0.500000 0.866025 0.000000
vn 0.500000 0.866025 0.000000
vn -0.866025 0.500000 -0.000000
vn -0.866025 0.500000 -0.000000
vn -0.866025 0.500000 -0.000000
vn -0.866025 0.500000 -0.000000
vn -0.500000 -0.866025 0.000000
vn -0.500000 -0.866025 0.000000
vn -0.500000 -0.866025 0.000000
vn -0.500000 -0.866025 0.000000
vn 0.000000 0.000000 -1.000000
vn 0.000000 0.000000 -1.000000
vn 0.000000 0.000000 -1.000000
vn 0.000000 0.000000 -1.000000
vn 0.000000 0.000000 1.000000
vn 0.000000 0.000000 1.000000
vn 0.000000 0.000000 1.000000
vn 0.000000 0.000000 1.000000
s off
g GRP_Wall_Props GRP_Props_Backrooms Backrooms_Level0_Master_GRP Vent_Blade_1
usemtl M_Lamp_Housing_WhiteSG
f 9/15/25 10/16/26 12/18/27 11/17/28
f 11/17/29 12/18/30 14/20/31 13/19/32
f 13/19/33 14/20/34 16/22/35 15/21/36
f 15/21/37 16/22/38 10/24/39 9/23/40
f 10/16/41 16/25/42 14/26/43 12/18/44
f 15/27/45 9/15/46 11/17/47 13/28/48
g default
v -389.107180 229.080385 -96.000000
v -389.107180 229.080385 -144.000000
v -388.507180 230.119615 -96.000000
v -388.507180 230.119615 -144.000000
v -389.892820 230.919615 -96.000000
v -389.892820 230.919615 -144.000000
v -390.492820 229.880385 -96.000000
v -390.492820 229.880385 -144.000000
vt 0.330000 0.000000
vt 0.663333 0.000000
vt 0.330000 0.250000
vt 0.663333 0.250000
vt 0.330000 0.500000
vt 0.663333 0.500000
vt 0.330000 0.750000
vt 0.663333 0.750000
vt 0.330000 1.000000
vt 0.663333 1.000000
vt 1.000000 0.000000
vt 1.000000 0.250000
vt 0.000000 0.000000
vt 0.000000 0.250000
vn 0.866025 -0.500000 0.000000
vn 0.866025 -0.500000 0.000000
vn 0.866025 -0.500000 0.000000
vn 0.866025 -0.500000 0.000000
vn 0.500000 0.866025 0.000000
vn 0.500000 0.866025 0.000000
vn 0.500000 0.866025 0.000000
vn 0.500000 0.866025 0.000000
vn -0.866025 0.500000 -0.000000
vn -0.866025 0.500000 -0.000000
vn -0.866025 0.500000 -0.000000
vn -0.866025 0.500000 -0.000000
vn -0.500000 -0.866025 0.000000
vn -0.500000 -0.866025 0.000000
vn -0.500000 -0.866025 0.000000
vn -0.500000 -0.866025 0.000000
vn 0.000000 0.000000 -1.000000
vn 0.000000 0.000000 -1.000000
vn 0.000000 0.000000 -1.000000
vn 0.000000 0.000000 -1.000000
vn 0.000000 0.000000 1.000000
vn 0.000000 0.000000 1.000000
vn 0.000000 0.000000 1.000000
vn 0.000000 0.000000 1.000000
s off
g GRP_Wall_Props GRP_Props_Backrooms Backrooms_Level0_Master_GRP Vent_Blade_2
usemtl M_Lamp_Housing_WhiteSG
f 17/29/49 18/30/50 20/32/51 19/31/52
f 19/31/53 20/32/54 22/34/55 21/33/56
f 21/33/57 22/34/58 24/36/59 23/35/60
f 23/35/61 24/36/62 18/38/63 17/37/64
f 18/30/65 24/39/66 22/40/67 20/32/68
f 23/41/69 17/29/70 19/31/71 21/42/72
g default
v -389.107180 233.080385 -96.000000
v -389.107180 233.080385 -144.000000
v -388.507180 234.119615 -96.000000
v -388.507180 234.119615 -144.000000
v -389.892820 234.919615 -96.000000
v -389.892820 234.919615 -144.000000
v -390.492820 233.880385 -96.000000
v -390.492820 233.880385 -144.000000
vt 0.330000 0.000000
vt 0.663333 0.000000
vt 0.330000 0.250000
vt 0.663333 0.250000
vt 0.330000 0.500000
vt 0.663333 0.500000
vt 0.330000 0.750000
vt 0.663333 0.750000
vt 0.330000 1.000000
vt 0.663333 1.000000
vt 1.000000 0.000000
vt 1.000000 0.250000
vt 0.000000 0.000000
vt 0.000000 0.250000
vn 0.866025 -0.500000 0.000000
vn 0.866025 -0.500000 0.000000
vn 0.866025 -0.500000 0.000000
vn 0.866025 -0.500000 0.000000
vn 0.500000 0.866025 0.000000
vn 0.500000 0.866025 0.000000
vn 0.500000 0.866025 0.000000
vn 0.500000 0.866025 0.000000
vn -0.866025 0.500000 -0.000000
vn -0.866025 0.500000 -0.000000
vn -0.866025 0.500000 -0.000000
vn -0.866025 0.500000 -0.000000
vn -0.500000 -0.866025 0.000000
vn -0.500000 -0.866025 0.000000
vn -0.500000 -0.866025 0.000000
vn -0.500000 -0.866025 0.000000
vn 0.000000 0.000000 -1.000000
vn 0.000000 0.000000 -1.000000
vn 0.000000 0.000000 -1.000000
vn 0.000000 0.000000 -1.000000
vn 0.000000 0.000000 1.000000
vn 0.000000 0.000000 1.000000
vn 0.000000 0.000000 1.000000
vn 0.000000 0.000000 1.000000
s off
g GRP_Wall_Props GRP_Props_Backrooms Backrooms_Level0_Master_GRP Vent_Blade_3
usemtl M_Lamp_Housing_WhiteSG
f 25/43/73 26/44/74 28/46/75 27/45/76
f 27/45/77 28/46/78 30/48/79 29/47/80
f 29/47/81 30/48/82 32/50/83 31/49/84
f 31/49/85 32/50/86 26/52/87 25/51/88
f 26/44/89 32/53/90 30/54/91 28/46/92
f 31/55/93 25/43/94 27/45/95 29/56/96
g default
v -389.107180 237.080385 -96.000000
v -389.107180 237.080385 -144.000000
v -388.507180 238.119615 -96.000000
v -388.507180 238.119615 -144.000000
v -389.892820 238.919615 -96.000000
v -389.892820 238.919615 -144.000000
v -390.492820 237.880385 -96.000000
v -390.492820 237.880385 -144.000000
vt 0.330000 0.000000
vt 0.663333 0.000000
vt 0.330000 0.250000
vt 0.663333 0.250000
vt 0.330000 0.500000
vt 0.663333 0.500000
vt 0.330000 0.750000
vt 0.663333 0.750000
vt 0.330000 1.000000
vt 0.663333 1.000000
vt 1.000000 0.000000
vt 1.000000 0.250000
vt 0.000000 0.000000
vt 0.000000 0.250000
vn 0.866025 -0.500000 0.000000
vn 0.866025 -0.500000 0.000000
vn 0.866025 -0.500000 0.000000
vn 0.866025 -0.500000 0.000000
vn 0.500000 0.866025 0.000000
vn 0.500000 0.866025 0.000000
vn 0.500000 0.866025 0.000000
vn 0.500000 0.866025 0.000000
vn -0.866025 0.500000 -0.000000
vn -0.866025 0.500000 -0.000000
vn -0.866025 0.500000 -0.000000
vn -0.866025 0.500000 -0.000000
vn -0.500000 -0.866025 0.000000
vn -0.500000 -0.866025 0.000000
vn -0.500000 -0.866025 0.000000
vn -0.500000 -0.866025 0.000000
vn 0.000000 0.000000 -1.000000
vn 0.000000 0.000000 -1.000000
vn 0.000000 0.000000 -1.000000
vn 0.000000 0.000000 -1.000000
vn 0.000000 0.000000 1.000000
vn 0.000000 0.000000 1.000000
vn 0.000000 0.000000 1.000000
vn 0.000000 0.000000 1.000000
s off
g GRP_Wall_Props GRP_Props_Backrooms Backrooms_Level0_Master_GRP Vent_Blade_4
usemtl M_Lamp_Housing_WhiteSG
f 33/57/97 34/58/98 36/60/99 35/59/100
f 35/59/101 36/60/102 38/62/103 37/61/104
f 37/61/105 38/62/106 40/64/107 39/63/108
f 39/63/109 40/64/110 34/66/111 33/65/112
f 34/58/113 40/67/114 38/68/115 36/60/116
f 39/69/117 33/57/118 35/59/119 37/70/120
g default
v -389.107180 241.080385 -96.000000
v -389.107180 241.080385 -144.000000
v -388.507180 242.119615 -96.000000
v -388.507180 242.119615 -144.000000
v -389.892820 242.919615 -96.000000
v -389.892820 242.919615 -144.000000
v -390.492820 241.880385 -96.000000
v -390.492820 241.880385 -144.000000
vt 0.330000 0.000000
vt 0.663333 0.000000
vt 0.330000 0.250000
vt 0.663333 0.250000
vt 0.330000 0.500000
vt 0.663333 0.500000
vt 0.330000 0.750000
vt 0.663333 0.750000
vt 0.330000 1.000000
vt 0.663333 1.000000
vt 1.000000 0.000000
vt 1.000000 0.250000
vt 0.000000 0.000000
vt 0.000000 0.250000
vn 0.866025 -0.500000 0.000000
vn 0.866025 -0.500000 0.000000
vn 0.866025 -0.500000 0.000000
vn 0.866025 -0.500000 0.000000
vn 0.500000 0.866025 0.000000
vn 0.500000 0.866025 0.000000
vn 0.500000 0.866025 0.000000
vn 0.500000 0.866025 0.000000
vn -0.866025 0.500000 -0.000000
vn -0.866025 0.500000 -0.000000
vn -0.866025 0.500000 -0.000000
vn -0.866025 0.500000 -0.000000
vn -0.500000 -0.866025 0.000000
vn -0.500000 -0.866025 0.000000
vn -0.500000 -0.866025 0.000000
vn -0.500000 -0.866025 0.000000
vn 0.000000 0.000000 -1.000000
vn 0.000000 0.000000 -1.000000
vn 0.000000 0.000000 -1.000000
vn 0.000000 0.000000 -1.000000
vn 0.000000 0.000000 1.000000
vn 0.000000 0.000000 1.000000
vn 0.000000 0.000000 1.000000
vn 0.000000 0.000000 1.000000
s off
g GRP_Wall_Props GRP_Props_Backrooms Backrooms_Level0_Master_GRP Vent_Blade_5
usemtl M_Lamp_Housing_WhiteSG
f 41/71/121 42/72/122 44/74/123 43/73/124
f 43/73/125 44/74/126 46/76/127 45/75/128
f 45/75/129 46/76/130 48/78/131 47/77/132
f 47/77/133 48/78/134 42/80/135 41/79/136
f 42/72/137 48/81/138 46/82/139 44/74/140
f 47/83/141 41/71/142 43/73/143 45/84/144
g default
v -389.107180 245.080385 -96.000000
v -389.107180 245.080385 -144.000000
v -388.507180 246.119615 -96.000000
v -388.507180 246.119615 -144.000000
v -389.892820 246.919615 -96.000000
v -389.892820 246.919615 -144.000000
v -390.492820 245.880385 -96.000000
v -390.492820 245.880385 -144.000000
vt 0.330000 0.000000
vt 0.663333 0.000000
vt 0.330000 0.250000
vt 0.663333 0.250000
vt 0.330000 0.500000
vt 0.663333 0.500000
vt 0.330000 0.750000
vt 0.663333 0.750000
vt 0.330000 1.000000
vt 0.663333 1.000000
vt 1.000000 0.000000
vt 1.000000 0.250000
vt 0.000000 0.000000
vt 0.000000 0.250000
vn 0.866025 -0.500000 0.000000
vn 0.866025 -0.500000 0.000000
vn 0.866025 -0.500000 0.000000
vn 0.866025 -0.500000 0.000000
vn 0.500000 0.866025 0.000000
vn 0.500000 0.866025 0.000000
vn 0.500000 0.866025 0.000000
vn 0.500000 0.866025 0.000000
vn -0.866025 0.500000 -0.000000
vn -0.866025 0.500000 -0.000000
vn -0.866025 0.500000 -0.000000
vn -0.866025 0.500000 -0.000000
vn -0.500000 -0.866025 0.000000
vn -0.500000 -0.866025 0.000000
vn -0.500000 -0.866025 0.000000
vn -0.500000 -0.866025 0.000000
vn 0.000000 0.000000 -1.000000
vn 0.000000 0.000000 -1.000000
vn 0.000000 0.000000 -1.000000
vn 0.000000 0.000000 -1.000000
vn 0.000000 0.000000 1.000000
vn 0.000000 0.000000 1.000000
vn 0.000000 0.000000 1.000000
vn 0.000000 0.000000 1.000000
s off
g GRP_Wall_Props GRP_Props_Backrooms Backrooms_Level0_Master_GRP Vent_Blade_6
usemtl M_Lamp_Housing_WhiteSG
f 49/85/145 50/86/146 52/88/147 51/87/148
f 51/87/149 52/88/150 54/90/151 53/89/152
f 53/89/153 54/90/154 56/92/155 55/91/156
f 55/91/157 56/92/158 50/94/159 49/93/160
f 50/86/161 56/95/162 54/96/163 52/88/164
f 55/97/165 49/85/166 51/87/167 53/98/168
g default
v -389.107180 249.080385 -96.000000
v -389.107180 249.080385 -144.000000
v -388.507180 250.119615 -96.000000
v -388.507180 250.119615 -144.000000
v -389.892820 250.919615 -96.000000
v -389.892820 250.919615 -144.000000
v -390.492820 249.880385 -96.000000
v -390.492820 249.880385 -144.000000
vt 0.330000 0.000000
vt 0.663333 0.000000
vt 0.330000 0.250000
vt 0.663333 0.250000
vt 0.330000 0.500000
vt 0.663333 0.500000
vt 0.330000 0.750000
vt 0.663333 0.750000
vt 0.330000 1.000000
vt 0.663333 1.000000
vt 1.000000 0.000000
vt 1.000000 0.250000
vt 0.000000 0.000000
vt 0.000000 0.250000
vn 0.866025 -0.500000 0.000000
vn 0.866025 -0.500000 0.000000
vn 0.866025 -0.500000 0.000000
vn 0.866025 -0.500000 0.000000
vn 0.500000 0.866025 0.000000
vn 0.500000 0.866025 0.000000
vn 0.500000 0.866025 0.000000
vn 0.500000 0.866025 0.000000
vn -0.866025 0.500000 -0.000000
vn -0.866025 0.500000 -0.000000
vn -0.866025 0.500000 -0.000000
vn -0.866025 0.500000 -0.000000
vn -0.500000 -0.866025 0.000000
vn -0.500000 -0.866025 0.000000
vn -0.500000 -0.866025 0.000000
vn -0.500000 -0.866025 0.000000
vn 0.000000 0.000000 -1.000000
vn 0.000000 0.000000 -1.000000
vn 0.000000 0.000000 -1.000000
vn 0.000000 0.000000 -1.000000
vn 0.000000 0.000000 1.000000
vn 0.000000 0.000000 1.000000
vn 0.000000 0.000000 1.000000
vn 0.000000 0.000000 1.000000
s off
g GRP_Wall_Props GRP_Props_Backrooms Backrooms_Level0_Master_GRP Vent_Blade_7
usemtl M_Lamp_Housing_WhiteSG
f 57/99/169 58/100/170 60/102/171 59/101/172
f 59/101/173 60/102/174 62/104/175 61/103/176
f 61/103/177 62/104/178 64/106/179 63/105/180
f 63/105/181 64/106/182 58/108/183 57/107/184
f 58/100/185 64/109/186 62/110/187 60/102/188
f 63/111/189 57/99/190 59/101/191 61/112/192
g default
v -389.107180 253.080385 -96.000000
v -389.107180 253.080385 -144.000000
v -388.507180 254.119615 -96.000000
v -388.507180 254.119615 -144.000000
v -389.892820 254.919615 -96.000000
v -389.892820 254.919615 -144.000000
v -390.492820 253.880385 -96.000000
v -390.492820 253.880385 -144.000000
vt 0.330000 0.000000
vt 0.663333 0.000000
vt 0.330000 0.250000
vt 0.663333 0.250000
vt 0.330000 0.500000
vt 0.663333 0.500000
vt 0.330000 0.750000
vt 0.663333 0.750000
vt 0.330000 1.000000
vt 0.663333 1.000000
vt 1.000000 0.000000
vt 1.000000 0.250000
vt 0.000000 0.000000
vt 0.000000 0.250000
vn 0.866025 -0.500000 0.000000
vn 0.866025 -0.500000 0.000000
vn 0.866025 -0.500000 0.000000
vn 0.866025 -0.500000 0.000000
vn 0.500000 0.866025 0.000000
vn 0.500000 0.866025 0.000000
vn 0.500000 0.866025 0.000000
vn 0.500000 0.866025 0.000000
vn -0.866025 0.500000 -0.000000
vn -0.866025 0.500000 -0.000000
vn -0.866025 0.500000 -0.000000
vn -0.866025 0.500000 -0.000000
vn -0.500000 -0.866025 0.000000
vn -0.500000 -0.866025 0.000000
vn -0.500000 -0.866025 0.000000
vn -0.500000 -0.866025 0.000000
vn 0.000000 0.000000 -1.000000
vn 0.000000 0.000000 -1.000000
vn 0.000000 0.000000 -1.000000
vn 0.000000 0.000000 -1.000000
vn 0.000000 0.000000 1.000000
vn 0.000000 0.000000 1.000000
vn 0.000000 0.000000 1.000000
vn 0.000000 0.000000 1.000000
s off
g GRP_Wall_Props GRP_Props_Backrooms Backrooms_Level0_Master_GRP Vent_Blade_8
usemtl M_Lamp_Housing_WhiteSG
f 65/113/193 66/114/194 68/116/195 67/115/196
f 67/115/197 68/116/198 70/118/199 69/117/200
f 69/117/201 70/118/202 72/120/203 71/119/204
f 71/119/205 72/120/206 66/122/207 65/121/208
f 66/114/209 72/123/210 70/124/211 68/116/212
f 71/125/213 65/113/214 67/115/215 69/126/216
g default
v -389.435996 32.010543 84.289457
v -389.435996 32.000000 84.264004
v -389.410543 32.010543 84.264004
v -389.400000 32.035996 84.264004
v -389.410543 32.035996 84.289457
v -389.435996 32.035996 84.300000
v -389.435996 32.010543 75.710543
v -389.435996 32.035996 75.700000
v -389.410543 32.035996 75.710543
v -389.400000 32.035996 75.735996
v -389.410543 32.010543 75.735996
v -389.435996 32.000000 75.735996
v -389.435996 43.989457 84.289457
v -389.435996 43.964004 84.300000
v -389.410543 43.964004 84.289457
v -389.400000 43.964004 84.264004
v -389.410543 43.989457 84.264004
v -389.435996 44.000000 84.264004
v -389.435996 43.989457 75.710543
v -389.435996 44.000000 75.735996
v -389.410543 43.989457 75.735996
v -389.400000 43.964004 75.735996
v -389.410543 43.964004 75.710543
v -389.435996 43.964004 75.700000
v -390.589457 43.964004 84.289457
v -390.564004 43.964004 84.300000
v -390.564004 43.989457 84.289457
v -390.564004 44.000000 84.264004
v -390.589457 43.989457 84.264004
v -390.600000 43.964004 84.264004
v -390.589457 43.964004 75.710543
v -390.600000 43.964004 75.735996
v -390.589457 43.989457 75.735996
v -390.564004 44.000000 75.735996
v -390.564004 43.989457 75.710543
v -390.564004 43.964004 75.700000
v -390.564004 32.010543 84.289457
v -390.564004 32.035996 84.300000
v -390.589457 32.035996 84.289457
v -390.600000 32.035996 84.264004
v -390.589457 32.010543 84.264004
v -390.564004 32.000000 84.264004
v -390.564004 32.010543 75.710543
v -390.564004 32.000000 75.735996
v -390.589457 32.010543 75.735996
v -390.600000 32.035996 75.735996
v -390.589457 32.035996 75.710543
v -390.564004 32.035996 75.700000
vt 0.331395 0.992501
vt 0.331395 0.757499
vt 0.320103 0.000749
vt 0.009900 0.000749
vt 0.331395 0.000750
vt 0.661938 0.000750
vt 0.331395 0.992501
vt 0.661938 0.992501
vt 0.320103 0.000749
vt 0.320101 0.249250
vt 0.331395 0.000750
vt 0.331395 0.249250
vt 0.673433 0.000749
vt 0.989903 0.000749
vt 0.661938 0.992501
vt 0.661938 0.757499
vt 0.661938 0.000750
vt 0.661938 0.249250
vt 0.673433 0.000749
vt 0.673432 0.249250
vt 0.320101 0.249250
vt 0.009899 0.249250
vt 0.331395 0.257499
vt 0.331395 0.492501
vt 0.331395 0.257499
vt 0.661938 0.257499
vt 0.331395 0.249250
vt 0.661938 0.249250
vt 0.661938 0.257499
vt 0.661938 0.492501
vt 0.673432 0.249250
vt 0.989901 0.249250
vt 0.009899 0.249250
vt 0.009900 0.000749
vt 0.331395 0.500750
vt 0.331395 0.749250
vt 0.331395 0.500750
vt 0.661938 0.500750
vt 0.331395 0.492501
vt 0.661938 0.492501
vt 0.661938 0.500750
vt 0.661938 0.749250
vt 0.989901 0.249250
vt 0.989903 0.000749
vt 0.331395 0.757499
vt 0.661938 0.757499
vt 0.331395 0.749250
vt 0.661938 0.749250
vt 0.331395 0.000750
vt 0.661938 0.000750
vt 0.661938 0.249250
vt 0.331395 0.249250
vt 0.331395 0.257499
vt 0.661938 0.257499
vt 0.661938 0.492501
vt 0.331395 0.492501
vt 0.331395 0.500750
vt 0.661938 0.500750
vt 0.661938 0.749250
vt 0.331395 0.749250
vt 0.331395 0.757499
vt 0.661938 0.757499
vt 0.661938 0.992501
vt 0.331395 0.992501
vt 0.673433 0.000749
vt 0.989903 0.000749
vt 0.989901 0.249250
vt 0.673432 0.249250
vt 0.009900 0.000749
vt 0.320103 0.000749
vt 0.320101 0.249250
vt 0.009899 0.249250
vt 0.331395 -0.000000
vt 0.331395 0.000750
vt 0.320103 0.000749
vt 0.673433 0.000749
vt 0.661938 0.000750
vt 0.661938 -0.000000
vt 0.320101 0.249250
vt 0.331395 0.249250
vt 0.331395 0.257499
vt 0.661938 0.257499
vt 0.661938 0.249250
vt 0.673432 0.249250
vt 0.330000 0.492501
vt 0.331395 0.492501
vt 0.331395 0.500750
vt 0.661938 0.500750
vt 0.661938 0.492501
vt 0.663333 0.492501
vt 0.330000 0.749250
vt 0.331395 0.749250
vt 0.331395 0.757499
vt 0.661938 0.757499
vt 0.661938 0.749250
vt 0.663333 0.749250
vt 0.323909 0.000017
vt 0.331363 0.986836
vt 0.332456 -0.000000
vt 0.332456 0.992501
vt 0.325749 0.000751
vt 0.669575 0.000017
vt 0.661971 0.986836
vt 0.667683 0.000750
vt 0.660877 0.992501
vt 0.660877 -0.000000
vt 0.330000 0.250000
vt 0.325759 0.249250
vt 0.331399 0.253375
vt 0.663333 0.250000
vt 0.661937 0.253363
vt 0.667685 0.249249
vt 0.330000 0.493091
vt 0.009899 0.248679
vt 0.330000 0.486719
vt 0.017531 0.249268
vt 0.331399 0.496625
vt 0.663333 0.493091
vt 0.989901 0.248679
vt 0.661937 0.496613
vt 0.982115 0.249268
vt 0.663333 0.486719
vt 0.017386 0.000731
vt 0.330032 0.754914
vt 0.330000 0.748660
vt 0.009900 0.001320
vt 0.331399 0.753375
vt 0.663301 0.754915
vt 0.982266 0.000731
vt 0.661937 0.753373
vt 0.989903 0.001320
vt 0.663333 0.748660
vn 0.000000 -0.923876 0.382693
vn 0.000000 -0.923876 0.382693
vn 0.000000 -0.923876 0.382693
vn 0.000000 -0.923876 0.382693
vn 0.000000 -0.382689 0.923877
vn 0.000000 -0.382689 0.923877
vn 0.000000 -0.382689 0.923877
vn 0.000000 -0.382689 0.923877
vn 0.923878 -0.382687 0.000000
vn 0.923878 -0.382687 0.000000
vn 0.923878 -0.382687 0.000000
vn 0.923878 -0.382687 0.000000
vn 0.382687 -0.923878 0.000000
vn 0.382687 -0.923878 0.000000
vn 0.382687 -0.923878 0.000000
vn 0.382687 -0.923878 0.000000
vn 0.382691 0.000000 0.923876
vn 0.382691 0.000000 0.923876
vn 0.382691 0.000000 0.923876
vn 0.382691 0.000000 0.923876
vn 0.923878 0.000000 0.382686
vn 0.923878 0.000000 0.382686
vn 0.923878 0.000000 0.382686
vn 0.923878 0.000000 0.382686
vn 0.000000 -0.382689 -0.923877
vn 0.000000 -0.382689 -0.923877
vn 0.000000 -0.382689 -0.923877
vn 0.000000 -0.382689 -0.923877
vn 0.000000 -0.923876 -0.382693
vn 0.000000 -0.923876 -0.382693
vn 0.000000 -0.923876 -0.382693
vn 0.000000 -0.923876 -0.382693
vn 0.923878 0.000000 -0.382686
vn 0.923878 0.000000 -0.382686
vn 0.923878 0.000000 -0.382686
vn 0.923878 0.000000 -0.382686
vn 0.382691 0.000000 -0.923876
vn 0.382691 0.000000 -0.923876
vn 0.382691 0.000000 -0.923876
vn 0.382691 0.000000 -0.923876
vn 0.000000 0.382689 0.923877
vn 0.000000 0.382689 0.923877
vn 0.000000 0.382689 0.923877
vn 0.000000 0.382689 0.923877
vn 0.000000 0.923876 0.382693
vn 0.000000 0.923876 0.382693
vn 0.000000 0.923876 0.382693
vn 0.000000 0.923876 0.382693
vn 0.382687 0.923878 0.000000
vn 0.382687 0.923878 0.000000
vn 0.382687 0.923878 0.000000
vn 0.382687 0.923878 0.000000
vn 0.923878 0.382687 0.000000
vn 0.923878 0.382687 0.000000
vn 0.923878 0.382687 0.000000
vn 0.923878 0.382687 0.000000
vn 0.000000 0.923876 -0.382693
vn 0.000000 0.923876 -0.382693
vn 0.000000 0.923876 -0.382693
vn 0.000000 0.923876 -0.382693
vn 0.000000 0.382689 -0.923877
vn 0.000000 0.382689 -0.923877
vn 0.000000 0.382689 -0.923877
vn 0.000000 0.382689 -0.923877
vn -0.382691 0.000000 0.923876
vn -0.382691 0.000000 0.923876
vn -0.382691 0.000000 0.923876
vn -0.382691 0.000000 0.923876
vn -0.923878 0.000000 0.382686
vn -0.923878 0.000000 0.382686
vn -0.923878 0.000000 0.382686
vn -0.923878 0.000000 0.382686
vn -0.923878 0.382687 -0.000000
vn -0.923878 0.382687 -0.000000
vn -0.923878 0.382687 -0.000000
vn -0.923878 0.382687 -0.000000
vn -0.382687 0.923878 -0.000000
vn -0.382687 0.923878 -0.000000
vn -0.382687 0.923878 -0.000000
vn -0.382687 0.923878 -0.000000
vn -0.923878 0.000000 -0.382686
vn -0.923878 0.000000 -0.382686
vn -0.923878 0.000000 -0.382686
vn -0.923878 0.000000 -0.382686
vn -0.382691 0.000000 -0.923876
vn -0.382691 0.000000 -0.923876
vn -0.382691 0.000000 -0.923876
vn -0.382691 0.000000 -0.923876
vn -0.382687 -0.923878 0.000000
vn -0.382687 -0.923878 0.000000
vn -0.382687 -0.923878 0.000000
vn -0.382687 -0.923878 0.000000
vn -0.923878 -0.382687 0.000000
vn -0.923878 -0.382687 0.000000
vn -0.923878 -0.382687 0.000000
vn -0.923878 -0.382687 0.000000
vn 1.000000 0.000000 0.000000
vn 1.000000 0.000000 0.000000
vn 1.000000 0.000000 0.000000
vn 1.000000 0.000000 0.000000
vn 0.000000 1.000000 0.000000
vn 0.000000 1.000000 0.000000
vn 0.000000 1.000000 0.000000
vn 0.000000 1.000000 0.000000
vn -1.000000 0.000000 -0.000000
vn -1.000000 0.000000 -0.000000
vn -1.000000 0.000000 -0.000000
vn -1.000000 0.000000 -0.000000
vn 0.000000 -1.000000 0.000000
vn 0.000000 -1.000000 0.000000
vn 0.000000 -1.000000 0.000000
vn 0.000000 -1.000000 0.000000
vn 0.000000 0.000000 -1.000000
vn 0.000000 0.000000 -1.000000
vn 0.000000 0.000000 -1.000000
vn 0.000000 0.000000 -1.000000
vn 0.000000 0.000000 1.000000
vn 0.000000 0.000000 1.000000
vn 0.000000 0.000000 1.000000
vn 0.000000 0.000000 1.000000
vn 0.577354 -0.577345 0.577352
vn 0.577354 -0.577345 0.577352
vn 0.577354 -0.577345 0.577352
vn 0.577354 -0.577345 0.577352
vn 0.577354 -0.577345 0.577352
vn 0.577354 -0.577345 0.577352
vn 0.577353 -0.577348 -0.577350
vn 0.577353 -0.577348 -0.577350
vn 0.577353 -0.577348 -0.577350
vn 0.577353 -0.577348 -0.577350
vn 0.577353 -0.577348 -0.577350
vn 0.577353 -0.577348 -0.577350
vn 0.577353 0.577348 0.577350
vn 0.577353 0.577348 0.577350
vn 0.577353 0.577348 0.577350
vn 0.577353 0.577348 0.577350
vn 0.577353 0.577348 0.577350
vn 0.577353 0.577348 0.577350
vn 0.577354 0.577345 -0.577352
vn 0.577354 0.577345 -0.577352
vn 0.577354 0.577345 -0.577352
vn 0.577354 0.577345 -0.577352
vn 0.577354 0.577345 -0.577352
vn 0.577354 0.577345 -0.577352
vn -0.577355 0.577345 0.577351
vn -0.577355 0.577345 0.577351
vn -0.577355 0.577345 0.577351
vn -0.577355 0.577345 0.577351
vn -0.577355 0.577345 0.577351
vn -0.577355 0.577345 0.577351
vn -0.577354 0.577345 -0.577351
vn -0.577354 0.577345 -0.577351
vn -0.577354 0.577345 -0.577351
vn -0.577354 0.577345 -0.577351
vn -0.577354 0.577345 -0.577352
vn -0.577354 0.577345 -0.577351
vn -0.577353 -0.577348 0.577350
vn -0.577353 -0.577348 0.577350
vn -0.577353 -0.577348 0.577350
vn -0.577353 -0.577348 0.577350
vn -0.577353 -0.577348 0.577350
vn -0.577353 -0.577348 0.577350
vn -0.577354 -0.577345 -0.577352
vn -0.577354 -0.577345 -0.577352
vn -0.577354 -0.577345 -0.577352
vn -0.577354 -0.577345 -0.577352
vn -0.577354 -0.577345 -0.577352
vn -0.577354 -0.577345 -0.577352
s off
g GRP_Wall_Props GRP_Props_Backrooms Backrooms_Level0_Master_GRP Power_Socket_Plate
usemtl M_Plastic_WallSocketSG
f 74/133/217 73/224/218 109/250/219 114/187/220
f 73/223/221 78/196/222 110/160/223 109/249/224
f 76/137/225 75/225/226 83/232/227 82/176/228
f 75/226/229 74/133/230 84/141/231 83/231/232
f 78/196/233 77/227/234 87/234/235 86/197/236
f 77/227/237 76/137/238 88/153/239 87/234/240
f 80/145/241 79/228/242 115/255/243 120/170/244
f 79/229/245 84/141/246 116/172/247 115/254/248
f 82/176/249 81/230/250 95/238/251 94/154/252
f 81/230/253 80/145/254 96/157/255 95/238/256
f 86/197/257 85/233/258 99/242/259 98/198/260
f 85/233/261 90/179/262 100/165/263 99/241/264
f 90/179/265 89/235/266 93/237/267 92/180/268
f 89/235/269 88/153/270 94/154/271 93/237/272
f 92/180/273 91/236/274 107/248/275 106/166/276
f 91/236/277 96/157/278 108/169/279 107/247/280
f 98/198/281 97/240/282 111/252/283 110/160/284
f 97/239/285 102/183/286 112/173/287 111/251/288
f 102/183/289 101/243/290 105/246/291 104/184/292
f 101/243/293 100/165/294 106/166/295 105/246/296
f 104/184/297 103/244/298 119/258/299 118/174/300
f 103/245/301 108/169/302 120/170/303 119/257/304
f 114/187/305 113/253/306 117/256/307 116/172/308
f 113/253/309 112/173/310 118/174/311 117/256/312
f 76/137/313 82/176/314 94/154/315 88/153/316
f 90/179/317 92/180/318 106/166/319 100/165/320
f 102/183/321 104/184/322 118/174/323 112/173/324
f 114/187/325 116/172/326 84/141/327 74/133/328
f 80/145/329 120/170/330 108/169/331 96/157/332
f 110/160/333 78/196/334 86/197/335 98/198/336
f 73/223/337 74/199/338 75/225/339 76/137/340 77/227/341 78/196/342
f 79/228/343 80/145/344 81/230/345 82/176/346 83/232/347 84/204/348
f 85/233/349 86/197/350 87/234/351 88/153/352 89/235/353 90/179/354
f 91/236/355 92/180/356 93/237/357 94/154/358 95/238/359 96/157/360
f 97/239/361 98/211/362 99/241/363 100/165/364 101/243/365 102/183/366
f 103/244/367 104/184/368 105/246/369 106/166/370 107/248/371 108/216/372
f 109/250/373 110/217/374 111/251/375 112/173/376 113/253/377 114/187/378
f 115/254/379 116/172/380 117/256/381 118/174/382 119/258/383 120/222/384
g default
v -389.000000 222.000000 -93.000000
v -389.000000 222.000000 -147.000000
v -389.000000 258.000000 -93.000000
v -389.000000 258.000000 -147.000000
v -391.000000 258.000000 -93.000000
v -391.000000 258.000000 -147.000000
v -391.000000 222.000000 -93.000000
v -391.000000 222.000000 -147.000000
vt 0.330000 0.000000
vt 0.663333 0.000000
vt 0.330000 0.250000
vt 0.663333 0.250000
vt 0.330000 0.500000
vt 0.663333 0.500000
vt 0.330000 0.750000
vt 0.663333 0.750000
vt 0.330000 1.000000
vt 0.663333 1.000000
vt 1.000000 0.000000
vt 1.000000 0.250000
vt 0.000000 0.000000
vt 0.000000 0.250000
vn 1.000000 0.000000 0.000000
vn 1.000000 0.000000 0.000000
vn 1.000000 0.000000 0.000000
vn 1.000000 0.000000 0.000000
vn 0.000000 1.000000 0.000000
vn 0.000000 1.000000 0.000000
vn 0.000000 1.000000 0.000000
vn 0.000000 1.000000 0.000000
vn -1.000000 0.000000 -0.000000
vn -1.000000 0.000000 -0.000000
vn -1.000000 0.000000 -0.000000
vn -1.000000 0.000000 -0.000000
vn 0.000000 -1.000000 0.000000
vn 0.000000 -1.000000 0.000000
vn 0.000000 -1.000000 0.000000
vn 0.000000 -1.000000 0.000000
vn 0.000000 0.000000 -1.000000
vn 0.000000 0.000000 -1.000000
vn 0.000000 0.000000 -1.000000
vn 0.000000 0.000000 -1.000000
vn 0.000000 0.000000 1.000000
vn 0.000000 0.000000 1.000000
vn 0.000000 0.000000 1.000000
vn 0.000000 0.000000 1.000000
s off
g Vent_Grille_Outer GRP_Wall_Props GRP_Props_Backrooms Backrooms_Level0_Master_GRP
f 121/259/385 122/260/386 124/262/387 123/261/388
f 123/261/389 124/262/390 126/264/391 125/263/392
f 125/263/393 126/264/394 128/266/395 127/265/396
f 127/265/397 128/266/398 122/268/399 121/267/400
f 122/260/401 128/269/402 126/270/403 124/262/404
f 127/271/405 121/259/406 123/261/407 125/272/408
g default
v -389.000000 222.000000 -93.000000
v -389.000000 222.000000 -147.000000
v -389.000000 258.000000 -93.000000
v -389.000000 258.000000 -147.000000
v -391.000000 258.000000 -93.000000
v -391.000000 258.000000 -147.000000
v -391.000000 222.000000 -93.000000
v -391.000000 222.000000 -147.000000
vt 0.330000 0.000000
vt 0.663333 0.000000
vt 0.330000 0.250000
vt 0.663333 0.250000
vt 0.330000 0.500000
vt 0.663333 0.500000
vt 0.330000 0.750000
vt 0.663333 0.750000
vt 0.330000 1.000000
vt 0.663333 1.000000
vt 1.000000 0.000000
vt 1.000000 0.250000
vt 0.000000 0.000000
vt 0.000000 0.250000
vn 1.000000 0.000000 0.000000
vn 1.000000 0.000000 0.000000
vn 1.000000 0.000000 0.000000
vn 1.000000 0.000000 0.000000
vn 0.000000 1.000000 0.000000
vn 0.000000 1.000000 0.000000
vn 0.000000 1.000000 0.000000
vn 0.000000 1.000000 0.000000
vn -1.000000 0.000000 -0.000000
vn -1.000000 0.000000 -0.000000
vn -1.000000 0.000000 -0.000000
vn -1.000000 0.000000 -0.000000
vn 0.000000 -1.000000 0.000000
vn 0.000000 -1.000000 0.000000
vn 0.000000 -1.000000 0.000000
vn 0.000000 -1.000000 0.000000
vn 0.000000 0.000000 -1.000000
vn 0.000000 0.000000 -1.000000
vn 0.000000 0.000000 -1.000000
vn 0.000000 0.000000 -1.000000
vn 0.000000 0.000000 1.000000
vn 0.000000 0.000000 1.000000
vn 0.000000 0.000000 1.000000
vn 0.000000 0.000000 1.000000
s off
g Vent_Grille_Outer GRP_Wall_Props GRP_Props_Backrooms Backrooms_Level0_Master_GRP
f 129/273/409 130/274/410 132/276/411 131/275/412
f 131/275/413 132/276/414 134/278/415 133/277/416
f 133/277/417 134/278/418 136/280/419 135/279/420
f 135/279/421 136/280/422 130/282/423 129/281/424
f 130/274/425 136/283/426 134/284/427 132/276/428
f 135/285/429 129/273/430 131/275/431 133/286/432
g default
v -389.107180 225.080385 -96.000000
v -389.107180 225.080385 -144.000000
v -388.507180 226.119615 -96.000000
v -388.507180 226.119615 -144.000000
v -389.892820 226.919615 -96.000000
v -389.892820 226.919615 -144.000000
v -390.492820 225.880385 -96.000000
v -390.492820 225.880385 -144.000000
vt 0.330000 0.000000
vt 0.663333 0.000000
vt 0.330000 0.250000
vt 0.663333 0.250000
vt 0.330000 0.500000
vt 0.663333 0.500000
vt 0.330000 0.750000
vt 0.663333 0.750000
vt 0.330000 1.000000
vt 0.663333 1.000000
vt 1.000000 0.000000
vt 1.000000 0.250000
vt 0.000000 0.000000
vt 0.000000 0.250000
vn 0.866025 -0.500000 0.000000
vn 0.866025 -0.500000 0.000000
vn 0.866025 -0.500000 0.000000
vn 0.866025 -0.500000 0.000000
vn 0.500000 0.866025 0.000000
vn 0.500000 0.866025 0.000000
vn 0.500000 0.866025 0.000000
vn 0.500000 0.866025 0.000000
vn -0.866025 0.500000 -0.000000
vn -0.866025 0.500000 -0.000000
vn -0.866025 0.500000 -0.000000
vn -0.866025 0.500000 -0.000000
vn -0.500000 -0.866025 0.000000
vn -0.500000 -0.866025 0.000000
vn -0.500000 -0.866025 0.000000
vn -0.500000 -0.866025 0.000000
vn 0.000000 0.000000 -1.000000
vn 0.000000 0.000000 -1.000000
vn 0.000000 0.000000 -1.000000
vn 0.000000 0.000000 -1.000000
vn 0.000000 0.000000 1.000000
vn 0.000000 0.000000 1.000000
vn 0.000000 0.000000 1.000000
vn 0.000000 0.000000 1.000000
s off
g GRP_Wall_Props GRP_Props_Backrooms Backrooms_Level0_Master_GRP Vent_Blade_1
f 137/287/433 138/288/434 140/290/435 139/289/436
f 139/289/437 140/290/438 142/292/439 141/291/440
f 141/291/441 142/292/442 144/294/443 143/293/444
f 143/293/445 144/294/446 138/296/447 137/295/448
f 138/288/449 144/297/450 142/298/451 140/290/452
f 143/299/453 137/287/454 139/289/455 141/300/456
g default
v -389.107180 225.080385 -96.000000
v -389.107180 225.080385 -144.000000
v -388.507180 226.119615 -96.000000
v -388.507180 226.119615 -144.000000
v -389.892820 226.919615 -96.000000
v -389.892820 226.919615 -144.000000
v -390.492820 225.880385 -96.000000
v -390.492820 225.880385 -144.000000
vt 0.330000 0.000000
vt 0.663333 0.000000
vt 0.330000 0.250000
vt 0.663333 0.250000
vt 0.330000 0.500000
vt 0.663333 0.500000
vt 0.330000 0.750000
vt 0.663333 0.750000
vt 0.330000 1.000000
vt 0.663333 1.000000
vt 1.000000 0.000000
vt 1.000000 0.250000
vt 0.000000 0.000000
vt 0.000000 0.250000
vn 0.866025 -0.500000 0.000000
vn 0.866025 -0.500000 0.000000
vn 0.866025 -0.500000 0.000000
vn 0.866025 -0.500000 0.000000
vn 0.500000 0.866025 0.000000
vn 0.500000 0.866025 0.000000
vn 0.500000 0.866025 0.000000
vn 0.500000 0.866025 0.000000
vn -0.866025 0.500000 -0.000000
vn -0.866025 0.500000 -0.000000
vn -0.866025 0.500000 -0.000000
vn -0.866025 0.500000 -0.000000
vn -0.500000 -0.866025 0.000000
vn -0.500000 -0.866025 0.000000
vn -0.500000 -0.866025 0.000000
vn -0.500000 -0.866025 0.000000
vn 0.000000 0.000000 -1.000000
vn 0.000000 0.000000 -1.000000
vn 0.000000 0.000000 -1.000000
vn 0.000000 0.000000 -1.000000
vn 0.000000 0.000000 1.000000
vn 0.000000 0.000000 1.000000
vn 0.000000 0.000000 1.000000
vn 0.000000 0.000000 1.000000
s off
g GRP_Wall_Props GRP_Props_Backrooms Backrooms_Level0_Master_GRP Vent_Blade_1
f 145/301/457 146/302/458 148/304/459 147/303/460
f 147/303/461 148/304/462 150/306/463 149/305/464
f 149/305/465 150/306/466 152/308/467 151/307/468
f 151/307/469 152/308/470 146/310/471 145/309/472
f 146/302/473 152/311/474 150/312/475 148/304/476
f 151/313/477 145/301/478 147/303/479 149/314/480
g default
v -389.107180 229.080385 -96.000000
v -389.107180 229.080385 -144.000000
v -388.507180 230.119615 -96.000000
v -388.507180 230.119615 -144.000000
v -389.892820 230.919615 -96.000000
v -389.892820 230.919615 -144.000000
v -390.492820 229.880385 -96.000000
v -390.492820 229.880385 -144.000000
vt 0.330000 0.000000
vt 0.663333 0.000000
vt 0.330000 0.250000
vt 0.663333 0.250000
vt 0.330000 0.500000
vt 0.663333 0.500000
vt 0.330000 0.750000
vt 0.663333 0.750000
vt 0.330000 1.000000
vt 0.663333 1.000000
vt 1.000000 0.000000
vt 1.000000 0.250000
vt 0.000000 0.000000
vt 0.000000 0.250000
vn 0.866025 -0.500000 0.000000
vn 0.866025 -0.500000 0.000000
vn 0.866025 -0.500000 0.000000
vn 0.866025 -0.500000 0.000000
vn 0.500000 0.866025 0.000000
vn 0.500000 0.866025 0.000000
vn 0.500000 0.866025 0.000000
vn 0.500000 0.866025 0.000000
vn -0.866025 0.500000 -0.000000
vn -0.866025 0.500000 -0.000000
vn -0.866025 0.500000 -0.000000
vn -0.866025 0.500000 -0.000000
vn -0.500000 -0.866025 0.000000
vn -0.500000 -0.866025 0.000000
vn -0.500000 -0.866025 0.000000
vn -0.500000 -0.866025 0.000000
vn 0.000000 0.000000 -1.000000
vn 0.000000 0.000000 -1.000000
vn 0.000000 0.000000 -1.000000
vn 0.000000 0.000000 -1.000000
vn 0.000000 0.000000 1.000000
vn 0.000000 0.000000 1.000000
vn 0.000000 0.000000 1.000000
vn 0.000000 0.000000 1.000000
s off
g GRP_Wall_Props GRP_Props_Backrooms Backrooms_Level0_Master_GRP Vent_Blade_2
f 153/315/481 154/316/482 156/318/483 155/317/484
f 155/317/485 156/318/486 158/320/487 157/319/488
f 157/319/489 158/320/490 160/322/491 159/321/492
f 159/321/493 160/322/494 154/324/495 153/323/496
f 154/316/497 160/325/498 158/326/499 156/318/500
f 159/327/501 153/315/502 155/317/503 157/328/504
g default
v -389.107180 229.080385 -96.000000
v -389.107180 229.080385 -144.000000
v -388.507180 230.119615 -96.000000
v -388.507180 230.119615 -144.000000
v -389.892820 230.919615 -96.000000
v -389.892820 230.919615 -144.000000
v -390.492820 229.880385 -96.000000
v -390.492820 229.880385 -144.000000
vt 0.330000 0.000000
vt 0.663333 0.000000
vt 0.330000 0.250000
vt 0.663333 0.250000
vt 0.330000 0.500000
vt 0.663333 0.500000
vt 0.330000 0.750000
vt 0.663333 0.750000
vt 0.330000 1.000000
vt 0.663333 1.000000
vt 1.000000 0.000000
vt 1.000000 0.250000
vt 0.000000 0.000000
vt 0.000000 0.250000
vn 0.866025 -0.500000 0.000000
vn 0.866025 -0.500000 0.000000
vn 0.866025 -0.500000 0.000000
vn 0.866025 -0.500000 0.000000
vn 0.500000 0.866025 0.000000
vn 0.500000 0.866025 0.000000
vn 0.500000 0.866025 0.000000
vn 0.500000 0.866025 0.000000
vn -0.866025 0.500000 -0.000000
vn -0.866025 0.500000 -0.000000
vn -0.866025 0.500000 -0.000000
vn -0.866025 0.500000 -0.000000
vn -0.500000 -0.866025 0.000000
vn -0.500000 -0.866025 0.000000
vn -0.500000 -0.866025 0.000000
vn -0.500000 -0.866025 0.000000
vn 0.000000 0.000000 -1.000000
vn 0.000000 0.000000 -1.000000
vn 0.000000 0.000000 -1.000000
vn 0.000000 0.000000 -1.000000
vn 0.000000 0.000000 1.000000
vn 0.000000 0.000000 1.000000
vn 0.000000 0.000000 1.000000
vn 0.000000 0.000000 1.000000
s off
g GRP_Wall_Props GRP_Props_Backrooms Backrooms_Level0_Master_GRP Vent_Blade_2
f 161/329/505 162/330/506 164/332/507 163/331/508
f 163/331/509 164/332/510 166/334/511 165/333/512
f 165/333/513 166/334/514 168/336/515 167/335/516
f 167/335/517 168/336/518 162/338/519 161/337/520
f 162/330/521 168/339/522 166/340/523 164/332/524
f 167/341/525 161/329/526 163/331/527 165/342/528
g default
v -389.107180 233.080385 -96.000000
v -389.107180 233.080385 -144.000000
v -388.507180 234.119615 -96.000000
v -388.507180 234.119615 -144.000000
v -389.892820 234.919615 -96.000000
v -389.892820 234.919615 -144.000000
v -390.492820 233.880385 -96.000000
v -390.492820 233.880385 -144.000000
vt 0.330000 0.000000
vt 0.663333 0.000000
vt 0.330000 0.250000
vt 0.663333 0.250000
vt 0.330000 0.500000
vt 0.663333 0.500000
vt 0.330000 0.750000
vt 0.663333 0.750000
vt 0.330000 1.000000
vt 0.663333 1.000000
vt 1.000000 0.000000
vt 1.000000 0.250000
vt 0.000000 0.000000
vt 0.000000 0.250000
vn 0.866025 -0.500000 0.000000
vn 0.866025 -0.500000 0.000000
vn 0.866025 -0.500000 0.000000
vn 0.866025 -0.500000 0.000000
vn 0.500000 0.866025 0.000000
vn 0.500000 0.866025 0.000000
vn 0.500000 0.866025 0.000000
vn 0.500000 0.866025 0.000000
vn -0.866025 0.500000 -0.000000
vn -0.866025 0.500000 -0.000000
vn -0.866025 0.500000 -0.000000
vn -0.866025 0.500000 -0.000000
vn -0.500000 -0.866025 0.000000
vn -0.500000 -0.866025 0.000000
vn -0.500000 -0.866025 0.000000
vn -0.500000 -0.866025 0.000000
vn 0.000000 0.000000 -1.000000
vn 0.000000 0.000000 -1.000000
vn 0.000000 0.000000 -1.000000
vn 0.000000 0.000000 -1.000000
vn 0.000000 0.000000 1.000000
vn 0.000000 0.000000 1.000000
vn 0.000000 0.000000 1.000000
vn 0.000000 0.000000 1.000000
s off
g GRP_Wall_Props GRP_Props_Backrooms Backrooms_Level0_Master_GRP Vent_Blade_3
f 169/343/529 170/344/530 172/346/531 171/345/532
f 171/345/533 172/346/534 174/348/535 173/347/536
f 173/347/537 174/348/538 176/350/539 175/349/540
f 175/349/541 176/350/542 170/352/543 169/351/544
f 170/344/545 176/353/546 174/354/547 172/346/548
f 175/355/549 169/343/550 171/345/551 173/356/552
g default
v -389.107180 233.080385 -96.000000
v -389.107180 233.080385 -144.000000
v -388.507180 234.119615 -96.000000
v -388.507180 234.119615 -144.000000
v -389.892820 234.919615 -96.000000
v -389.892820 234.919615 -144.000000
v -390.492820 233.880385 -96.000000
v -390.492820 233.880385 -144.000000
vt 0.330000 0.000000
vt 0.663333 0.000000
vt 0.330000 0.250000
vt 0.663333 0.250000
vt 0.330000 0.500000
vt 0.663333 0.500000
vt 0.330000 0.750000
vt 0.663333 0.750000
vt 0.330000 1.000000
vt 0.663333 1.000000
vt 1.000000 0.000000
vt 1.000000 0.250000
vt 0.000000 0.000000
vt 0.000000 0.250000
vn 0.866025 -0.500000 0.000000
vn 0.866025 -0.500000 0.000000
vn 0.866025 -0.500000 0.000000
vn 0.866025 -0.500000 0.000000
vn 0.500000 0.866025 0.000000
vn 0.500000 0.866025 0.000000
vn 0.500000 0.866025 0.000000
vn 0.500000 0.866025 0.000000
vn -0.866025 0.500000 -0.000000
vn -0.866025 0.500000 -0.000000
vn -0.866025 0.500000 -0.000000
vn -0.866025 0.500000 -0.000000
vn -0.500000 -0.866025 0.000000
vn -0.500000 -0.866025 0.000000
vn -0.500000 -0.866025 0.000000
vn -0.500000 -0.866025 0.000000
vn 0.000000 0.000000 -1.000000
vn 0.000000 0.000000 -1.000000
vn 0.000000 0.000000 -1.000000
vn 0.000000 0.000000 -1.000000
vn 0.000000 0.000000 1.000000
vn 0.000000 0.000000 1.000000
vn 0.000000 0.000000 1.000000
vn 0.000000 0.000000 1.000000
s off
g GRP_Wall_Props GRP_Props_Backrooms Backrooms_Level0_Master_GRP Vent_Blade_3
f 177/357/553 178/358/554 180/360/555 179/359/556
f 179/359/557 180/360/558 182/362/559 181/361/560
f 181/361/561 182/362/562 184/364/563 183/363/564
f 183/363/565 184/364/566 178/366/567 177/365/568
f 178/358/569 184/367/570 182/368/571 180/360/572
f 183/369/573 177/357/574 179/359/575 181/370/576
g default
v -389.107180 237.080385 -96.000000
v -389.107180 237.080385 -144.000000
v -388.507180 238.119615 -96.000000
v -388.507180 238.119615 -144.000000
v -389.892820 238.919615 -96.000000
v -389.892820 238.919615 -144.000000
v -390.492820 237.880385 -96.000000
v -390.492820 237.880385 -144.000000
vt 0.330000 0.000000
vt 0.663333 0.000000
vt 0.330000 0.250000
vt 0.663333 0.250000
vt 0.330000 0.500000
vt 0.663333 0.500000
vt 0.330000 0.750000
vt 0.663333 0.750000
vt 0.330000 1.000000
vt 0.663333 1.000000
vt 1.000000 0.000000
vt 1.000000 0.250000
vt 0.000000 0.000000
vt 0.000000 0.250000
vn 0.866025 -0.500000 0.000000
vn 0.866025 -0.500000 0.000000
vn 0.866025 -0.500000 0.000000
vn 0.866025 -0.500000 0.000000
vn 0.500000 0.866025 0.000000
vn 0.500000 0.866025 0.000000
vn 0.500000 0.866025 0.000000
vn 0.500000 0.866025 0.000000
vn -0.866025 0.500000 -0.000000
vn -0.866025 0.500000 -0.000000
vn -0.866025 0.500000 -0.000000
vn -0.866025 0.500000 -0.000000
vn -0.500000 -0.866025 0.000000
vn -0.500000 -0.866025 0.000000
vn -0.500000 -0.866025 0.000000
vn -0.500000 -0.866025 0.000000
vn 0.000000 0.000000 -1.000000
vn 0.000000 0.000000 -1.000000
vn 0.000000 0.000000 -1.000000
vn 0.000000 0.000000 -1.000000
vn 0.000000 0.000000 1.000000
vn 0.000000 0.000000 1.000000
vn 0.000000 0.000000 1.000000
vn 0.000000 0.000000 1.000000
s off
g GRP_Wall_Props GRP_Props_Backrooms Backrooms_Level0_Master_GRP Vent_Blade_4
f 185/371/577 186/372/578 188/374/579 187/373/580
f 187/373/581 188/374/582 190/376/583 189/375/584
f 189/375/585 190/376/586 192/378/587 191/377/588
f 191/377/589 192/378/590 186/380/591 185/379/592
f 186/372/593 192/381/594 190/382/595 188/374/596
f 191/383/597 185/371/598 187/373/599 189/384/600
g default
v -389.107180 237.080385 -96.000000
v -389.107180 237.080385 -144.000000
v -388.507180 238.119615 -96.000000
v -388.507180 238.119615 -144.000000
v -389.892820 238.919615 -96.000000
v -389.892820 238.919615 -144.000000
v -390.492820 237.880385 -96.000000
v -390.492820 237.880385 -144.000000
vt 0.330000 0.000000
vt 0.663333 0.000000
vt 0.330000 0.250000
vt 0.663333 0.250000
vt 0.330000 0.500000
vt 0.663333 0.500000
vt 0.330000 0.750000
vt 0.663333 0.750000
vt 0.330000 1.000000
vt 0.663333 1.000000
vt 1.000000 0.000000
vt 1.000000 0.250000
vt 0.000000 0.000000
vt 0.000000 0.250000
vn 0.866025 -0.500000 0.000000
vn 0.866025 -0.500000 0.000000
vn 0.866025 -0.500000 0.000000
vn 0.866025 -0.500000 0.000000
vn 0.500000 0.866025 0.000000
vn 0.500000 0.866025 0.000000
vn 0.500000 0.866025 0.000000
vn 0.500000 0.866025 0.000000
vn -0.866025 0.500000 -0.000000
vn -0.866025 0.500000 -0.000000
vn -0.866025 0.500000 -0.000000
vn -0.866025 0.500000 -0.000000
vn -0.500000 -0.866025 0.000000
vn -0.500000 -0.866025 0.000000
vn -0.500000 -0.866025 0.000000
vn -0.500000 -0.866025 0.000000
vn 0.000000 0.000000 -1.000000
vn 0.000000 0.000000 -1.000000
vn 0.000000 0.000000 -1.000000
vn 0.000000 0.000000 -1.000000
vn 0.000000 0.000000 1.000000
vn 0.000000 0.000000 1.000000
vn 0.000000 0.000000 1.000000
vn 0.000000 0.000000 1.000000
s off
g GRP_Wall_Props GRP_Props_Backrooms Backrooms_Level0_Master_GRP Vent_Blade_4
f 193/385/601 194/386/602 196/388/603 195/387/604
f 195/387/605 196/388/606 198/390/607 197/389/608
f 197/389/609 198/390/610 200/392/611 199/391/612
f 199/391/613 200/392/614 194/394/615 193/393/616
f 194/386/617 200/395/618 198/396/619 196/388/620
f 199/397/621 193/385/622 195/387/623 197/398/624
g default
v -389.107180 241.080385 -96.000000
v -389.107180 241.080385 -144.000000
v -388.507180 242.119615 -96.000000
v -388.507180 242.119615 -144.000000
v -389.892820 242.919615 -96.000000
v -389.892820 242.919615 -144.000000
v -390.492820 241.880385 -96.000000
v -390.492820 241.880385 -144.000000
vt 0.330000 0.000000
vt 0.663333 0.000000
vt 0.330000 0.250000
vt 0.663333 0.250000
vt 0.330000 0.500000
vt 0.663333 0.500000
vt 0.330000 0.750000
vt 0.663333 0.750000
vt 0.330000 1.000000
vt 0.663333 1.000000
vt 1.000000 0.000000
vt 1.000000 0.250000
vt 0.000000 0.000000
vt 0.000000 0.250000
vn 0.866025 -0.500000 0.000000
vn 0.866025 -0.500000 0.000000
vn 0.866025 -0.500000 0.000000
vn 0.866025 -0.500000 0.000000
vn 0.500000 0.866025 0.000000
vn 0.500000 0.866025 0.000000
vn 0.500000 0.866025 0.000000
vn 0.500000 0.866025 0.000000
vn -0.866025 0.500000 -0.000000
vn -0.866025 0.500000 -0.000000
vn -0.866025 0.500000 -0.000000
vn -0.866025 0.500000 -0.000000
vn -0.500000 -0.866025 0.000000
vn -0.500000 -0.866025 0.000000
vn -0.500000 -0.866025 0.000000
vn -0.500000 -0.866025 0.000000
vn 0.000000 0.000000 -1.000000
vn 0.000000 0.000000 -1.000000
vn 0.000000 0.000000 -1.000000
vn 0.000000 0.000000 -1.000000
vn 0.000000 0.000000 1.000000
vn 0.000000 0.000000 1.000000
vn 0.000000 0.000000 1.000000
vn 0.000000 0.000000 1.000000
s off
g GRP_Wall_Props GRP_Props_Backrooms Backrooms_Level0_Master_GRP Vent_Blade_5
f 201/399/625 202/400/626 204/402/627 203/401/628
f 203/401/629 204/402/630 206/404/631 205/403/632
f 205/403/633 206/404/634 208/406/635 207/405/636
f 207/405/637 208/406/638 202/408/639 201/407/640
f 202/400/641 208/409/642 206/410/643 204/402/644
f 207/411/645 201/399/646 203/401/647 205/412/648
g default
v -389.107180 241.080385 -96.000000
v -389.107180 241.080385 -144.000000
v -388.507180 242.119615 -96.000000
v -388.507180 242.119615 -144.000000
v -389.892820 242.919615 -96.000000
v -389.892820 242.919615 -144.000000
v -390.492820 241.880385 -96.000000
v -390.492820 241.880385 -144.000000
vt 0.330000 0.000000
vt 0.663333 0.000000
vt 0.330000 0.250000
vt 0.663333 0.250000
vt 0.330000 0.500000
vt 0.663333 0.500000
vt 0.330000 0.750000
vt 0.663333 0.750000
vt 0.330000 1.000000
vt 0.663333 1.000000
vt 1.000000 0.000000
vt 1.000000 0.250000
vt 0.000000 0.000000
vt 0.000000 0.250000
vn 0.866025 -0.500000 0.000000
vn 0.866025 -0.500000 0.000000
vn 0.866025 -0.500000 0.000000
vn 0.866025 -0.500000 0.000000
vn 0.500000 0.866025 0.000000
vn 0.500000 0.866025 0.000000
vn 0.500000 0.866025 0.000000
vn 0.500000 0.866025 0.000000
vn -0.866025 0.500000 -0.000000
vn -0.866025 0.500000 -0.000000
vn -0.866025 0.500000 -0.000000
vn -0.866025 0.500000 -0.000000
vn -0.500000 -0.866025 0.000000
vn -0.500000 -0.866025 0.000000
vn -0.500000 -0.866025 0.000000
vn -0.500000 -0.866025 0.000000
vn 0.000000 0.000000 -1.000000
vn 0.000000 0.000000 -1.000000
vn 0.000000 0.000000 -1.000000
vn 0.000000 0.000000 -1.000000
vn 0.000000 0.000000 1.000000
vn 0.000000 0.000000 1.000000
vn 0.000000 0.000000 1.000000
vn 0.000000 0.000000 1.000000
s off
g GRP_Wall_Props GRP_Props_Backrooms Backrooms_Level0_Master_GRP Vent_Blade_5
f 209/413/649 210/414/650 212/416/651 211/415/652
f 211/415/653 212/416/654 214/418/655 213/417/656
f 213/417/657 214/418/658 216/420/659 215/419/660
f 215/419/661 216/420/662 210/422/663 209/421/664
f 210/414/665 216/423/666 214/424/667 212/416/668
f 215/425/669 209/413/670 211/415/671 213/426/672
g default
v -389.107180 245.080385 -96.000000
v -389.107180 245.080385 -144.000000
v -388.507180 246.119615 -96.000000
v -388.507180 246.119615 -144.000000
v -389.892820 246.919615 -96.000000
v -389.892820 246.919615 -144.000000
v -390.492820 245.880385 -96.000000
v -390.492820 245.880385 -144.000000
vt 0.330000 0.000000
vt 0.663333 0.000000
vt 0.330000 0.250000
vt 0.663333 0.250000
vt 0.330000 0.500000
vt 0.663333 0.500000
vt 0.330000 0.750000
vt 0.663333 0.750000
vt 0.330000 1.000000
vt 0.663333 1.000000
vt 1.000000 0.000000
vt 1.000000 0.250000
vt 0.000000 0.000000
vt 0.000000 0.250000
vn 0.866025 -0.500000 0.000000
vn 0.866025 -0.500000 0.000000
vn 0.866025 -0.500000 0.000000
vn 0.866025 -0.500000 0.000000
vn 0.500000 0.866025 0.000000
vn 0.500000 0.866025 0.000000
vn 0.500000 0.866025 0.000000
vn 0.500000 0.866025 0.000000
vn -0.866025 0.500000 -0.000000
vn -0.866025 0.500000 -0.000000
vn -0.866025 0.500000 -0.000000
vn -0.866025 0.500000 -0.000000
vn -0.500000 -0.866025 0.000000
vn -0.500000 -0.866025 0.000000
vn -0.500000 -0.866025 0.000000
vn -0.500000 -0.866025 0.000000
vn 0.000000 0.000000 -1.000000
vn 0.000000 0.000000 -1.000000
vn 0.000000 0.000000 -1.000000
vn 0.000000 0.000000 -1.000000
vn 0.000000 0.000000 1.000000
vn 0.000000 0.000000 1.000000
vn 0.000000 0.000000 1.000000
vn 0.000000 0.000000 1.000000
s off
g GRP_Wall_Props GRP_Props_Backrooms Backrooms_Level0_Master_GRP Vent_Blade_6
f 217/427/673 218/428/674 220/430/675 219/429/676
f 219/429/677 220/430/678 222/432/679 221/431/680
f 221/431/681 222/432/682 224/434/683 223/433/684
f 223/433/685 224/434/686 218/436/687 217/435/688
f 218/428/689 224/437/690 222/438/691 220/430/692
f 223/439/693 217/427/694 219/429/695 221/440/696
g default
v -389.107180 245.080385 -96.000000
v -389.107180 245.080385 -144.000000
v -388.507180 246.119615 -96.000000
v -388.507180 246.119615 -144.000000
v -389.892820 246.919615 -96.000000
v -389.892820 246.919615 -144.000000
v -390.492820 245.880385 -96.000000
v -390.492820 245.880385 -144.000000
vt 0.330000 0.000000
vt 0.663333 0.000000
vt 0.330000 0.250000
vt 0.663333 0.250000
vt 0.330000 0.500000
vt 0.663333 0.500000
vt 0.330000 0.750000
vt 0.663333 0.750000
vt 0.330000 1.000000
vt 0.663333 1.000000
vt 1.000000 0.000000
vt 1.000000 0.250000
vt 0.000000 0.000000
vt 0.000000 0.250000
vn 0.866025 -0.500000 0.000000
vn 0.866025 -0.500000 0.000000
vn 0.866025 -0.500000 0.000000
vn 0.866025 -0.500000 0.000000
vn 0.500000 0.866025 0.000000
vn 0.500000 0.866025 0.000000
vn 0.500000 0.866025 0.000000
vn 0.500000 0.866025 0.000000
vn -0.866025 0.500000 -0.000000
vn -0.866025 0.500000 -0.000000
vn -0.866025 0.500000 -0.000000
vn -0.866025 0.500000 -0.000000
vn -0.500000 -0.866025 0.000000
vn -0.500000 -0.866025 0.000000
vn -0.500000 -0.866025 0.000000
vn -0.500000 -0.866025 0.000000
vn 0.000000 0.000000 -1.000000
vn 0.000000 0.000000 -1.000000
vn 0.000000 0.000000 -1.000000
vn 0.000000 0.000000 -1.000000
vn 0.000000 0.000000 1.000000
vn 0.000000 0.000000 1.000000
vn 0.000000 0.000000 1.000000
vn 0.000000 0.000000 1.000000
s off
g GRP_Wall_Props GRP_Props_Backrooms Backrooms_Level0_Master_GRP Vent_Blade_6
f 225/441/697 226/442/698 228/444/699 227/443/700
f 227/443/701 228/444/702 230/446/703 229/445/704
f 229/445/705 230/446/706 232/448/707 231/447/708
f 231/447/709 232/448/710 226/450/711 225/449/712
f 226/442/713 232/451/714 230/452/715 228/444/716
f 231/453/717 225/441/718 227/443/719 229/454/720
g default
v -389.107180 249.080385 -96.000000
v -389.107180 249.080385 -144.000000
v -388.507180 250.119615 -96.000000
v -388.507180 250.119615 -144.000000
v -389.892820 250.919615 -96.000000
v -389.892820 250.919615 -144.000000
v -390.492820 249.880385 -96.000000
v -390.492820 249.880385 -144.000000
vt 0.330000 0.000000
vt 0.663333 0.000000
vt 0.330000 0.250000
vt 0.663333 0.250000
vt 0.330000 0.500000
vt 0.663333 0.500000
vt 0.330000 0.750000
vt 0.663333 0.750000
vt 0.330000 1.000000
vt 0.663333 1.000000
vt 1.000000 0.000000
vt 1.000000 0.250000
vt 0.000000 0.000000
vt 0.000000 0.250000
vn 0.866025 -0.500000 0.000000
vn 0.866025 -0.500000 0.000000
vn 0.866025 -0.500000 0.000000
vn 0.866025 -0.500000 0.000000
vn 0.500000 0.866025 0.000000
vn 0.500000 0.866025 0.000000
vn 0.500000 0.866025 0.000000
vn 0.500000 0.866025 0.000000
vn -0.866025 0.500000 -0.000000
vn -0.866025 0.500000 -0.000000
vn -0.866025 0.500000 -0.000000
vn -0.866025 0.500000 -0.000000
vn -0.500000 -0.866025 0.000000
vn -0.500000 -0.866025 0.000000
vn -0.500000 -0.866025 0.000000
vn -0.500000 -0.866025 0.000000
vn 0.000000 0.000000 -1.000000
vn 0.000000 0.000000 -1.000000
vn 0.000000 0.000000 -1.000000
vn 0.000000 0.000000 -1.000000
vn 0.000000 0.000000 1.000000
vn 0.000000 0.000000 1.000000
vn 0.000000 0.000000 1.000000
vn 0.000000 0.000000 1.000000
s off
g GRP_Wall_Props GRP_Props_Backrooms Backrooms_Level0_Master_GRP Vent_Blade_7
f 233/455/721 234/456/722 236/458/723 235/457/724
f 235/457/725 236/458/726 238/460/727 237/459/728
f 237/459/729 238/460/730 240/462/731 239/461/732
f 239/461/733 240/462/734 234/464/735 233/463/736
f 234/456/737 240/465/738 238/466/739 236/458/740
f 239/467/741 233/455/742 235/457/743 237/468/744
g default
v -389.107180 249.080385 -96.000000
v -389.107180 249.080385 -144.000000
v -388.507180 250.119615 -96.000000
v -388.507180 250.119615 -144.000000
v -389.892820 250.919615 -96.000000
v -389.892820 250.919615 -144.000000
v -390.492820 249.880385 -96.000000
v -390.492820 249.880385 -144.000000
vt 0.330000 0.000000
vt 0.663333 0.000000
vt 0.330000 0.250000
vt 0.663333 0.250000
vt 0.330000 0.500000
vt 0.663333 0.500000
vt 0.330000 0.750000
vt 0.663333 0.750000
vt 0.330000 1.000000
vt 0.663333 1.000000
vt 1.000000 0.000000
vt 1.000000 0.250000
vt 0.000000 0.000000
vt 0.000000 0.250000
vn 0.866025 -0.500000 0.000000
vn 0.866025 -0.500000 0.000000
vn 0.866025 -0.500000 0.000000
vn 0.866025 -0.500000 0.000000
vn 0.500000 0.866025 0.000000
vn 0.500000 0.866025 0.000000
vn 0.500000 0.866025 0.000000
vn 0.500000 0.866025 0.000000
vn -0.866025 0.500000 -0.000000
vn -0.866025 0.500000 -0.000000
vn -0.866025 0.500000 -0.000000
vn -0.866025 0.500000 -0.000000
vn -0.500000 -0.866025 0.000000
vn -0.500000 -0.866025 0.000000
vn -0.500000 -0.866025 0.000000
vn -0.500000 -0.866025 0.000000
vn 0.000000 0.000000 -1.000000
vn 0.000000 0.000000 -1.000000
vn 0.000000 0.000000 -1.000000
vn 0.000000 0.000000 -1.000000
vn 0.000000 0.000000 1.000000
vn 0.000000 0.000000 1.000000
vn 0.000000 0.000000 1.000000
vn 0.000000 0.000000 1.000000
s off
g GRP_Wall_Props GRP_Props_Backrooms Backrooms_Level0_Master_GRP Vent_Blade_7
f 241/469/745 242/470/746 244/472/747 243/471/748
f 243/471/749 244/472/750 246/474/751 245/473/752
f 245/473/753 246/474/754 248/476/755 247/475/756
f 247/475/757 248/476/758 242/478/759 241/477/760
f 242/470/761 248/479/762 246/480/763 244/472/764
f 247/481/765 241/469/766 243/471/767 245/482/768
g default
v -389.107180 253.080385 -96.000000
v -389.107180 253.080385 -144.000000
v -388.507180 254.119615 -96.000000
v -388.507180 254.119615 -144.000000
v -389.892820 254.919615 -96.000000
v -389.892820 254.919615 -144.000000
v -390.492820 253.880385 -96.000000
v -390.492820 253.880385 -144.000000
vt 0.330000 0.000000
vt 0.663333 0.000000
vt 0.330000 0.250000
vt 0.663333 0.250000
vt 0.330000 0.500000
vt 0.663333 0.500000
vt 0.330000 0.750000
vt 0.663333 0.750000
vt 0.330000 1.000000
vt 0.663333 1.000000
vt 1.000000 0.000000
vt 1.000000 0.250000
vt 0.000000 0.000000
vt 0.000000 0.250000
vn 0.866025 -0.500000 0.000000
vn 0.866025 -0.500000 0.000000
vn 0.866025 -0.500000 0.000000
vn 0.866025 -0.500000 0.000000
vn 0.500000 0.866025 0.000000
vn 0.500000 0.866025 0.000000
vn 0.500000 0.866025 0.000000
vn 0.500000 0.866025 0.000000
vn -0.866025 0.500000 -0.000000
vn -0.866025 0.500000 -0.000000
vn -0.866025 0.500000 -0.000000
vn -0.866025 0.500000 -0.000000
vn -0.500000 -0.866025 0.000000
vn -0.500000 -0.866025 0.000000
vn -0.500000 -0.866025 0.000000
vn -0.500000 -0.866025 0.000000
vn 0.000000 0.000000 -1.000000
vn 0.000000 0.000000 -1.000000
vn 0.000000 0.000000 -1.000000
vn 0.000000 0.000000 -1.000000
vn 0.000000 0.000000 1.000000
vn 0.000000 0.000000 1.000000
vn 0.000000 0.000000 1.000000
vn 0.000000 0.000000 1.000000
s off
g GRP_Wall_Props GRP_Props_Backrooms Backrooms_Level0_Master_GRP Vent_Blade_8
f 249/483/769 250/484/770 252/486/771 251/485/772
f 251/485/773 252/486/774 254/488/775 253/487/776
f 253/487/777 254/488/778 256/490/779 255/489/780
f 255/489/781 256/490/782 250/492/783 249/491/784
f 250/484/785 256/493/786 254/494/787 252/486/788
f 255/495/789 249/483/790 251/485/791 253/496/792
g default
v -389.107180 253.080385 -96.000000
v -389.107180 253.080385 -144.000000
v -388.507180 254.119615 -96.000000
v -388.507180 254.119615 -144.000000
v -389.892820 254.919615 -96.000000
v -389.892820 254.919615 -144.000000
v -390.492820 253.880385 -96.000000
v -390.492820 253.880385 -144.000000
vt 0.330000 0.000000
vt 0.663333 0.000000
vt 0.330000 0.250000
vt 0.663333 0.250000
vt 0.330000 0.500000
vt 0.663333 0.500000
vt 0.330000 0.750000
vt 0.663333 0.750000
vt 0.330000 1.000000
vt 0.663333 1.000000
vt 1.000000 0.000000
vt 1.000000 0.250000
vt 0.000000 0.000000
vt 0.000000 0.250000
vn 0.866025 -0.500000 0.000000
vn 0.866025 -0.500000 0.000000
vn 0.866025 -0.500000 0.000000
vn 0.866025 -0.500000 0.000000
vn 0.500000 0.866025 0.000000
vn 0.500000 0.866025 0.000000
vn 0.500000 0.866025 0.000000
vn 0.500000 0.866025 0.000000
vn -0.866025 0.500000 -0.000000
vn -0.866025 0.500000 -0.000000
vn -0.866025 0.500000 -0.000000
vn -0.866025 0.500000 -0.000000
vn -0.500000 -0.866025 0.000000
vn -0.500000 -0.866025 0.000000
vn -0.500000 -0.866025 0.000000
vn -0.500000 -0.866025 0.000000
vn 0.000000 0.000000 -1.000000
vn 0.000000 0.000000 -1.000000
vn 0.000000 0.000000 -1.000000
vn 0.000000 0.000000 -1.000000
vn 0.000000 0.000000 1.000000
vn 0.000000 0.000000 1.000000
vn 0.000000 0.000000 1.000000
vn 0.000000 0.000000 1.000000
s off
g GRP_Wall_Props GRP_Props_Backrooms Backrooms_Level0_Master_GRP Vent_Blade_8
f 257/497/793 258/498/794 260/500/795 259/499/796
f 259/499/797 260/500/798 262/502/799 261/501/800
f 261/501/801 262/502/802 264/504/803 263/503/804
f 263/503/805 264/504/806 258/506/807 257/505/808
f 258/498/809 264/507/810 262/508/811 260/500/812
f 263/509/813 257/497/814 259/499/815 261/510/816
g default
v -389.435996 32.010543 84.289457
v -389.435996 32.000000 84.264004
v -389.410543 32.010543 84.264004
v -389.400000 32.035996 84.264004
v -389.410543 32.035996 84.289457
v -389.435996 32.035996 84.300000
v -389.435996 32.010543 75.710543
v -389.435996 32.035996 75.700000
v -389.410543 32.035996 75.710543
v -389.400000 32.035996 75.735996
v -389.410543 32.010543 75.735996
v -389.435996 32.000000 75.735996
v -389.435996 43.989457 84.289457
v -389.435996 43.964004 84.300000
v -389.410543 43.964004 84.289457
v -389.400000 43.964004 84.264004
v -389.410543 43.989457 84.264004
v -389.435996 44.000000 84.264004
v -389.435996 43.989457 75.710543
v -389.435996 44.000000 75.735996
v -389.410543 43.989457 75.735996
v -389.400000 43.964004 75.735996
v -389.410543 43.964004 75.710543
v -389.435996 43.964004 75.700000
v -390.589457 43.964004 84.289457
v -390.564004 43.964004 84.300000
v -390.564004 43.989457 84.289457
v -390.564004 44.000000 84.264004
v -390.589457 43.989457 84.264004
v -390.600000 43.964004 84.264004
v -390.589457 43.964004 75.710543
v -390.600000 43.964004 75.735996
v -390.589457 43.989457 75.735996
v -390.564004 44.000000 75.735996
v -390.564004 43.989457 75.710543
v -390.564004 43.964004 75.700000
v -390.564004 32.010543 84.289457
v -390.564004 32.035996 84.300000
v -390.589457 32.035996 84.289457
v -390.600000 32.035996 84.264004
v -390.589457 32.010543 84.264004
v -390.564004 32.000000 84.264004
v -390.564004 32.010543 75.710543
v -390.564004 32.000000 75.735996
v -390.589457 32.010543 75.735996
v -390.600000 32.035996 75.735996
v -390.589457 32.035996 75.710543
v -390.564004 32.035996 75.700000
vt 0.331395 0.992501
vt 0.331395 0.757499
vt 0.320103 0.000749
vt 0.009900 0.000749
vt 0.331395 0.000750
vt 0.661938 0.000750
vt 0.331395 0.992501
vt 0.661938 0.992501
vt 0.320103 0.000749
vt 0.320101 0.249250
vt 0.331395 0.000750
vt 0.331395 0.249250
vt 0.673433 0.000749
vt 0.989903 0.000749
vt 0.661938 0.992501
vt 0.661938 0.757499
vt 0.661938 0.000750
vt 0.661938 0.249250
vt 0.673433 0.000749
vt 0.673432 0.249250
vt 0.320101 0.249250
vt 0.009899 0.249250
vt 0.331395 0.257499
vt 0.331395 0.492501
vt 0.331395 0.257499
vt 0.661938 0.257499
vt 0.331395 0.249250
vt 0.661938 0.249250
vt 0.661938 0.257499
vt 0.661938 0.492501
vt 0.673432 0.249250
vt 0.989901 0.249250
vt 0.009899 0.249250
vt 0.009900 0.000749
vt 0.331395 0.500750
vt 0.331395 0.749250
vt 0.331395 0.500750
vt 0.661938 0.500750
vt 0.331395 0.492501
vt 0.661938 0.492501
vt 0.661938 0.500750
vt 0.661938 0.749250
vt 0.989901 0.249250
vt 0.989903 0.000749
vt 0.331395 0.757499
vt 0.661938 0.757499
vt 0.331395 0.749250
vt 0.661938 0.749250
vt 0.331395 0.000750
vt 0.661938 0.000750
vt 0.661938 0.249250
vt 0.331395 0.249250
vt 0.331395 0.257499
vt 0.661938 0.257499
vt 0.661938 0.492501
vt 0.331395 0.492501
vt 0.331395 0.500750
vt 0.661938 0.500750
vt 0.661938 0.749250
vt 0.331395 0.749250
vt 0.331395 0.757499
vt 0.661938 0.757499
vt 0.661938 0.992501
vt 0.331395 0.992501
vt 0.673433 0.000749
vt 0.989903 0.000749
vt 0.989901 0.249250
vt 0.673432 0.249250
vt 0.009900 0.000749
vt 0.320103 0.000749
vt 0.320101 0.249250
vt 0.009899 0.249250
vt 0.331395 -0.000000
vt 0.331395 0.000750
vt 0.320103 0.000749
vt 0.673433 0.000749
vt 0.661938 0.000750
vt 0.661938 -0.000000
vt 0.320101 0.249250
vt 0.331395 0.249250
vt 0.331395 0.257499
vt 0.661938 0.257499
vt 0.661938 0.249250
vt 0.673432 0.249250
vt 0.330000 0.492501
vt 0.331395 0.492501
vt 0.331395 0.500750
vt 0.661938 0.500750
vt 0.661938 0.492501
vt 0.663333 0.492501
vt 0.330000 0.749250
vt 0.331395 0.749250
vt 0.331395 0.757499
vt 0.661938 0.757499
vt 0.661938 0.749250
vt 0.663333 0.749250
vt 0.323909 0.000017
vt 0.331363 0.986836
vt 0.332456 -0.000000
vt 0.332456 0.992501
vt 0.325749 0.000751
vt 0.669575 0.000017
vt 0.661971 0.986836
vt 0.667683 0.000750
vt 0.660877 0.992501
vt 0.660877 -0.000000
vt 0.330000 0.250000
vt 0.325759 0.249250
vt 0.331399 0.253375
vt 0.663333 0.250000
vt 0.661937 0.253363
vt 0.667685 0.249249
vt 0.330000 0.493091
vt 0.009899 0.248679
vt 0.330000 0.486719
vt 0.017531 0.249268
vt 0.331399 0.496625
vt 0.663333 0.493091
vt 0.989901 0.248679
vt 0.661937 0.496613
vt 0.982115 0.249268
vt 0.663333 0.486719
vt 0.017386 0.000731
vt 0.330032 0.754914
vt 0.330000 0.748660
vt 0.009900 0.001320
vt 0.331399 0.753375
vt 0.663301 0.754915
vt 0.982266 0.000731
vt 0.661937 0.753373
vt 0.989903 0.001320
vt 0.663333 0.748660
vn 0.000000 -0.923876 0.382693
vn 0.000000 -0.923876 0.382693
vn 0.000000 -0.923876 0.382693
vn 0.000000 -0.923876 0.382693
vn 0.000000 -0.382689 0.923877
vn 0.000000 -0.382689 0.923877
vn 0.000000 -0.382689 0.923877
vn 0.000000 -0.382689 0.923877
vn 0.923878 -0.382687 0.000000
vn 0.923878 -0.382687 0.000000
vn 0.923878 -0.382687 0.000000
vn 0.923878 -0.382687 0.000000
vn 0.382687 -0.923878 0.000000
vn 0.382687 -0.923878 0.000000
vn 0.382687 -0.923878 0.000000
vn 0.382687 -0.923878 0.000000
vn 0.382691 0.000000 0.923876
vn 0.382691 0.000000 0.923876
vn 0.382691 0.000000 0.923876
vn 0.382691 0.000000 0.923876
vn 0.923878 0.000000 0.382686
vn 0.923878 0.000000 0.382686
vn 0.923878 0.000000 0.382686
vn 0.923878 0.000000 0.382686
vn 0.000000 -0.382689 -0.923877
vn 0.000000 -0.382689 -0.923877
vn 0.000000 -0.382689 -0.923877
vn 0.000000 -0.382689 -0.923877
vn 0.000000 -0.923876 -0.382693
vn 0.000000 -0.923876 -0.382693
vn 0.000000 -0.923876 -0.382693
vn 0.000000 -0.923876 -0.382693
vn 0.923878 0.000000 -0.382686
vn 0.923878 0.000000 -0.382686
vn 0.923878 0.000000 -0.382686
vn 0.923878 0.000000 -0.382686
vn 0.382691 0.000000 -0.923876
vn 0.382691 0.000000 -0.923876
vn 0.382691 0.000000 -0.923876
vn 0.382691 0.000000 -0.923876
vn 0.000000 0.382689 0.923877
vn 0.000000 0.382689 0.923877
vn 0.000000 0.382689 0.923877
vn 0.000000 0.382689 0.923877
vn 0.000000 0.923876 0.382693
vn 0.000000 0.923876 0.382693
vn 0.000000 0.923876 0.382693
vn 0.000000 0.923876 0.382693
vn 0.382687 0.923878 0.000000
vn 0.382687 0.923878 0.000000
vn 0.382687 0.923878 0.000000
vn 0.382687 0.923878 0.000000
vn 0.923878 0.382687 0.000000
vn 0.923878 0.382687 0.000000
vn 0.923878 0.382687 0.000000
vn 0.923878 0.382687 0.000000
vn 0.000000 0.923876 -0.382693
vn 0.000000 0.923876 -0.382693
vn 0.000000 0.923876 -0.382693
vn 0.000000 0.923876 -0.382693
vn 0.000000 0.382689 -0.923877
vn 0.000000 0.382689 -0.923877
vn 0.000000 0.382689 -0.923877
vn 0.000000 0.382689 -0.923877
vn -0.382691 0.000000 0.923876
vn -0.382691 0.000000 0.923876
vn -0.382691 0.000000 0.923876
vn -0.382691 0.000000 0.923876
vn -0.923878 0.000000 0.382686
vn -0.923878 0.000000 0.382686
vn -0.923878 0.000000 0.382686
vn -0.923878 0.000000 0.382686
vn -0.923878 0.382687 -0.000000
vn -0.923878 0.382687 -0.000000
vn -0.923878 0.382687 -0.000000
vn -0.923878 0.382687 -0.000000
vn -0.382687 0.923878 -0.000000
vn -0.382687 0.923878 -0.000000
vn -0.382687 0.923878 -0.000000
vn -0.382687 0.923878 -0.000000
vn -0.923878 0.000000 -0.382686
vn -0.923878 0.000000 -0.382686
vn -0.923878 0.000000 -0.382686
vn -0.923878 0.000000 -0.382686
vn -0.382691 0.000000 -0.923876
vn -0.382691 0.000000 -0.923876
vn -0.382691 0.000000 -0.923876
vn -0.382691 0.000000 -0.923876
vn -0.382687 -0.923878 0.000000
vn -0.382687 -0.923878 0.000000
vn -0.382687 -0.923878 0.000000
vn -0.382687 -0.923878 0.000000
vn -0.923878 -0.382687 0.000000
vn -0.923878 -0.382687 0.000000
vn -0.923878 -0.382687 0.000000
vn -0.923878 -0.382687 0.000000
vn 1.000000 0.000000 0.000000
vn 1.000000 0.000000 0.000000
vn 1.000000 0.000000 0.000000
vn 1.000000 0.000000 0.000000
vn 0.000000 1.000000 0.000000
vn 0.000000 1.000000 0.000000
vn 0.000000 1.000000 0.000000
vn 0.000000 1.000000 0.000000
vn -1.000000 0.000000 -0.000000
vn -1.000000 0.000000 -0.000000
vn -1.000000 0.000000 -0.000000
vn -1.000000 0.000000 -0.000000
vn 0.000000 -1.000000 0.000000
vn 0.000000 -1.000000 0.000000
vn 0.000000 -1.000000 0.000000
vn 0.000000 -1.000000 0.000000
vn 0.000000 0.000000 -1.000000
vn 0.000000 0.000000 -1.000000
vn 0.000000 0.000000 -1.000000
vn 0.000000 0.000000 -1.000000
vn 0.000000 0.000000 1.000000
vn 0.000000 0.000000 1.000000
vn 0.000000 0.000000 1.000000
vn 0.000000 0.000000 1.000000
vn 0.577354 -0.577345 0.577352
vn 0.577354 -0.577345 0.577352
vn 0.577354 -0.577345 0.577352
vn 0.577354 -0.577345 0.577352
vn 0.577354 -0.577345 0.577352
vn 0.577354 -0.577345 0.577352
vn 0.577353 -0.577348 -0.577350
vn 0.577353 -0.577348 -0.577350
vn 0.577353 -0.577348 -0.577350
vn 0.577353 -0.577348 -0.577350
vn 0.577353 -0.577348 -0.577350
vn 0.577353 -0.577348 -0.577350
vn 0.577353 0.577348 0.577350
vn 0.577353 0.577348 0.577350
vn 0.577353 0.577348 0.577350
vn 0.577353 0.577348 0.577350
vn 0.577353 0.577348 0.577350
vn 0.577353 0.577348 0.577350
vn 0.577354 0.577345 -0.577352
vn 0.577354 0.577345 -0.577352
vn 0.577354 0.577345 -0.577352
vn 0.577354 0.577345 -0.577352
vn 0.577354 0.577345 -0.577352
vn 0.577354 0.577345 -0.577352
vn -0.577355 0.577345 0.577351
vn -0.577355 0.577345 0.577351
vn -0.577355 0.577345 0.577351
vn -0.577355 0.577345 0.577351
vn -0.577355 0.577345 0.577351
vn -0.577355 0.577345 0.577351
vn -0.577354 0.577345 -0.577351
vn -0.577354 0.577345 -0.577351
vn -0.577354 0.577345 -0.577351
vn -0.577354 0.577345 -0.577351
vn -0.577354 0.577345 -0.577352
vn -0.577354 0.577345 -0.577351
vn -0.577353 -0.577348 0.577350
vn -0.577353 -0.577348 0.577350
vn -0.577353 -0.577348 0.577350
vn -0.577353 -0.577348 0.577350
vn -0.577353 -0.577348 0.577350
vn -0.577353 -0.577348 0.577350
vn -0.577354 -0.577345 -0.577352
vn -0.577354 -0.577345 -0.577352
vn -0.577354 -0.577345 -0.577352
vn -0.577354 -0.577345 -0.577352
vn -0.577354 -0.577345 -0.577352
vn -0.577354 -0.577345 -0.577352
s off
g GRP_Wall_Props GRP_Props_Backrooms Backrooms_Level0_Master_GRP Power_Socket_Plate
f 266/517/817 265/608/818 301/634/819 306/571/820
f 265/607/821 270/580/822 302/544/823 301/633/824
f 268/521/825 267/609/826 275/616/827 274/560/828
f 267/610/829 266/517/830 276/525/831 275/615/832
f 270/580/833 269/611/834 279/618/835 278/581/836
f 269/611/837 268/521/838 280/537/839 279/618/840
f 272/529/841 271/612/842 307/639/843 312/554/844
f 271/613/845 276/525/846 308/556/847 307/638/848
f 274/560/849 273/614/850 287/622/851 286/538/852
f 273/614/853 272/529/854 288/541/855 287/622/856
f 278/581/857 277/617/858 291/626/859 290/582/860
f 277/617/861 282/563/862 292/549/863 291/625/864
f 282/563/865 281/619/866 285/621/867 284/564/868
f 281/619/869 280/537/870 286/538/871 285/621/872
f 284/564/873 283/620/874 299/632/875 298/550/876
f 283/620/877 288/541/878 300/553/879 299/631/880
f 290/582/881 289/624/882 303/636/883 302/544/884
f 289/623/885 294/567/886 304/557/887 303/635/888
f 294/567/889 293/627/890 297/630/891 296/568/892
f 293/627/893 292/549/894 298/550/895 297/630/896
f 296/568/897 295/628/898 311/642/899 310/558/900
f 295/629/901 300/553/902 312/554/903 311/641/904
f 306/571/905 305/637/906 309/640/907 308/556/908
f 305/637/909 304/557/910 310/558/911 309/640/912
f 268/521/913 274/560/914 286/538/915 280/537/916
f 282/563/917 284/564/918 298/550/919 292/549/920
f 294/567/921 296/568/922 310/558/923 304/557/924
f 306/571/925 308/556/926 276/525/927 266/517/928
f 272/529/929 312/554/930 300/553/931 288/541/932
f 302/544/933 270/580/934 278/581/935 290/582/936
f 265/607/937 266/583/938 267/609/939 268/521/940 269/611/941 270/580/942
f 271/612/943 272/529/944 273/614/945 274/560/946 275/616/947 276/588/948
f 277/617/949 278/581/950 279/618/951 280/537/952 281/619/953 282/563/954
f 283/620/955 284/564/956 285/621/957 286/538/958 287/622/959 288/541/960
f 289/623/961 290/595/962 291/625/963 292/549/964 293/627/965 294/567/966
f 295/628/967 296/568/968 297/630/969 298/550/970 299/632/971 300/600/972
f 301/634/973 302/601/974 303/635/975 304/557/976 305/637/977 306/571/978
f 307/638/979 308/556/980 309/640/981 310/558/982 311/642/983 312/606/984
g default
v -389.435996 32.010543 84.289457
v -389.435996 32.000000 84.264004
v -389.410543 32.010543 84.264004
v -389.400000 32.035996 84.264004
v -389.410543 32.035996 84.289457
v -389.435996 32.035996 84.300000
v -389.435996 32.010543 75.710543
v -389.435996 32.035996 75.700000
v -389.410543 32.035996 75.710543
v -389.400000 32.035996 75.735996
v -389.410543 32.010543 75.735996
v -389.435996 32.000000 75.735996
v -389.435996 43.989457 84.289457
v -389.435996 43.964004 84.300000
v -389.410543 43.964004 84.289457
v -389.400000 43.964004 84.264004
v -389.410543 43.989457 84.264004
v -389.435996 44.000000 84.264004
v -389.435996 43.989457 75.710543
v -389.435996 44.000000 75.735996
v -389.410543 43.989457 75.735996
v -389.400000 43.964004 75.735996
v -389.410543 43.964004 75.710543
v -389.435996 43.964004 75.700000
v -390.589457 43.964004 84.289457
v -390.564004 43.964004 84.300000
v -390.564004 43.989457 84.289457
v -390.564004 44.000000 84.264004
v -390.589457 43.989457 84.264004
v -390.600000 43.964004 84.264004
v -390.589457 43.964004 75.710543
v -390.600000 43.964004 75.735996
v -390.589457 43.989457 75.735996
v -390.564004 44.000000 75.735996
v -390.564004 43.989457 75.710543
v -390.564004 43.964004 75.700000
v -390.564004 32.010543 84.289457
v -390.564004 32.035996 84.300000
v -390.589457 32.035996 84.289457
v -390.600000 32.035996 84.264004
v -390.589457 32.010543 84.264004
v -390.564004 32.000000 84.264004
v -390.564004 32.010543 75.710543
v -390.564004 32.000000 75.735996
v -390.589457 32.010543 75.735996
v -390.600000 32.035996 75.735996
v -390.589457 32.035996 75.710543
v -390.564004 32.035996 75.700000
vt 0.331395 0.992501
vt 0.331395 0.757499
vt 0.320103 0.000749
vt 0.009900 0.000749
vt 0.331395 0.000750
vt 0.661938 0.000750
vt 0.331395 0.992501
vt 0.661938 0.992501
vt 0.320103 0.000749
vt 0.320101 0.249250
vt 0.331395 0.000750
vt 0.331395 0.249250
vt 0.673433 0.000749
vt 0.989903 0.000749
vt 0.661938 0.992501
vt 0.661938 0.757499
vt 0.661938 0.000750
vt 0.661938 0.249250
vt 0.673433 0.000749
vt 0.673432 0.249250
vt 0.320101 0.249250
vt 0.009899 0.249250
vt 0.331395 0.257499
vt 0.331395 0.492501
vt 0.331395 0.257499
vt 0.661938 0.257499
vt 0.331395 0.249250
vt 0.661938 0.249250
vt 0.661938 0.257499
vt 0.661938 0.492501
vt 0.673432 0.249250
vt 0.989901 0.249250
vt 0.009899 0.249250
vt 0.009900 0.000749
vt 0.331395 0.500750
vt 0.331395 0.749250
vt 0.331395 0.500750
vt 0.661938 0.500750
vt 0.331395 0.492501
vt 0.661938 0.492501
vt 0.661938 0.500750
vt 0.661938 0.749250
vt 0.989901 0.249250
vt 0.989903 0.000749
vt 0.331395 0.757499
vt 0.661938 0.757499
vt 0.331395 0.749250
vt 0.661938 0.749250
vt 0.331395 0.000750
vt 0.661938 0.000750
vt 0.661938 0.249250
vt 0.331395 0.249250
vt 0.331395 0.257499
vt 0.661938 0.257499
vt 0.661938 0.492501
vt 0.331395 0.492501
vt 0.331395 0.500750
vt 0.661938 0.500750
vt 0.661938 0.749250
vt 0.331395 0.749250
vt 0.331395 0.757499
vt 0.661938 0.757499
vt 0.661938 0.992501
vt 0.331395 0.992501
vt 0.673433 0.000749
vt 0.989903 0.000749
vt 0.989901 0.249250
vt 0.673432 0.249250
vt 0.009900 0.000749
vt 0.320103 0.000749
vt 0.320101 0.249250
vt 0.009899 0.249250
vt 0.331395 -0.000000
vt 0.331395 0.000750
vt 0.320103 0.000749
vt 0.673433 0.000749
vt 0.661938 0.000750
vt 0.661938 -0.000000
vt 0.320101 0.249250
vt 0.331395 0.249250
vt 0.331395 0.257499
vt 0.661938 0.257499
vt 0.661938 0.249250
vt 0.673432 0.249250
vt 0.330000 0.492501
vt 0.331395 0.492501
vt 0.331395 0.500750
vt 0.661938 0.500750
vt 0.661938 0.492501
vt 0.663333 0.492501
vt 0.330000 0.749250
vt 0.331395 0.749250
vt 0.331395 0.757499
vt 0.661938 0.757499
vt 0.661938 0.749250
vt 0.663333 0.749250
vt 0.323909 0.000017
vt 0.331363 0.986836
vt 0.332456 -0.000000
vt 0.332456 0.992501
vt 0.325749 0.000751
vt 0.669575 0.000017
vt 0.661971 0.986836
vt 0.667683 0.000750
vt 0.660877 0.992501
vt 0.660877 -0.000000
vt 0.330000 0.250000
vt 0.325759 0.249250
vt 0.331399 0.253375
vt 0.663333 0.250000
vt 0.661937 0.253363
vt 0.667685 0.249249
vt 0.330000 0.493091
vt 0.009899 0.248679
vt 0.330000 0.486719
vt 0.017531 0.249268
vt 0.331399 0.496625
vt 0.663333 0.493091
vt 0.989901 0.248679
vt 0.661937 0.496613
vt 0.982115 0.249268
vt 0.663333 0.486719
vt 0.017386 0.000731
vt 0.330032 0.754914
vt 0.330000 0.748660
vt 0.009900 0.001320
vt 0.331399 0.753375
vt 0.663301 0.754915
vt 0.982266 0.000731
vt 0.661937 0.753373
vt 0.989903 0.001320
vt 0.663333 0.748660
vn 0.000000 -0.923876 0.382693
vn 0.000000 -0.923876 0.382693
vn 0.000000 -0.923876 0.382693
vn 0.000000 -0.923876 0.382693
vn 0.000000 -0.382689 0.923877
vn 0.000000 -0.382689 0.923877
vn 0.000000 -0.382689 0.923877
vn 0.000000 -0.382689 0.923877
vn 0.923878 -0.382687 0.000000
vn 0.923878 -0.382687 0.000000
vn 0.923878 -0.382687 0.000000
vn 0.923878 -0.382687 0.000000
vn 0.382687 -0.923878 0.000000
vn 0.382687 -0.923878 0.000000
vn 0.382687 -0.923878 0.000000
vn 0.382687 -0.923878 0.000000
vn 0.382691 0.000000 0.923876
vn 0.382691 0.000000 0.923876
vn 0.382691 0.000000 0.923876
vn 0.382691 0.000000 0.923876
vn 0.923878 0.000000 0.382686
vn 0.923878 0.000000 0.382686
vn 0.923878 0.000000 0.382686
vn 0.923878 0.000000 0.382686
vn 0.000000 -0.382689 -0.923877
vn 0.000000 -0.382689 -0.923877
vn 0.000000 -0.382689 -0.923877
vn 0.000000 -0.382689 -0.923877
vn 0.000000 -0.923876 -0.382693
vn 0.000000 -0.923876 -0.382693
vn 0.000000 -0.923876 -0.382693
vn 0.000000 -0.923876 -0.382693
vn 0.923878 0.000000 -0.382686
vn 0.923878 0.000000 -0.382686
vn 0.923878 0.000000 -0.382686
vn 0.923878 0.000000 -0.382686
vn 0.382691 0.000000 -0.923876
vn 0.382691 0.000000 -0.923876
vn 0.382691 0.000000 -0.923876
vn 0.382691 0.000000 -0.923876
vn 0.000000 0.382689 0.923877
vn 0.000000 0.382689 0.923877
vn 0.000000 0.382689 0.923877
vn 0.000000 0.382689 0.923877
vn 0.000000 0.923876 0.382693
vn 0.000000 0.923876 0.382693
vn 0.000000 0.923876 0.382693
vn 0.000000 0.923876 0.382693
vn 0.382687 0.923878 0.000000
vn 0.382687 0.923878 0.000000
vn 0.382687 0.923878 0.000000
vn 0.382687 0.923878 0.000000
vn 0.923878 0.382687 0.000000
vn 0.923878 0.382687 0.000000
vn 0.923878 0.382687 0.000000
vn 0.923878 0.382687 0.000000
vn 0.000000 0.923876 -0.382693
vn 0.000000 0.923876 -0.382693
vn 0.000000 0.923876 -0.382693
vn 0.000000 0.923876 -0.382693
vn 0.000000 0.382689 -0.923877
vn 0.000000 0.382689 -0.923877
vn 0.000000 0.382689 -0.923877
vn 0.000000 0.382689 -0.923877
vn -0.382691 0.000000 0.923876
vn -0.382691 0.000000 0.923876
vn -0.382691 0.000000 0.923876
vn -0.382691 0.000000 0.923876
vn -0.923878 0.000000 0.382686
vn -0.923878 0.000000 0.382686
vn -0.923878 0.000000 0.382686
vn -0.923878 0.000000 0.382686
vn -0.923878 0.382687 -0.000000
vn -0.923878 0.382687 -0.000000
vn -0.923878 0.382687 -0.000000
vn -0.923878 0.382687 -0.000000
vn -0.382687 0.923878 -0.000000
vn -0.382687 0.923878 -0.000000
vn -0.382687 0.923878 -0.000000
vn -0.382687 0.923878 -0.000000
vn -0.923878 0.000000 -0.382686
vn -0.923878 0.000000 -0.382686
vn -0.923878 0.000000 -0.382686
vn -0.923878 0.000000 -0.382686
vn -0.382691 0.000000 -0.923876
vn -0.382691 0.000000 -0.923876
vn -0.382691 0.000000 -0.923876
vn -0.382691 0.000000 -0.923876
vn -0.382687 -0.923878 0.000000
vn -0.382687 -0.923878 0.000000
vn -0.382687 -0.923878 0.000000
vn -0.382687 -0.923878 0.000000
vn -0.923878 -0.382687 0.000000
vn -0.923878 -0.382687 0.000000
vn -0.923878 -0.382687 0.000000
vn -0.923878 -0.382687 0.000000
vn 1.000000 0.000000 0.000000
vn 1.000000 0.000000 0.000000
vn 1.000000 0.000000 0.000000
vn 1.000000 0.000000 0.000000
vn 0.000000 1.000000 0.000000
vn 0.000000 1.000000 0.000000
vn 0.000000 1.000000 0.000000
vn 0.000000 1.000000 0.000000
vn -1.000000 0.000000 -0.000000
vn -1.000000 0.000000 -0.000000
vn -1.000000 0.000000 -0.000000
vn -1.000000 0.000000 -0.000000
vn 0.000000 -1.000000 0.000000
vn 0.000000 -1.000000 0.000000
vn 0.000000 -1.000000 0.000000
vn 0.000000 -1.000000 0.000000
vn 0.000000 0.000000 -1.000000
vn 0.000000 0.000000 -1.000000
vn 0.000000 0.000000 -1.000000
vn 0.000000 0.000000 -1.000000
vn 0.000000 0.000000 1.000000
vn 0.000000 0.000000 1.000000
vn 0.000000 0.000000 1.000000
vn 0.000000 0.000000 1.000000
vn 0.577354 -0.577345 0.577352
vn 0.577354 -0.577345 0.577352
vn 0.577354 -0.577345 0.577352
vn 0.577354 -0.577345 0.577352
vn 0.577354 -0.577345 0.577352
vn 0.577354 -0.577345 0.577352
vn 0.577353 -0.577348 -0.577350
vn 0.577353 -0.577348 -0.577350
vn 0.577353 -0.577348 -0.577350
vn 0.577353 -0.577348 -0.577350
vn 0.577353 -0.577348 -0.577350
vn 0.577353 -0.577348 -0.577350
vn 0.577353 0.577348 0.577350
vn 0.577353 0.577348 0.577350
vn 0.577353 0.577348 0.577350
vn 0.577353 0.577348 0.577350
vn 0.577353 0.577348 0.577350
vn 0.577353 0.577348 0.577350
vn 0.577354 0.577345 -0.577352
vn 0.577354 0.577345 -0.577352
vn 0.577354 0.577345 -0.577352
vn 0.577354 0.577345 -0.577352
vn 0.577354 0.577345 -0.577352
vn 0.577354 0.577345 -0.577352
vn -0.577355 0.577345 0.577351
vn -0.577355 0.577345 0.577351
vn -0.577355 0.577345 0.577351
vn -0.577355 0.577345 0.577351
vn -0.577355 0.577345 0.577351
vn -0.577355 0.577345 0.577351
vn -0.577354 0.577345 -0.577351
vn -0.577354 0.577345 -0.577351
vn -0.577354 0.577345 -0.577351
vn -0.577354 0.577345 -0.577351
vn -0.577354 0.577345 -0.577352
vn -0.577354 0.577345 -0.577351
vn -0.577353 -0.577348 0.577350
vn -0.577353 -0.577348 0.577350
vn -0.577353 -0.577348 0.577350
vn -0.577353 -0.577348 0.577350
vn -0.577353 -0.577348 0.577350
vn -0.577353 -0.577348 0.577350
vn -0.577354 -0.577345 -0.577352
vn -0.577354 -0.577345 -0.577352
vn -0.577354 -0.577345 -0.577352
vn -0.577354 -0.577345 -0.577352
vn -0.577354 -0.577345 -0.577352
vn -0.577354 -0.577345 -0.577352
s off
g GRP_Wall_Props GRP_Props_Backrooms Backrooms_Level0_Master_GRP Power_Socket_Plate
f 314/649/985 313/740/986 349/766/987 354/703/988
f 313/739/989 318/712/990 350/676/991 349/765/992
f 316/653/993 315/741/994 323/748/995 322/692/996
f 315/742/997 314/649/998 324/657/999 323/747/1000
f 318/712/1001 317/743/1002 327/750/1003 326/713/1004
f 317/743/1005 316/653/1006 328/669/1007 327/750/1008
f 320/661/1009 319/744/1010 355/771/1011 360/686/1012
f 319/745/1013 324/657/1014 356/688/1015 355/770/1016
f 322/692/1017 321/746/1018 335/754/1019 334/670/1020
f 321/746/1021 320/661/1022 336/673/1023 335/754/1024
f 326/713/1025 325/749/1026 339/758/1027 338/714/1028
f 325/749/1029 330/695/1030 340/681/1031 339/757/1032
f 330/695/1033 329/751/1034 333/753/1035 332/696/1036
f 329/751/1037 328/669/1038 334/670/1039 333/753/1040
f 332/696/1041 331/752/1042 347/764/1043 346/682/1044
f 331/752/1045 336/673/1046 348/685/1047 347/763/1048
f 338/714/1049 337/756/1050 351/768/1051 350/676/1052
f 337/755/1053 342/699/1054 352/689/1055 351/767/1056
f 342/699/1057 341/759/1058 345/762/1059 344/700/1060
f 341/759/1061 340/681/1062 346/682/1063 345/762/1064
f 344/700/1065 343/760/1066 359/774/1067 358/690/1068
f 343/761/1069 348/685/1070 360/686/1071 359/773/1072
f 354/703/1073 353/769/1074 357/772/1075 356/688/1076
f 353/769/1077 352/689/1078 358/690/1079 357/772/1080
f 316/653/1081 322/692/1082 334/670/1083 328/669/1084
f 330/695/1085 332/696/1086 346/682/1087 340/681/1088
f 342/699/1089 344/700/1090 358/690/1091 352/689/1092
f 354/703/1093 356/688/1094 324/657/1095 314/649/1096
f 320/661/1097 360/686/1098 348/685/1099 336/673/1100
f 350/676/1101 318/712/1102 326/713/1103 338/714/1104
f 313/739/1105 314/715/1106 315/741/1107 316/653/1108 317/743/1109 318/712/1110
f 319/744/1111 320/661/1112 321/746/1113 322/692/1114 323/748/1115 324/720/1116
f 325/749/1117 326/713/1118 327/750/1119 328/669/1120 329/751/1121 330/695/1122
f 331/752/1123 332/696/1124 333/753/1125 334/670/1126 335/754/1127 336/673/1128
f 337/755/1129 338/727/1130 339/757/1131 340/681/1132 341/759/1133 342/699/1134
f 343/760/1135 344/700/1136 345/762/1137 346/682/1138 347/764/1139 348/732/1140
f 349/766/1141 350/733/1142 351/767/1143 352/689/1144 353/769/1145 354/703/1146
f 355/770/1147 356/688/1148 357/772/1149 358/690/1150 359/774/1151 360/738/1152
